<svg viewBox="0 0 43.52 43.28" xmlns="http://www.w3.org/2000/svg" xmlns:xlink="http://www.w3.org/1999/xlink"><clipPath id="a"><path d="m190.28 33.63h1366v217.64h-1366z"/></clipPath><g fill="none" opacity=".2" stroke="#fff" stroke-miterlimit="10"><g clip-path="url(#a)" stroke-width="1.31"><path d="m.53 330.18v-185.14c5.34-10.33 14.92-14.91 26.02-14.87 26.38.09 49.86 7.2 65.95 29.19.36.49.8.93 1.12 1.45 10.24 16.68 25.95 20.53 44.69 17.96 14.46-1.98 28.89-4.11 43.37-5.99 16.54-2.15 32.12.54 46.97 7.04 16.1 7.05 32.58 8.18 50.06 7.19 30.21-1.71 60.59-2.24 90.01 6.61 18.7 5.63 34.73 14.72 42.9 33.15 2.9 6.55 4.51 13.39 5.09 20.37.68 8.17 2.12 16.31 1.62 24.56-.06 1 0 2 .06 3 .95 15.75 5.21 20.94 21.27 24.46 14.05 3.08 28.3 4.9 42.77 5.09 28.5.37 56.55 4.36 84.11 11.15 11.03 2.72 20.73 8.19 28.84 16.17 10.19 10.02 20.17 20.24 33.67 26.54 31.62 14.75 70.74-5.09 75.16-38.66 1.36-10.35-1.49-20.28-6.9-29.41-2.9-4.89-6.36-9.45-10.31-13.58-17.86-18.68-27.37-40.92-30.91-65.78-2.83-19.82-9.69-38.09-22.75-53.92-10-12.12-22.45-17.36-38.61-12.97-9.18 2.5-18.13 5.79-28.04 5.69-9.78-.09-17.36-3.65-23.46-10.61-3.92-4.46-7.07-9.39-9.36-14.85-3.81-9.1-7.62-18.19-11.95-27.11-6.15-12.67-15.13-23.14-26.2-31.78-15.54-12.12-25.71-27.59-33.65-44.88-15.52-33.76-14.12-67.73-2.32-102.05 3.49-10.15 7.76-19.84 14.06-28.7 6.21-8.74 14.73-13.99 25.32-16.35 9.18-2.05 18.57-2.59 27.9-3.5 19.33-1.89 38.23-6.33 57.49-8.69 27.95-3.43 63.95 17.02 72.06 37.76 4.05 10.34 4.86 21.11 5.76 31.84 2.53 30.16 14.11 57.12 30.91 82.24 14.09 21.07 35.54 28.51 60.46 29.33 15.46.51 30.84-1.02 46.26-1.22 3.13-.04 6.26 0 9.36.58 10.57 1.96 15.46 7.47 15.96 17.75.46 9.64-.87 19.21-1.6 28.77-1.39 18.24.53 36.1 6.02 53.4 5.07 15.95 14.36 29.47 30.94 36.74 12.79 5.61 24.98 4.75 36.47-3.74 8.38-6.19 14.65-14.22 21.7-21.57 8.9-9.28 17.37-18.94 26.89-27.67 11.56-10.61 20.35-8.33 24.87 6.55 3.51 11.55 5.02 23.56 8.84 35.03 2.89 8.67 6.82 16.88 13.02 23.78 9.93 11.04 22.22 15.78 37.49 11.99 8.64-2.14 16.19-6.28 23.62-10.8 10.76-6.55 20.73-14.18 31.48-20.74 15.7-9.57 32.37-12.03 50.37-7.52 12.12 3.04 23.78 7.6 36.11 9.89 10.23 1.9 20.35 3.76 30.98 2.73 16.41-1.59 29.27-9.02 39.66-20.68 7.87-8.84 16.53-16.95 24.63-25.59 11.54-12.31 15.03-25.82 9.89-41.64-4.47-13.77-8.65-27.67-10.02-42.12-2.23-23.38-7.52-46.29-11.13-69.45-2.74-17.61-.64-35.21 3.56-52.47 1.83-7.52 7.69-12.34 14.93-15.16 10.52-4.1 21.48-6.2 32.93-6.41 13.13-.24 26.24 1.09 39.36.18 26.98-1.87 45.83-28.22 38.31-55.23-1.35-4.86-3.27-9.49-5.67-13.97-1.07-1.98-2.99-4.15-.37-6.42 5.71-.2 11.42-.04 17.13-.09.68-.01 1.36.02 2.03.09 4.69 4.02 4.27 9.77 5.19 14.95 4.03 22.68 1.09 44.31-11.81 64.09-6.59 10.1-14.19 19.2-26.46 23.78-8.81 3.29-18 3.05-27.07 4.02-4.13.44-8.34.07-12.51.09-15.38.06-24.83 6.31-29.23 20.49-7.64 24.64-13.24 49.66-12.25 75.62.61 16.02 3.85 31.54 11.89 45.65 15.44 27.08 10.22 51.59-8.93 74.72-4.02 4.86-8.3 9.53-11.67 14.86-5.94 9.38-5.07 16.56 2.78 24.27 6.72 6.59 13.88 12.74 21.45 18.39 10.91 8.15 20.02 7.73 29.28-1.84 12.09-12.5 26.09-22.26 41.75-30.19 9.45-4.79 17.62-11.33 24.16-19.66 8.58-10.92 16.06-22.45 21.98-34.88 3.24-6.8 4.88-14.01 5.01-21.55.17-9.95-3.22-18.29-10.76-25.31-5.72-5.33-12.04-9.87-18.29-14.54-21.87-16.36-38.89-36.78-52.54-59.73-7.97-13.41-5.57-22.17 7.05-31.97 5.68-4.41 11.47-8.67 16.98-13.28 11.18-9.35 24.44-14.41 38.81-17.06 12.82-2.36 24.87-6.72 36.43-12.44 10.25-5.07 20.79-9.82 32.3-10.96 29.81-2.95 51.06-19.16 69.52-40 7.3-8.24 14.19-16.77 20.7-25.62 4.83-6.56 6.29-14.29 9.87-21.24.54-.42 1.15-.66 1.83-.74 3.01.24 6.1-.68 9.04.57v25.25c-1.76 3.3-4.81 5.51-7.51 7.98-15.55 14.24-29.77 29.73-44.93 44.34-14.64 14.11-31.07 25.44-51.59 30.44-4.86 1.18-9.61 2.87-13.98 5.2-18.67 9.95-38.5 17.3-58.32 24.71-7.02 2.63-13.33 6.64-18.77 11.75-13.23 12.41-15.04 24.78-5.5 39.99 5.73 9.14 12.75 17.29 21.58 23.96 6.88 5.19 13.71 10.43 20.02 16.32 14.23 13.28 18.57 29.8 16.18 47.84-4.88 36.85-22.66 67.09-53.26 90-9.24 6.91-16.02 15.42-19.54 25.86-6.32 18.71-20.89 24.83-39.49 25.31-10.42.27-20.86.1-31.29.05-11.83-.06-22.93 3.03-30.53 11.59-12.99 14.62-29.99 18.18-48.34 18.35-36.2.33-62.46 16.44-80.26 45.89-10.92 18.06-19.21 37.32-25.58 57.32-5.25 16.48-5.92 33.56-6.38 50.51-.51 18.48-4.13 36.15-10.64 53.41-.8 2.13-1.79 4.06-4 5.14h-21.29c-1.28-3.12.65-5.5 2.27-7.72 13.77-18.86 17.59-40.38 18.28-62.72 1.17-37.62 9.86-73.36 28.71-106.58 14.72-25.94 37.58-41.83 66.89-49.67 8.25-2.21 16.67-3.7 25.02-5.49 19.02-4.08 28.08-14.88 28.4-33.54.04-2 .03-4.01 0-6.01-.1-10.89-4.83-15.77-16.35-16.01-16.27-.34-32.56-.11-48.84-.1-15.02.01-29.99-1.03-44.94-2.22-14.46-1.15-28.24 1.48-41.63 6.56-11.26 4.28-22.37 8.88-33.22 14.04-8.83 4.19-18.08 7.22-27.57 9.74-15.1 4-28.9.88-42.03-6.48-9.87-5.53-18.21-12.67-24.72-21.75-3.56-4.97-7.76-9.44-12.43-13.47-4.66-4.03-7.87-3.98-12.57.11-3.44 3-6.18 6.5-8 10.64-1.3 2.95-2.45 5.97-3.94 8.84-4.06 7.81-10.12 11.13-18.96 8.83-17.12-4.44-34.26-9.08-49.71-17.8-21.55-12.17-32.91-31.19-38.49-53.92-4.42-18.01-4.8-36.53-7.42-54.77-.63-4.36-1.19-8.74-2.47-13-2.6-8.66-8.36-14.07-17.58-16.11-11.25-2.49-22.73-2.78-34.16-3.49-12.1-.75-24.12-1.79-35.69-5.61-21.67-7.15-35.3-22.74-46.7-40.72-14.01-22.11-19.54-46.65-22.36-71.95-.55-4.98-1.17-9.96-2.09-14.88-4.86-26.22-24.35-44.08-51.88-48.32-8.64-1.33-17.07-.78-25.5.46-18.37 2.7-36.5 6.53-54.48 11.04-16.57 4.15-28.66 13.69-36.71 27.88-24.25 42.77-20.08 82.98 11.85 123.38 5.63 7.12 12.85 12.58 19.56 18.53 13.99 12.41 24.57 27.18 33.84 42.95 2.27 3.86 4.93 7.39 8.04 10.68 7.82 8.28 17.14 11.65 28.71 9.16 5.28-1.14 10.75-1.54 16.04-2.66 18.21-3.85 34.06.88 47.46 12.71 13.58 11.98 25.26 25.59 33.84 41.39 4.9 9.02 7.22 18.84 7.6 28.92.25 6.62.86 13.19 1.6 19.75 1.49 13.15 8.03 23.91 17.9 32.85 14.45 13.08 22.65 29.01 24.48 48 .35 3.59 1.05 7.14 1.58 10.71.68 4.56 1.59 9.09 2.45 13.62 1.92 10.1 7.79 17.04 17.63 20.99 4.62 1.86 9.1 4.02 13.5 6.33 16.7 8.8 22.5 20.29 19.32 38.35-.94 5.33-2.32 10.59-3.23 15.93-1.63 9.48-3.4 18.95-1.43 28.64.68 3.33.4 6.8.17 10.2-.61 8.74-4.82 14.23-11.93 15.71-6.84 1.42-14.96-2.48-18.9-9.04-3.07-5.1-4.9-10.61-5.85-16.4-3.15-19.14-10.32-37.14-17.43-55.1-5.01-12.66-12.13-15.14-25.11-9.55-4.57 1.97-9.19 3.84-13.7 5.92-23.4 10.76-46.43 8.87-69.48-1.17-15.92-6.94-30.41-15.82-43.22-27.26-12.86-11.49-28.6-16.04-45.68-17.27-.83-.06-1.67-.04-2.5-.02-14.21.32-18.31 6.09-13.41 19.03 3.35 8.85 7.02 17.56 8.56 26.96 3.73 22.72-6.57 39.5-29.24 46.54-17.37 5.39-35.3 8.03-53.55 8.38-8.14.16-16.29.27-24.42-.04-10.34-.39-19.17 2.92-27.31 8.75-12.06 8.64-22.79 18.79-34.51 27.81-5.86 4.51-11.88 8.84-17.69 13.41-4.07 3.2-8.53 5.67-13.59 7.11h-15.03c-.45-2.52 1.59-3.59 3.23-4.66 26.39-17.22 49.25-38.31 70.95-60.52 12.73-13.03 27.44-16.92 45.27-13.93 16.19 2.71 32.33 2.64 48.07-3.2 21.11-7.84 26.03-27.69 10.67-43.78-5.04-5.28-11.09-9.07-18.05-11.53-5.88-2.08-11.84-3.96-18.04-4.89-14.43-2.16-25.93-8.89-33.7-20.69-6.93-10.52-16.78-12.87-28.65-11.27-9.91 1.34-19.88 2.28-29.79 3.52-18.89 2.36-37.44-.55-56.1-2.01-17.44-1.36-33.77-6.34-49.81-13.1-26.26-11.06-54.32-15.07-82.68-17.68-18.96-1.75-37.92-.67-56.88-1.15-11.25-.29-22.36-2.15-33.64-2.51-15.99-.5-27.42 4.92-33.5 19.71-3.26 7.93-8.81 14.48-15.36 20.23-5.52 4.85-11.9 8.06-19.19 9.59-2.46.52-4.95 1.07-7.11-.83z"/><path d="m1378.1-172.15c6.23 10.99 10.85 22.27 10.09 35.25-1.11 19.09-17.19 39.54-40.32 41.49-13.46 1.14-26.92-.27-40.39-.12-11.88.13-23.26 2.3-33.98 6.73-6.74 2.78-11.87 7.8-13.21 15.55-1.7 9.83-3.23 19.65-3.71 29.62-.67 13.68 1.62 26.99 4.57 40.32 3.31 14.99 5.36 30.19 6.82 45.48 1.62 16.95 6.83 33.21 11.62 49.52 4.44 15.12-.25 27.8-11.08 38.94-9.93 10.22-19.53 20.75-29.68 30.77-14.19 14.02-31.62 18.42-51.75 16.42-17.19-1.71-33.24-7.11-49.51-11.85-22.59-6.59-41.97-.86-60.27 12.17-12.83 9.13-25.59 18.46-40.58 24.46-21.95 8.79-41.32-1.15-51.73-18.62-8.89-14.91-11.09-31.66-15.27-47.89-1.14-4.44-2.17-8.9-5.41-12.61-3.2-3.67-6.56-4.65-10.83-1.84-7.99 5.26-14.14 12.38-20.71 19.05-11.98 12.15-22.16 25.89-35.86 36.51-11.23 8.71-29.19 8.84-43.79-.68-16.9-11.03-24.55-27.56-28.62-46.14-2.15-9.8-2.84-19.77-3.43-29.64-.56-9.46 1.26-19.04 1.81-28.58.32-5.58.76-11.25.14-16.78-.89-7.87-7.97-12.31-18.6-12.49-16.87-.29-33.67 1.66-50.57 1.29-31.02-.67-54-13.12-68.57-39.96-8.89-16.37-17.3-32.85-21.32-50.97-2.24-10.09-4.27-20.42-4.5-30.68-.54-23.68-12.36-39.65-33.41-50.81-16.68-8.85-33.96-10.53-52.42-7.36-21.62 3.71-43.21 7.7-65.21 9.01-22.63 1.35-35.13 15.14-42.51 33.74-7.93 20-13.44 40.62-13.43 62.38 0 19.24 5.46 37.05 13.43 54.34 7.26 15.76 17.36 29.35 31.7 40.19 18.71 14.14 28.37 34.17 36.29 55.03 2.52 6.64 5.79 12.83 10.36 18.33 10.21 12.29 23.62 11.8 37.55 8.09 7.01-1.87 13.85-4.66 21.12-5.14 15.93-1.06 26.45 7.36 35.07 19.13 10.89 14.88 17.52 31.4 19.79 49.26 3.45 27.13 14.88 50.34 33.99 70.48 15.44 16.27 19.53 39.8 9.44 56.59-10.1 16.79-25.68 27.67-45.77 30.1-14.87 1.8-27.87-5.23-39.82-13.32-5.64-3.82-10.76-8.32-15.13-13.39-13.57-15.71-31.57-22.61-51.92-25.94-24.8-4.06-49.61-7.04-74.85-7.35-13.41-.17-26.84-2.52-39.87-6.01-12.12-3.26-17.57-11.2-17.51-25.63.06-12.01-.72-23.98-3-35.72-3.95-20.34-17.63-33.05-37.09-40.38-17.78-6.69-36.48-9.22-55.45-9.78-11.05-.33-22.12.12-33.18-.12-7.94-.17-15.69 1.42-23.64 1.42-12.39 0-23.89-2.8-34.96-7.71-17.97-7.98-36.51-9.45-56-6.36-15.92 2.52-31.8 5.61-48.13 5.64-12.71.03-21.96-5.18-29.16-14.57-7.8-10.16-15.34-20.74-27.91-25.9-15.37-6.3-31.11-11.34-48.34-7.86-8.1 1.63-13.05 7.48-18.96 12.1v-42.08c1.42-3.71 2.91-7.38 4.83-10.89 4.17-7.62 4.25-15.25-.57-22.65-1.77-2.71-2.74-5.74-4.26-8.54v-30.06c2.2-1.21 4.47-.63 6.72-.23 4.1.73 8.21 1.46 12.24 2.54 13.89 3.71 25.16-.34 33.93-10.89 15.94-19.2 37.14-26.55 62.06-27.09 19.87-.43 39.01 2.48 58 7.72 10.38 2.87 20.98 5.33 32.04 3.63 9.36-1.43 16.72-5.96 22.59-12.89 12.62-14.9 21.45-31.95 29.72-49.26 4.19-8.76 8.76-17.31 14.32-25.32 9.35-13.47 22.49-22.39 37.97-28.31 11.06-4.23 22.32-8.15 32.38-14.29 12.8-7.81 22.27-18.12 23.09-33.7.2-3.8 1.06-7.54 1.37-11.34.16-1.95.36-4.15 3.26-4.36h85.07c.72-.03 1.44.04 2.14.2.9 5.79-2.93 11.03-10.15 13.63-5.33 1.92-11.03 2.14-16.59 2.91-2.89.4-5.79.75-8.68 1.11-14.18 1.74-25.69 8.02-34.42 18.81-12.21 15.09-28.47 24.41-46.85 30.82-7.26 2.53-14.53 5.01-21.75 7.63-21.3 7.73-36.02 21.91-44.79 41.97-7.67 17.55-14.9 35.29-25.39 51.55-4.4 6.82-9.09 13.38-15.12 19.07-9.77 9.22-21.1 12.97-34.75 10.99-14.96-2.17-29.04-7.29-43.46-11.29-12.14-3.36-24.41-5.03-37.06-4.58-25.42.9-41.28 15.3-43.14 39.58-1.56 20.31 2.33 39.07 16.78 54.93 8.2 9 13.89 19.59 18.45 30.56 9.33 22.45 21.54 28.07 47.93 25.76 13.69-1.2 27.32-2.91 41.12-3.29 15.21-.41 29.5 2.53 43.07 8.71 15.43 7.02 31.58 9.48 48.56 9.62 24.15.19 48.43-.25 72.27 4.5 15.96 3.18 30.41 9.67 43.28 19.4 9.13 6.91 15.35 15.71 19.39 26.05 3.45 8.84 5.88 17.97 8.08 27.14 3.96 16.49 14.12 26.95 31.14 32.06 17.69 5.32 36.03 6.62 54.09 9.63 16.86 2.81 33.89 4.45 50.91 6.09 18.52 1.79 32.97 10.44 45.07 23.47 5.42 5.83 10.99 11.54 17.67 16.1 12.43 8.47 28.09 8.27 38.89-.45 12.91-10.41 16.31-24.73 9.25-38.84-2-3.98-4.22-7.89-7.14-11.28-17.58-20.36-27.43-44.21-34.65-69.35-2.89-10.05-7.05-19.64-12.82-28.6-11.13-17.3-27.3-24.02-47.9-21.45-6.3.78-12.42.58-18.66-.37-16.32-2.47-27.16-11.61-33.89-25.57-3.77-7.82-6.43-16.08-8.6-24.46-4.65-17.98-13.3-33.43-28.77-45.25-28.15-21.5-38.64-51.83-44.31-84.32-3.94-22.57.28-44.71 4.36-66.81 2.99-16.19 7.12-32.12 12.77-47.67 4.69-12.9 12.96-18.72 27.04-18.77 9.43-.04 18.64 1.95 28.01 2.54 16.63 1.05 32.86-1.17 49.06-4.21 13.32-2.5 26.64-4.91 40.33-4.32 23.65 1.02 42.22 11.81 57.07 28.56 9.22 10.4 9.12 23.88 9.23 36.66.14 16.21 1.71 32.1 8.77 46.94 7.27 15.29 14.39 30.71 24.28 44.7 9.52 13.47 22.94 20.32 39.65 22.36 11.81 1.44 23.28.32 34.78-1.82 2.25-.42 4.47-1.01 6.65-1.72 18.92-6.21 23.03-17.88 11.82-33.74-5.29-7.48-11.23-14.68-18.26-20.51-23.91-19.84-26.63-44.48-18.95-71.74 2.94-10.44 6.96-20.57 11.1-30.63 1.84-4.47 3.85-8.88 5.33-13.48 2.65-8.23.53-11.2-8.61-11.32-15.86-.22-31.72.05-47.58-.1-14.2-.13-27.07-4.35-38.58-12.3-3.85-2.66-3.89-3.11-1.88-5.79h108.5c.7-.01 1.42.01 2.12.07.37.15.91.26 1.06.57 4.72 9.54 12.46 7.78 20.63 5.32 6.13-1.85 11.68-5.29 18.23-5.95h41.24c1.25.06 2.75.02 1.95 1.9-.58 1.34-1.89 2.17-3.22 2.73-15.93 6.62-28.47 18.07-42.39 27.54-8.34 5.67-17.35 10.37-25.42 16.44-15.43 11.62-24.54 26.6-25.87 45.47-.89 12.54 4.65 23.02 13.19 32.07 13.72 14.55 27.36 29.15 39.18 45.21 3.72 5.06 7.22 10.25 11.79 14.74 4.72 4.64 10.12 7.44 16.75 8.6 13.1 2.3 26.43 3.57 39.04 8.22 22.95 8.45 42.28 21.47 56.99 40.53 2.48 3.22 5.02 6.39 8.02 9.2 5.51 5.17 8.73 5.69 15.56 1.95 6-3.29 11.39-7.48 16.45-11.94 16.88-14.9 35.49-27.25 56.58-36.01 19.67-8.18 35.7-20.55 47.5-37.78 13.45-19.64 32.82-30.9 56.02-36.7 24.04-6.02 46.42-15.46 67.09-28.76 7.79-5.01 15.99-9.44 24.07-14.02 9.43-5.34 11.78-13.75 12.67-23.35 1.74-18.56-3.6-35.18-13.56-50.84-2.89-4.54-6.86-8.65-7.53-14.31.36-.61.9-.89 1.62-.87 6.14-.03 12.28-.01 18.42 0 .67-.03 1.31.09 1.93.35 5.43 4.36 7.86 10.68 11.32 16.3 4.35 7.04 8.33 14.3 12.56 21.41 4.87 8.19 12.26 12.96 21.54 15.11 11.38 2.64 23 4.15 34.68 3.12 12.38-1.09 23.27-4.98 27.67-17.85 3.25-9.49-.48-17.65-5.26-25.57-1.77-2.94-4.33-5.37-6.37-8.14-1.01-1.38-3.25-3.07-.15-4.72 6.91 0 13.82-.02 20.72 0 .79-.06 1.44.2 1.95.78z"/><path d="m368.68-172.14c.38 17.81-2.91 34.18-18.65 46.04-8.13 6.13-17.5 9.99-26.87 13.71-13.67 5.42-27.61 10.27-38.6 20.27-11.25 10.23-18.36 23.12-24.63 36.46-8.66 18.44-17.93 36.62-31.65 52.09-9.04 10.19-21.14 13.8-35.33 12.15-18.22-2.11-35.21-9.63-53.54-10.78-25.91-1.63-51.8-2.63-73.62 14.86-3.37 2.71-6.4 5.6-9.18 8.88-6.4 7.51-13.6 14.35-24.44 14.89-7.9.39-15.51-2.22-23.24-3.55-2.84-.49-5.6-1.36-8.4-2.06v-27.64c5.38-3.85 11.94-3.24 18.01-4.03 9.36-1.21 18.45-3.14 27.23-6.48 14.91-5.68 30.43-7.77 46.44-8.36 31.04-1.13 61.51 2.64 91.99 7.67 14.75 2.43 27.37-2.37 37.23-13.7 13.78-15.83 23.31-34.12 32.99-52.26 10.92-20.47 25.83-36.5 48.12-46.03 9.6-4.1 19.62-7.84 27.15-15.65 8.36-8.67 9.75-19.43 3.13-29.59-1.1-1.69-2.47-3.25-3.04-5.21-.39-1.33-.2-2.38 1.57-2.48 10.49 0 20.96-.04 31.44.04 1.97.02 4.12-.73 5.91.76z"/><path d="m329.93-172.12c4.06 5.24 8.25 10.06 8.93 17.32 1.35 14.4-7.27 22.26-18.61 28.43-8.87 4.84-18.32 8.69-27.31 13.34-15.99 8.27-26.43 21.56-34.87 36.53-9.8 17.37-18.79 35.17-30.98 51.25-8.67 11.44-19.49 19.1-34.43 19.79-10.4.48-20.54-2.23-30.72-4.03-27.98-4.95-56.12-4.93-84.43-3.26-15.99.94-29.94 7.97-45.03 11.46-10.5 2.43-21.26 3.26-31.95 4.47v-33.67c8.97-.04 17.66-2.16 26.38-3.7 16.43-2.89 32.2-.18 47.91 3.99 15.03 4 30.32 6.05 45.9 7.09 19.18 1.29 38.23 4.26 57.4 5.63 17.2 1.23 31.1-5.59 41.47-18.86 9.88-12.65 18.2-26.21 25.38-40.42 6.02-11.9 13.21-23.11 22.05-33.21 7.84-8.95 18.6-14.59 28.46-21.2 2.89-1.94 5.91-3.71 8.88-5.55 10.19-6.29 10.92-21.48 2.44-27.3-3.15-2.17-5.5-5.42-8.22-8.17 9.71-1.67 19.5-.34 29.25-.75.84-.06 1.53.21 2.08.81z"/></g><path d="m190.28 33.63h1366v217.64h-1366z"/></g><path d="m.5.5h42.53v42.24h-42.53z" fill="#f7ae06"/><path d="m42.52 1v41.24h-41.52v-41.24zm1-1h-43.52v43.23h43.52z" fill="#fff"/><g fill="none" stroke="#fff" stroke-miterlimit="10"><path d="m26.24 18.74c-.81 1.49-1.8 2.87-3.31 3.84-2.22 1.43-4.74 1.01-6.3-1.08-1.38-1.86-1.94-3.94-1.81-5.47 0-3.54.93-5.96 3.26-7.73 3.56-2.7 7.85-.51 9.01 2.54 1.06 2.78.51 5.41-.86 7.91z" stroke-width=".5"/><path d="m.52 2.13v-1.63" stroke-width=".2"/><path d="m43.07 38v5.03" stroke-width=".2"/><path d="m37.13 33.19c-.7-.97-1.52-1.84-2.43-2.63s-1.54-.78-2.46.02c-.67.59-1.21 1.27-1.56 2.08-.25.58-.48 1.17-.77 1.73-.79 1.53-1.98 2.17-3.71 1.73-3.35-.87-6.7-1.77-9.72-3.48-4.21-2.38-6.44-6.1-7.53-10.54-.86-3.52-.94-7.14-1.45-10.7-.12-.85-.23-1.71-.48-2.54-.51-1.69-1.63-2.75-3.44-3.15-1.01-.22-2.03-.35-3.05-.45v1.93c.32.07.63.14.95.23 2.23.6 3.53 2.08 4.16 4.09.84 2.69 1.06 5.5 1.28 8.29.33 4.14 1.01 8.18 3.26 11.86 1.22 1.99 3.03 3.23 5.07 4.24 2.6 1.29 5.3 2.42 7.58 4.24 1.19.95 2.37 1.92 3.54 2.91h16.72v-5.03c-.37-.17-.74-.36-1.11-.56-1.93-1.08-3.56-2.48-4.83-4.25z" stroke-width=".5"/><path d="m36.66 2.11c-.96-.56-1.93-1.1-2.91-1.61h-33.23v1.63c1.83-.07 3.66-.19 5.49-.21.61 0 1.22 0 1.83.11 2.07.38 3.02 1.46 3.12 3.48.09 1.89-.17 3.77-.31 5.64-.27 3.57.1 7.08 1.18 10.47.99 3.13 2.81 5.78 6.05 7.2 2.5 1.1 4.88.93 7.13-.73 1.64-1.21 2.87-2.79 4.24-4.23 1.74-1.82 3.4-3.71 5.26-5.42 2.26-2.08 3.98-1.63 4.86 1.28.69 2.26.98 4.62 1.73 6.87.47 1.41 1.08 2.75 1.96 3.94v-27.28c-2.21.56-4.31.1-6.41-1.13zm-5.24 9.63c-.02 4.17-1.87 7.18-4.03 10.07-1.23 1.65-2.54 3.24-4.52 4.16-2.9 1.35-6.01.56-7.9-2.02-1.69-2.31-2.44-4.86-2.71-7.66-.38-3.98.5-7.57 2.91-10.83 1.25-1.69 4.58-2.9 6.7-2.6 2.59.38 4.84 1.39 6.72 3.07 1.84 1.65 2.93 3.73 2.83 5.81z" stroke-width=".5"/><path d="m7.6 42.12c1.91-2.01 4.29-2.25 6.83-1.89 2.52.36 4.58 1.38 6.36 2.8h5.56c-1.17-.98-2.34-1.95-3.54-2.91-2.28-1.82-4.97-2.95-7.58-4.24-2.04-1.01-3.85-2.25-5.07-4.24-2.25-3.68-2.92-7.72-3.26-11.86-.22-2.8-.44-5.6-1.28-8.29-.63-2.01-1.93-3.48-4.16-4.09-.32-.09-.63-.16-.95-.23v2.73c2.03.98 3.19 2.68 3.68 5.3.87 4.66.3 9.21-1.2 13.67-.44 1.31-1.38 2.29-2.48 3.07v11.07h6.22c.29-.3.58-.61.87-.91z" stroke-width=".5"/><path d="m.52 14.34v6.83c.16-.2.3-.41.41-.64.97-1.96.78-4.41-.41-6.2z" stroke-width=".5"/></g></svg>