<?xml version="1.0" encoding="utf-8"?>
<!-- Generator: Adobe Illustrator 27.0.0, SVG Export Plug-In . SVG Version: 6.00 Build 0)  -->
<svg version="1.1" id="Layer_1" xmlns="http://www.w3.org/2000/svg" xmlns:xlink="http://www.w3.org/1999/xlink" x="0px" y="0px"
	 viewBox="0 0 269 123" style="enable-background:new 0 0 269 123;" xml:space="preserve">
<style type="text/css">
	.st0{fill:#6E30F5;}
	.st1{opacity:0.7;}
	.st2{fill:url(#XMLID_00000023266155341678324060000006926038054376025496_);}
	.st3{fill:url(#XMLID_00000182513173140079506930000005911474250227332776_);}
	.st4{fill:url(#XMLID_00000133506650812243930490000009005457811580387730_);}
	.st5{fill:url(#XMLID_00000103267349602574540530000011379487383750598033_);}
	.st6{fill:url(#XMLID_00000028295733305047814640000008554564253681365123_);}
	.st7{fill:url(#XMLID_00000049927790280718198700000014908550001775044526_);}
	.st8{fill:url(#XMLID_00000012430546160698071810000009530487926518141094_);}
	.st9{fill:url(#XMLID_00000017514132555589418350000014967050989220552879_);}
	.st10{fill:url(#XMLID_00000071532232145051251330000001790376214240552614_);}
	.st11{fill:url(#XMLID_00000173842833578969874800000015040503908393977498_);}
	.st12{fill:url(#XMLID_00000030470312501550015640000009656417712199625105_);}
	.st13{fill:url(#XMLID_00000108273990716992076090000003648381414267760280_);}
	.st14{fill:url(#XMLID_00000088111441021670051350000018379023221175850161_);}
	.st15{fill:url(#XMLID_00000131329476371299174120000012931838197892518576_);}
</style>
<path class="st0" d="M264.4,51.9c1.4-15.6,4.9-36.2,4.6-51.9C247.5-0.3,9.9-1.2,0,0l7.3,94.4C17.6,89,28.6,84.9,39.8,82
	c5.8-1.5,11.8-2.7,17.7-3.5c4-0.6,8-1,12-1.2c2.8-0.2,5.7-0.3,8.5-0.3c1.6,0,3.1,0,4.7,0c3.3,0.1,6.7,0.3,9.7,1.7
	c2.2,1,4.2,2.9,5.1,5.2c0.3,0.8,0.5,1.5,0.5,2.4c0,3.3-2.3,6.1-4.2,8.8c-1.8,2.8-3.2,6.5-1.3,9.2c1.1,1.6,3.2,2.4,5.1,2.8
	c3.9,1,8,1.1,12,1c3.9-0.2,7.8-0.6,11.7-1v0c4.9-0.5,9.8-1,14.7-0.6c1.3,0.1,2.6,0.3,4,0.5c1.2,0.2,2.6,0.6,3.6,1.4
	c0.1,1.4,0.2,2.2,0.2,2.2c0.4,1.7-0.7,3.4-0.9,5.2c-0.3,2.9,1.9,5.5,4.6,6.6c2.7,1.1,5.7,0.9,8.6,0.7c2.3-0.2,4.6-0.4,6.9-0.7
	c4-0.4,8-1,12-1.6c5.1-0.8,10.2-1.6,15.3-2.5c10.1-1.7,20.1-3.5,30.1-4.7c15.1-1.8,30.2-2.4,45.2,0.4
	C263.9,93.1,262.5,72.5,264.4,51.9z M114.4,6.2c1.9,23.1,2.3,46.3,3.8,69.5C116.6,52.4,116.2,29.3,114.4,6.2z"/>
<g id="XMLID_00000041988433419785877170000010333607683999953030_" class="st1">
	
		<linearGradient id="XMLID_00000106841186233354827340000009621568188398580408_" gradientUnits="userSpaceOnUse" x1="173.3235" y1="122.7621" x2="161.4192" y2="51.3362">
		<stop  offset="0" style="stop-color:#F7AE06"/>
		<stop  offset="0.1278" style="stop-color:#DC9536"/>
		<stop  offset="0.3004" style="stop-color:#BB776F"/>
		<stop  offset="0.4676" style="stop-color:#9F5D9F"/>
		<stop  offset="0.6252" style="stop-color:#8A4AC4"/>
		<stop  offset="0.7709" style="stop-color:#7B3CDF"/>
		<stop  offset="0.9002" style="stop-color:#7133EF"/>
		<stop  offset="1" style="stop-color:#6E30F5"/>
	</linearGradient>
	
		<path id="XMLID_00000158726227171794587690000011731298280659921838_" style="fill:url(#XMLID_00000106841186233354827340000009621568188398580408_);" d="
		M173.7,109.9c-1.9-20.8-3.3-41.1-4.8-61.8c-1.2-14.5-2.2-29-5.1-43.2c-4.9,0.1-9.6,0.2-13.9,0.2c4.9,27.2,5.7,54.9,8.3,82.7
		c1.1,11.6,2.7,23,4.7,34.3c4-0.4,8-1,12-1.6C174.5,117,174,113.5,173.7,109.9z"/>
	
		<linearGradient id="XMLID_00000148655007211259301630000010308411525649974199_" gradientUnits="userSpaceOnUse" x1="155.304" y1="114.263" x2="143.054" y2="40.7629">
		<stop  offset="0" style="stop-color:#F7AE06"/>
		<stop  offset="0.1278" style="stop-color:#DC9536"/>
		<stop  offset="0.3004" style="stop-color:#BB776F"/>
		<stop  offset="0.4676" style="stop-color:#9F5D9F"/>
		<stop  offset="0.6252" style="stop-color:#8A4AC4"/>
		<stop  offset="0.7709" style="stop-color:#7B3CDF"/>
		<stop  offset="0.9002" style="stop-color:#7133EF"/>
		<stop  offset="1" style="stop-color:#6E30F5"/>
	</linearGradient>
	
		<path id="XMLID_00000087392744264526243020000016678777756440271780_" style="fill:url(#XMLID_00000148655007211259301630000010308411525649974199_);" d="
		M149.9,5.1c-6.8,0-12.6-0.3-16.3-1c-0.3-0.1-0.7,0-1,0c2.3,20.4,11.2,106.2,11.2,106.2c0.4,1.7-0.7,3.4-0.9,5.2
		c-0.3,2.9,1.9,5.5,4.6,6.6c2.7,1.1,5.7,0.9,8.6,0.7c2.3-0.2,4.6-0.4,6.9-0.7c-2-11.3-3.7-22.7-4.7-34.3
		C155.7,60.1,154.9,32.3,149.9,5.1z"/>
	
		<linearGradient id="XMLID_00000175302592592565668010000004796146283534520979_" gradientUnits="userSpaceOnUse" x1="185.4268" y1="110.1507" x2="173.728" y2="39.9579">
		<stop  offset="0" style="stop-color:#F7AE06"/>
		<stop  offset="0.1278" style="stop-color:#DC9536"/>
		<stop  offset="0.3004" style="stop-color:#BB776F"/>
		<stop  offset="0.4676" style="stop-color:#9F5D9F"/>
		<stop  offset="0.6252" style="stop-color:#8A4AC4"/>
		<stop  offset="0.7709" style="stop-color:#7B3CDF"/>
		<stop  offset="0.9002" style="stop-color:#7133EF"/>
		<stop  offset="1" style="stop-color:#6E30F5"/>
	</linearGradient>
	
		<path id="XMLID_00000016796128378411958020000014902598840302626709_" style="fill:url(#XMLID_00000175302592592565668010000004796146283534520979_);" d="
		M185.2,56.1c-2.3-17.3-3-34.5-5.2-51.5c-5.3,0.1-10.9,0.3-16.2,0.4c2.9,14.2,3.9,28.6,5.1,43.2c1.4,20.6,2.9,41,4.8,61.8
		c0.4,3.6,0.8,7.1,1.3,10.7c5.1-0.8,10.2-1.6,15.3-2.5C188.7,97.6,188,77,185.2,56.1z"/>
	
		<linearGradient id="XMLID_00000164496415706499108360000010383260067574978706_" gradientUnits="userSpaceOnUse" x1="251.838" y1="101.983" x2="240.0108" y2="31.0198">
		<stop  offset="0" style="stop-color:#F7AE06"/>
		<stop  offset="0.1278" style="stop-color:#DC9536"/>
		<stop  offset="0.3004" style="stop-color:#BB776F"/>
		<stop  offset="0.4676" style="stop-color:#9F5D9F"/>
		<stop  offset="0.6252" style="stop-color:#8A4AC4"/>
		<stop  offset="0.7709" style="stop-color:#7B3CDF"/>
		<stop  offset="0.9002" style="stop-color:#7133EF"/>
		<stop  offset="1" style="stop-color:#6E30F5"/>
	</linearGradient>
	
		<path id="XMLID_00000171678340377634453820000003219475533106254751_" style="fill:url(#XMLID_00000164496415706499108360000010383260067574978706_);" d="
		M264.4,51.9c1.4-15.6,4.9-31,4.6-46.7c-21.5-0.3-41.5-0.4-61.3-0.5c2.4,16.7,4.4,33.3,5.4,50.4c1.2,19.7,4.5,39,7.3,58.3
		c15.1-1.8,30.2-2.4,45.2,0.4C263.9,93.1,262.5,72.5,264.4,51.9z"/>
	
		<linearGradient id="XMLID_00000066474360636031665480000001526437673448039611_" gradientUnits="userSpaceOnUse" x1="208.5812" y1="118.8318" x2="197.0684" y2="49.755">
		<stop  offset="0" style="stop-color:#F7AE06"/>
		<stop  offset="0.1278" style="stop-color:#DC9536"/>
		<stop  offset="0.3004" style="stop-color:#BB776F"/>
		<stop  offset="0.4676" style="stop-color:#9F5D9F"/>
		<stop  offset="0.6252" style="stop-color:#8A4AC4"/>
		<stop  offset="0.7709" style="stop-color:#7B3CDF"/>
		<stop  offset="0.9002" style="stop-color:#7133EF"/>
		<stop  offset="1" style="stop-color:#6E30F5"/>
	</linearGradient>
	
		<path id="XMLID_00000106861071462720473130000007281663504134082957_" style="fill:url(#XMLID_00000066474360636031665480000001526437673448039611_);" d="
		M207.7,4.7c-9.2-0.1-18.4-0.1-27.7-0.2c2.1,17,2.9,34.2,5.2,51.5c2.8,20.9,3.6,41.5,5.1,62c10.1-1.7,20.1-3.5,30.1-4.7
		c-2.8-19.3-6.1-38.7-7.3-58.3C212.1,38,210.1,21.4,207.7,4.7z"/>
	
		<linearGradient id="XMLID_00000010991158658528908260000004978636463388133042_" gradientUnits="userSpaceOnUse" x1="110.3282" y1="114.1654" x2="103.3086" y2="56.1366">
		<stop  offset="0" style="stop-color:#F7AE06"/>
		<stop  offset="0.1278" style="stop-color:#DC9536"/>
		<stop  offset="0.3004" style="stop-color:#BB776F"/>
		<stop  offset="0.4676" style="stop-color:#9F5D9F"/>
		<stop  offset="0.6252" style="stop-color:#8A4AC4"/>
		<stop  offset="0.7709" style="stop-color:#7B3CDF"/>
		<stop  offset="0.9002" style="stop-color:#7133EF"/>
		<stop  offset="1" style="stop-color:#6E30F5"/>
	</linearGradient>
	
		<path id="XMLID_00000052825054116035133480000009742113398873181832_" style="fill:url(#XMLID_00000010991158658528908260000004978636463388133042_);" d="
		M121.3,106.9c-3.9,0.4-7.8,0.9-11.7,1c-4,0.2-8.1,0-12-1c-1.9-0.5-3.9-1.2-5.1-2.8c-1.9-2.7-0.5-6.5,1.3-9.2
		c1.8-2.8,4.2-5.5,4.2-8.8c0-0.8-0.2-1.6-0.5-2.4L89.5,3.6c4.1,0,8.2,0,12.4,0c4.1,0,8.2,0,12.3,0.1c2.1,23.9,2.4,47.9,4,72
		C118.9,86.2,120.1,96.6,121.3,106.9z"/>
	
		<linearGradient id="XMLID_00000047026811541035023840000016639734786197451960_" gradientUnits="userSpaceOnUse" x1="103.4537" y1="108.2559" x2="96.4578" y2="50.4225">
		<stop  offset="0" style="stop-color:#F7AE06"/>
		<stop  offset="0.1278" style="stop-color:#DC9536"/>
		<stop  offset="0.3004" style="stop-color:#BB776F"/>
		<stop  offset="0.4676" style="stop-color:#9F5D9F"/>
		<stop  offset="0.6252" style="stop-color:#8A4AC4"/>
		<stop  offset="0.7709" style="stop-color:#7B3CDF"/>
		<stop  offset="0.9002" style="stop-color:#7133EF"/>
		<stop  offset="1" style="stop-color:#6E30F5"/>
	</linearGradient>
	
		<path id="XMLID_00000183969893039920247050000008770564556629339290_" style="fill:url(#XMLID_00000047026811541035023840000016639734786197451960_);" d="
		M109.6,108c-4,0.2-8.1,0-12-1c-1.9-0.5-3.9-1.2-5.1-2.8c-1.9-2.7-0.5-6.5,1.3-9.2c1.8-2.8,4.2-5.5,4.2-8.8c0-0.8-0.2-1.6-0.5-2.4
		L89.5,3.6c4.1,0,8.2,0,12.4,0c1.8,26.2,3.8,58.7,5,75.4C107.4,88.7,108.5,98.4,109.6,108z"/>
	
		<linearGradient id="XMLID_00000156547062176051500790000011965191882792310937_" gradientUnits="userSpaceOnUse" x1="129.0968" y1="108.9809" x2="122.2032" y2="51.9932">
		<stop  offset="0" style="stop-color:#F7AE06"/>
		<stop  offset="0.1278" style="stop-color:#DC9536"/>
		<stop  offset="0.3004" style="stop-color:#BB776F"/>
		<stop  offset="0.4676" style="stop-color:#9F5D9F"/>
		<stop  offset="0.6252" style="stop-color:#8A4AC4"/>
		<stop  offset="0.7709" style="stop-color:#7B3CDF"/>
		<stop  offset="0.9002" style="stop-color:#7133EF"/>
		<stop  offset="1" style="stop-color:#6E30F5"/>
	</linearGradient>
	
		<path id="XMLID_00000020372937823319166960000001197537483057181835_" style="fill:url(#XMLID_00000156547062176051500790000011965191882792310937_);" d="
		M136,106.3c-3.3-23.5-5.8-47.2-8.8-71.2c-1.3-10.5-2-20.9-3.3-31.3c-3.3,0-6.5-0.1-9.8-0.1c2.1,23.9,2.4,47.9,4,72
		c0.7,10.5,1.9,20.8,3.1,31.2C126.2,106.4,131.1,105.9,136,106.3z"/>
	
		<linearGradient id="XMLID_00000106837400532916641380000013415687663722396858_" gradientUnits="userSpaceOnUse" x1="139.3387" y1="92.9017" x2="132.2447" y2="34.2583">
		<stop  offset="0" style="stop-color:#F7AE06"/>
		<stop  offset="0.1278" style="stop-color:#DC9536"/>
		<stop  offset="0.3004" style="stop-color:#BB776F"/>
		<stop  offset="0.4676" style="stop-color:#9F5D9F"/>
		<stop  offset="0.6252" style="stop-color:#8A4AC4"/>
		<stop  offset="0.7709" style="stop-color:#7B3CDF"/>
		<stop  offset="0.9002" style="stop-color:#7133EF"/>
		<stop  offset="1" style="stop-color:#6E30F5"/>
	</linearGradient>
	
		<path id="XMLID_00000083791200379666961310000009914700662055933859_" style="fill:url(#XMLID_00000106837400532916641380000013415687663722396858_);" d="
		M144.9,110.1c0,0-8.8-85.8-11.2-106.2c-3.3,0-6.5-0.1-9.8-0.1c1.3,10.3,1.9,20.8,3.3,31.3c3,24,5.5,47.7,8.8,71.2
		c1.3,0.1,2.6,0.3,4,0.5C142,107.2,144.4,108.1,144.9,110.1z"/>
	
		<linearGradient id="XMLID_00000031208976886533070990000006489699855401431973_" gradientUnits="userSpaceOnUse" x1="86.9406" y1="74.8581" x2="82.6838" y2="36.0746">
		<stop  offset="0" style="stop-color:#F7AE06"/>
		<stop  offset="0.1278" style="stop-color:#DC9536"/>
		<stop  offset="0.3004" style="stop-color:#BB776F"/>
		<stop  offset="0.4676" style="stop-color:#9F5D9F"/>
		<stop  offset="0.6252" style="stop-color:#8A4AC4"/>
		<stop  offset="0.7709" style="stop-color:#7B3CDF"/>
		<stop  offset="0.9002" style="stop-color:#7133EF"/>
		<stop  offset="1" style="stop-color:#6E30F5"/>
	</linearGradient>
	
		<path id="XMLID_00000088840834496043180930000004787024802961384893_" style="fill:url(#XMLID_00000031208976886533070990000006489699855401431973_);" d="
		M89.5,3.6c-6.9,0-13.8,0.1-20.7,0.2l9.3,73c1.6,0,3.1,0,4.7,0c3.3,0.1,6.7,0.3,9.7,1.7c2.2,1,4.2,2.9,5.1,5.2L89.5,3.6z"/>
	
		<linearGradient id="XMLID_00000106841624003283565510000012474353501747264141_" gradientUnits="userSpaceOnUse" x1="23.2412" y1="84.8933" x2="18.9854" y2="46.1181">
		<stop  offset="0" style="stop-color:#F7AE06"/>
		<stop  offset="0.1278" style="stop-color:#DC9536"/>
		<stop  offset="0.3004" style="stop-color:#BB776F"/>
		<stop  offset="0.4676" style="stop-color:#9F5D9F"/>
		<stop  offset="0.6252" style="stop-color:#8A4AC4"/>
		<stop  offset="0.7709" style="stop-color:#7B3CDF"/>
		<stop  offset="0.9002" style="stop-color:#7133EF"/>
		<stop  offset="1" style="stop-color:#6E30F5"/>
	</linearGradient>
	
		<path id="XMLID_00000105415384442770044930000003382128207184857259_" style="fill:url(#XMLID_00000106841624003283565510000012474353501747264141_);" d="
		M30.3,5.5C20.4,6.2,10.5,7.1,0.6,8.3l6.8,86.1C17.6,89,28.6,84.9,39.8,82c-1.2-13.2-3.4-26-5.8-39.5C31.9,30,31.9,17.5,30.3,5.5z"
		/>
	
		<linearGradient id="XMLID_00000050625426709561283550000000028804612378023313_" gradientUnits="userSpaceOnUse" x1="48.6229" y1="87.2682" x2="44.8244" y2="52.6597">
		<stop  offset="0" style="stop-color:#F7AE06"/>
		<stop  offset="0.1278" style="stop-color:#DC9536"/>
		<stop  offset="0.3004" style="stop-color:#BB776F"/>
		<stop  offset="0.4676" style="stop-color:#9F5D9F"/>
		<stop  offset="0.6252" style="stop-color:#8A4AC4"/>
		<stop  offset="0.7709" style="stop-color:#7B3CDF"/>
		<stop  offset="0.9002" style="stop-color:#7133EF"/>
		<stop  offset="1" style="stop-color:#6E30F5"/>
	</linearGradient>
	
		<path id="XMLID_00000107579817355691627920000003930236249992670873_" style="fill:url(#XMLID_00000050625426709561283550000000028804612378023313_);" d="
		M52.3,39.6C50.6,27.8,50.7,16,48.7,4.5c-6.1,0.3-12.2,0.6-18.3,1c1.6,12.1,1.5,24.5,3.7,37c2.5,13.5,4.6,26.3,5.8,39.5
		c5.8-1.5,11.8-2.7,17.7-3.5C55.6,65.6,54.2,52.7,52.3,39.6z"/>
	
		<linearGradient id="XMLID_00000007411094540444023050000000545834471789077163_" gradientUnits="userSpaceOnUse" x1="62.3032" y1="71.3027" x2="58.6277" y2="37.8147">
		<stop  offset="0" style="stop-color:#F7AE06"/>
		<stop  offset="0.1278" style="stop-color:#DC9536"/>
		<stop  offset="0.3004" style="stop-color:#BB776F"/>
		<stop  offset="0.4676" style="stop-color:#9F5D9F"/>
		<stop  offset="0.6252" style="stop-color:#8A4AC4"/>
		<stop  offset="0.7709" style="stop-color:#7B3CDF"/>
		<stop  offset="0.9002" style="stop-color:#7133EF"/>
		<stop  offset="1" style="stop-color:#6E30F5"/>
	</linearGradient>
	
		<path id="XMLID_00000077321430917060548420000007325811770546101902_" style="fill:url(#XMLID_00000007411094540444023050000000545834471789077163_);" d="
		M59.3,4.1c-3.6,0.1-7.1,0.2-10.7,0.4c2,11.5,1.9,23.4,3.6,35.2c1.9,13.1,3.3,26,5.3,38.8c4-0.6,8-1,12-1.2
		C66.9,52.7,62.5,28.5,59.3,4.1z"/>
	
		<linearGradient id="XMLID_00000065057806983377799140000006421626240943332794_" gradientUnits="userSpaceOnUse" x1="73.8012" y1="86.9546" x2="69.5447" y2="48.1734">
		<stop  offset="0" style="stop-color:#F7AE06"/>
		<stop  offset="0.1278" style="stop-color:#DC9536"/>
		<stop  offset="0.3004" style="stop-color:#BB776F"/>
		<stop  offset="0.4676" style="stop-color:#9F5D9F"/>
		<stop  offset="0.6252" style="stop-color:#8A4AC4"/>
		<stop  offset="0.7709" style="stop-color:#7B3CDF"/>
		<stop  offset="0.9002" style="stop-color:#7133EF"/>
		<stop  offset="1" style="stop-color:#6E30F5"/>
	</linearGradient>
	
		<path id="XMLID_00000176022538456725864080000002156333985962927797_" style="fill:url(#XMLID_00000065057806983377799140000006421626240943332794_);" d="
		M68.8,3.8c-3.2,0.1-6.3,0.1-9.5,0.2c3.2,24.4,7.5,48.6,10.2,73.1c2.8-0.2,5.7-0.3,8.5-0.3L68.8,3.8z"/>
</g>
</svg>
