<?xml version="1.0" encoding="utf-8"?>
<!-- Generator: Adobe Illustrator 27.0.0, SVG Export Plug-In . SVG Version: 6.00 Build 0)  -->
<svg version="1.1" xmlns="http://www.w3.org/2000/svg" xmlns:xlink="http://www.w3.org/1999/xlink" x="0px" y="0px"
	 viewBox="0 0 1583.3 218.6" style="enable-background:new 0 0 1583.3 218.6;" xml:space="preserve">
<style type="text/css">
	.st0{fill:#6E30F5;}
	.st1{fill:none;stroke:#FFFFFF;stroke-width:0.9986;stroke-miterlimit:10;}
	.st2{fill:none;stroke:#FFFFFF;stroke-miterlimit:10;}
	.st3{fill:none;stroke:#FFFFFF;stroke-width:0.9979;stroke-miterlimit:10;}
	.st4{fill:none;stroke:#FFFFFF;stroke-width:0.9983;stroke-miterlimit:10;}
	.st5{fill:none;stroke:#FFFFFF;stroke-width:0.9988;stroke-miterlimit:10;}
	.st6{fill:none;stroke:#FFFFFF;stroke-width:0.9921;stroke-miterlimit:10;}
</style>
<g id="background">
	<rect class="st0" width="1583.3" height="218.6"/>
</g>
<g id="lines">
	<path class="st1" d="M808.4,213.4c9.8-10.3,21.9-11.5,34.9-9.7c12.9,1.8,23.4,7.1,32.5,14.3h28.4c-6-5-12-10-18.1-14.9
		c-11.6-9.3-25.4-15.1-38.7-21.7c-10.4-5.2-19.7-11.5-25.9-21.7c-11.5-18.8-14.9-39.5-16.6-60.6c-1.2-14.3-2.3-28.6-6.6-42.4
		c-3.2-10.3-9.8-17.8-21.3-20.9c-10.5-2.8-21.2-3.7-31.9-4.5c-15.2-1.1-30.2-3.3-43.9-10.1C691,16.1,682.6,8.7,674.9,0.5h-24.6
		c4.6,5.7,10.1,10.9,15.9,15.9c16.3,14,35.7,21.6,57.2,24.2c11.7,1.4,23.5,1.9,35.2,3.9c19.2,3.3,29.1,12.8,32.6,31.3
		c4.5,23.8,1.5,47.1-6.2,69.9c-2.4,7-7.4,12.1-13.4,16.2c-8.8,5.9-19.4,3.1-26.6-6.4c-7.1-9.4-14.6-18.5-23.9-25.9
		c-9.7-7.8-19.5-15.5-28.6-24c-12.3-11.4-22.1-24.8-33.1-37.3c-11.1-12.6-25.2-19.3-43.1-18c-10.5,0.8-20.9,3-31.6,2.8
		c-10.9-0.2-20.4-3.3-27.6-10.5c-14.8-14.8-31.3-27.8-46.5-42.1h-13.8c6.3,6.7,13.3,12.7,20.5,18.5c15.2,12.3,25,29.3,39.2,42.5
		c8.9,8.2,19.3,10.3,31,8.6c11.6-1.7,23.3-2.6,34.8-1.4c11.5,1.2,20.9,7.7,29,15.3c13.3,12.4,24.9,26.2,37.3,39.4
		c12.6,13.4,19.7,29.2,22.5,47.1c1.8,11.5,7.8,21,17.4,28.2c6.6,5,14.2,8.3,21.4,12.2c3.7,2,6.4,4.3,8,7H804
		C805.5,216.5,807,214.9,808.4,213.4z"/>
	<path class="st2" d="M1004.8,69.8c-2.8,9.6-3.8,19.5-5,29.5c-1.7,14-0.2,26.9,6.7,39.5c4.4,8,18.3,13.1,27,9.9
		c6.2-2.3,12.5-4.4,18-8.2c8.6-5.9,17.2-11.9,26-17.6c19.6-12.6,40.5-15.2,63-7.9c13.2,4.3,26.1,9.6,39.9,11.9
		c16.5,2.8,31.8,0.9,44.2-11.7c5.5-5.6,9.9-11.8,14.6-17.9c11.3-14.5,22.6-29.1,20.4-48.9c-1.3-15.4-1.7-31-3.6-46.5
		c-0.1-0.5-0.1-1-0.2-1.4h-10.8c0.7,4.2,1,8.2,0.9,12c0,21.8-4.9,37.6-16.7,51.4c-6.6,7.7-11.1,16.9-15,26.1
		c-6.1,14.3-20.1,23-39.8,17.9c-12.9-3.3-25-8.7-37.8-12.2c-19.6-5.2-39-3.7-58.4,1.6c-6.6,1.8-13.2,3.5-19.9,5
		c-15.3,3.4-19.8-3.9-22.7-14c-7.2-25,2-46.2,26.2-59.3c14.6-7.9,27.4-17.6,39-28.6h-19.5c-9.1,6.3-19,11.4-29.1,16.3
		C1028.8,28.1,1011.8,45,1004.8,69.8z"/>
	<path class="st1" d="M26.5,97c26.4,0.1,49.9,7.2,65.9,29.2c0.4,0.5,0.8,0.9,1.1,1.4c10.2,16.7,25.9,20.5,44.7,18
		c14.5-2,28.9-4.1,43.4-6c16.5-2.1,32.1,0.5,47,7c16.1,7,32.6,8.2,50.1,7.2c30.2-1.7,60.6-2.2,90,6.6c18.7,5.6,34.7,14.7,42.9,33.1
		c2.9,6.5,4.5,13.4,5.1,20.4c0.1,1.4,0.3,2.7,0.4,4.1h14.7c-2.3-9.8-4.9-19.7-9.2-28.9c-8.4-18.3-24.4-28.2-42.8-35.3
		c-16.4-6.4-33.7-7.8-51.3-8.5c-16.6-0.6-33.3-0.8-49.9-1.1c-14.8-0.3-28.3-5.7-41.6-11.4c-17.3-7.4-35.4-7.2-53.8-5.6
		c-13.4,1.2-26.8,3.5-40.4,2.8c-16.8-0.9-27-10.1-32.9-24.4C104.4,92,96.5,80,87.5,68.3c-16.3-21.1-18.9-44.1-10-67.8H42.5
		C39.4,2.1,36,3.1,32.1,3.3C25.6,3.6,19.3,1.9,13,0.5H0.5v27.2c12.9,12.7,12.9,26.2,0,42.1v42.1C5.8,101.5,15.4,96.9,26.5,97z"/>
	<path class="st1" d="M494.9,43.5c14.4,11.7,21.1,27.8,25.8,44.9c3.1,11.3,6.3,22.7,14.3,32.2c6.7,7.9,15,12,25.1,14.2
		c8.6,1.9,16.9,0.2,25.4-0.2c20.6-0.9,34.6,8.6,44.7,25c7.9,12.9,11.8,27.2,16.3,41.3c1.8,5.9,4,11.5,6.4,17.1h16.3
		c-6.6-12.5-10.7-26.1-12.7-40.5c-2.8-19.8-9.7-38.1-22.7-53.9c-10-12.1-22.4-17.4-38.6-13c-9.2,2.5-18.1,5.8-28,5.7
		c-9.8-0.1-17.4-3.7-23.5-10.6c-3.9-4.5-7.1-9.4-9.4-14.8c-3.8-9.1-7.6-18.2-11.9-27.1c-6.1-12.7-15.1-23.1-26.2-31.8
		c-11.4-8.9-19.9-19.6-26.8-31.5h-9.8c0,0.1,0.1,0.2,0.1,0.3C466.8,18.6,480.2,31.5,494.9,43.5z"/>
	<path class="st2" d="M800.4,7.8c3.1,0,6.3,0,9.4,0.6c10.6,2,15.5,7.5,16,17.8c0.5,9.7-0.9,19.3-1.6,28.8c-1.4,18.3,0.5,36.2,6,53.5
		c5.1,16,14.4,29.5,30.9,36.8c12.8,5.6,25,4.8,36.5-3.7c8.4-6.2,14.7-14.3,21.7-21.6c8.9-9.3,17.4-19,26.9-27.7
		c11.6-10.6,20.4-8.3,24.9,6.6c3.5,11.6,5,23.6,8.8,35.1c2.9,8.7,6.8,16.9,13,23.8c9.9,11.1,22.2,15.8,37.5,12
		c8.6-2.1,16.2-6.3,23.6-10.8c10.8-6.6,20.7-14.2,31.5-20.8c15.7-9.6,32.4-12.1,50.4-7.5c12.1,3,23.8,7.6,36.1,9.9
		c10.2,1.9,20.4,3.8,31,2.7c16.4-1.6,29.3-9,39.7-20.7c7.9-8.9,16.5-17,24.6-25.6c11.5-12.3,15-25.9,9.9-41.7
		c-4.5-13.8-8.6-27.7-10-42.2c-0.4-4.2-0.9-8.3-1.5-12.4h-9.8c0.1,0.5,0.1,1,0.2,1.4c1.8,15.5,2.2,31,3.6,46.5
		c2.2,19.8-9.1,34.4-20.4,48.9c-4.7,6.1-9.1,12.3-14.6,17.9c-12.4,12.6-27.7,14.6-44.2,11.7c-13.8-2.3-26.7-7.6-39.9-11.9
		c-22.4-7.4-43.4-4.8-63,7.9c-8.8,5.7-17.4,11.6-26,17.6c-5.5,3.8-11.7,5.9-18,8.2c-8.7,3.1-22.6-1.9-27-9.9
		c-6.9-12.5-8.4-25.5-6.7-39.5c1.2-9.9,2.3-19.8,5-29.5c7.1-24.8,24.1-41.7,47.4-52.9c10.1-4.9,20-10.1,29.1-16.3h-60.5
		c-7.1,3.4-14.1,6.8-21.1,10.4c-15,7.6-28.8,6-42.5-2.1c-4.9-2.9-9.8-5.6-14.9-8.3H716.9c10.9,5.6,23.5,8,37.2,8.5
		C769.6,9.6,784.9,8,800.4,7.8z"/>
	<path class="st1" d="M749.9,211c-7.3-3.9-14.8-7.2-21.4-12.2c-9.6-7.2-15.6-16.7-17.4-28.2c-2.8-17.8-9.8-33.6-22.5-47.1
		c-12.4-13.2-24-27-37.3-39.4c-8.2-7.6-17.5-14.1-29-15.3c-11.6-1.2-23.3-0.3-34.8,1.4c-11.7,1.7-22.1-0.4-31-8.6
		c-14.2-13.2-24-30.2-39.2-42.5c-7.2-5.8-14.2-11.9-20.5-18.5h-10c1.1,1.5,2.2,2.9,3.3,4.4c5.6,7.1,12.8,12.6,19.6,18.5
		c14,12.4,24.6,27.2,33.8,42.9c2.3,3.9,4.9,7.4,8,10.7c7.8,8.3,17.1,11.6,28.7,9.2c5.3-1.1,10.7-1.5,16-2.7
		c18.2-3.9,34.1,0.9,47.5,12.7c13.6,12,25.3,25.6,33.8,41.4c4.9,9,7.2,18.8,7.6,28.9c0.2,6.6,0.9,13.2,1.6,19.7
		c1.4,12.6,7.5,23,16.8,31.8h54.3C756.3,215.3,753.6,213,749.9,211z"/>
	<path class="st3" d="M78.3,207.4c-5-7.1-3.7-13.1,3.5-17.7c23.5-15,48.9-25.7,77.1-29.4c9-1.2,18-2,27.3-0.8
		c14.4,2,23.8,10,31.1,20.8c10.7,16,12.5,16.4,28,5.2c17.4-12.6,37-19.4,59.1-19.6c23.4-0.2,46,3.9,67.6,12.1
		c14.9,5.7,24.4,15.8,26.1,32c0.3,2.7,0.4,5.3,0.4,7.9h19c-0.1-1.4-0.3-2.7-0.4-4.1c-0.6-7-2.2-13.8-5.1-20.3
		c-8.2-18.4-24.2-27.4-42.9-33.1c-29.5-8.8-59.9-8.3-90.1-6.6c-17.5,1-34-0.1-50.1-7.2c-14.9-6.5-30.5-9.2-47-7
		c-14.5,1.9-28.9,4-43.4,6c-18.8,2.6-34.5-1.3-44.7-17.9c-0.3-0.5-0.8-1-1.1-1.4c-16.1-21.9-39.6-29-66-29.1
		c-11.1,0-20.7,4.5-26,14.8V218h87.3C84.4,215,81.2,211.5,78.3,207.4z M66.8,184.1c-0.7,3.9-3.6,6.8-8.1,7.1
		c-15.5,1-28-5.1-37.7-16.2c-8.6-9.8-6.3-19.9-1.8-26c9.1-12.1,23.2-17.7,33.8-12.5c10.1,5,14.7,14.2,15.1,25.1c0.1,2.4,0,4.8,0,8.1
		C69.1,173.9,67.7,179,66.8,184.1z"/>
	<path class="st2" d="M175.3,210.1c-6.1,6.5-11.1,8.1-25.5,8.1c-4.9,0.4-10.8-0.2-16.3-3.1c-9.7-5.1-11.3-15.9-4-23.7
		c8.7-9.2,19.2-13.4,32.1-13.1c8.2,0.2,13.7,4.3,17.8,10.3C182.4,193.1,179.5,205.7,175.3,210.1z"/>
	<path class="st1" d="M448.1,3.5c6.7,18.8,18.3,34.2,34.7,46.5c14.6,11,21.6,26.3,25.4,43.4c2.9,13.2,6,26.3,15.1,37.5
		c10.5,12.9,24.5,17.8,40.5,19.3c8.4,0.8,17,1,25.3,2.9c14.4,3.3,23.7,12.4,30.5,24.6c7.1,12.7,11.1,26.6,15.4,40.2h17.9
		c-2.5-5.5-4.6-11.2-6.4-17.1c-4.4-14.1-8.3-28.4-16.3-41.3c-10.1-16.5-24.2-25.9-44.7-25c-8.4,0.4-16.8,2-25.4,0.2
		c-10.1-2.2-18.4-6.4-25.1-14.2c-8.1-9.5-11.2-20.9-14.3-32.2c-4.7-17.1-11.4-33.2-25.8-44.9c-14.7-12-28.1-24.9-35.3-42.6
		c0-0.1-0.1-0.2-0.1-0.3h-12.4C447.4,1.5,447.8,2.5,448.1,3.5z"/>
	<path class="st1" d="M87.9,68.3c9,11.6,16.9,23.6,22.5,37.1c5.9,14.3,16.1,23.5,32.9,24.4c13.6,0.8,26.9-1.6,40.4-2.8
		c18.5-1.6,36.5-1.8,53.8,5.6c13.3,5.7,26.8,11.1,41.6,11.4c16.6,0.3,33.3,0.5,49.9,1.1c17.6,0.6,34.9,2.1,51.3,8.5
		c18.4,7.1,34.4,17.1,42.8,35.3c4.2,9.3,6.9,19.1,9.2,28.9h18.3c-0.8-1.6-1.6-3.3-2.2-5c-2.4-6-4.7-11.9-6.6-18.1
		c-6.2-21.2-20.7-35.4-40.4-45.5c-19.7-10.1-40.7-14.7-62.9-14.8c-17.5,0-34.9,0.6-52.3-2.3c-12.7-2.2-24.3-6.9-34.7-14.1
		c-9.2-6.4-19.1-9.3-30.4-8.8c-16.4,0.6-32.9,1-49.3,1.2c-8.7,0.1-16.7-2.5-24.1-7c-4.3-2.6-6.8-6.4-9-10.5
		c-12.9-23.7-25-47.8-34.5-73c-2.9-7.7-2.1-14.5,1.3-19.6H77.9C69,24.2,71.6,47.2,87.9,68.3z"/>
	<path class="st2" d="M999.6,10.9c7-3.5,14-7,21.1-10.4h-78.5c5,2.6,10,5.4,14.9,8.3C970.8,16.9,984.6,18.5,999.6,10.9z"/>
	<path class="st1" d="M458.3,189.1c-6-27.9-25.3-43.2-50.5-54.4c-20-8.8-40.7-11.9-62.6-11c-12.4,0.5-24.9,0.9-37.4-0.9
		c-17.9-2.5-32.6-9-40.1-26.2c-7.8-17.8-16.1-35.5-21.9-54.1c-3.7-11.9-0.5-22.6,4.9-33.3c1.5-3,3.2-5.9,4.9-8.7h-20.6
		c-0.6,0.6-1.2,1.3-1.8,1.9c-9.5,9.6-20.6,12-33.5,7.8c-9.4-3.1-18.6-6.6-28-9.7h-66.4c-3.4,5.1-4.2,11.9-1.3,19.6
		c9.5,25.2,21.6,49.3,34.5,73c2.2,4,4.7,7.9,9,10.5c7.4,4.5,15.3,7.1,24.1,7c16.4-0.3,32.9-0.6,49.3-1.2c11.3-0.4,21.2,2.5,30.4,8.8
		c10.3,7.2,21.9,11.9,34.7,14.1c17.3,3,34.8,2.3,52.3,2.3c22.2,0,43.2,4.7,62.9,14.8c19.8,10.1,34.2,24.4,40.4,45.5
		c1.8,6.1,4.2,12.1,6.6,18.1c0.7,1.7,1.4,3.4,2.2,5h20.1C464.1,209.6,460.6,199.6,458.3,189.1z"/>
	<path class="st2" d="M168.2,59.7c-3.2,1.5-5.4-1.2-7.7-2.8c-5.2-3.7-7.2-9.3-7.8-15c-0.3-3.2,1.7-6.9,5.7-7.7
		c4.5-0.9,8.1,1.5,10.8,4.6c2.9,3.3,3.3,7.6,4.1,12.1C172.4,54,171.9,58,168.2,59.7z"/>
	<path class="st1" d="M610.8,208.2c-1.9-20-11.2-36.8-34.4-41.5c-12.8-2.6-25.8-3.3-38.3-7.7c-14.7-5.2-25.9-13.9-34.3-26.4
		c-6.2-9.2-7.5-19.7-9.4-30.1c-2.3-12.3-6.4-23.7-14.7-33.8c-6.7-8-15.2-14.1-22.4-21.5c-13.4-13.8-21-29.6-24.8-46.7h-20.1
		c-0.3,2.5-0.4,4.9-0.4,7.4c0.1,9.5,1.2,19.1,7.1,27.4c10.9,15.3,21.8,30.5,35.3,43.9c7,6.9,13.1,14.9,12.5,25.8
		c-0.6,10.3-8.5,15.4-18.5,11.8c-6.5-2.3-12.3-5.8-18.3-8.9c-10.7-5.7-22-5.1-33.4-3.8c-22.6,2.6-44.8,7.8-67.7,7.8
		c-23.2-0.1-36.7-8.9-45.4-29.6c-5.3-12.8-10.4-25.6-15.1-38.6c-5.5-15.2-4.6-29.9,5.8-42.5c0.2-0.2,0.4-0.4,0.5-0.7h-19
		c-1.8,2.8-3.4,5.7-4.9,8.7c-5.5,10.7-8.6,21.4-4.9,33.3c5.8,18.6,14.1,36.2,21.9,54.1c7.5,17.1,22.1,23.6,40.1,26.2
		c12.5,1.8,25,1.4,37.4,0.9c21.8-0.9,42.6,2.2,62.6,11c25.2,11.1,44.5,26.5,50.5,54.4c2.2,10.5,5.8,20.5,12.3,28.9h23.1
		c-0.1-0.1-0.2-0.1-0.3-0.2c-6.5-5.4-10.1-12.2-12.2-20.2c-2.3-8.8-2-17.2,2.2-25.4c3.6-7.1,9.8-9.9,17.9-7.7
		c20.3,5.5,40.6,11.2,60.8,17.1c4.1,1.2,8.2,3.1,11.8,5.3c11.3,7.1,10.5,20.2-1.5,29.6c-0.7,0.5-1.4,1.1-2.1,1.6h40.1
		c0.2-1.7,0.3-3.6,0.3-5.6C610.8,211,610.9,209.5,610.8,208.2z"/>
	<path class="st2" d="M587.1,32.7C603,31.5,621,20.3,620.7,0.5h-24.7c-2,2.4-4.3,4.6-7,6.5c-5.9,4.3-12.8,4.8-20.1,3
		c-8.2-2-15.5-5.5-22.4-9.5h-20.5c9.6,7.6,19.7,14.7,29.4,22.1C564.5,29.7,574.9,33.7,587.1,32.7z"/>
	<path class="st4" d="M1463.3,51.2c-1.4,21.9-3.4,43.8-4,65.8c-0.4,14.6-2.4,29.1-5.5,43.4c-2,9.2-3.4,18.5-4.7,27.9
		c-1.6,12.1,1.1,22.3,7.5,29.5h88.1c1.3-0.5,2.5-1.1,3.8-1.7c8.8-4.1,17.4-8.8,26.5-12.2c2.5-0.9,5-2.3,7.8-1v-21.6
		c-9.6,5.8-19.1,11.8-28.8,17.5c-11,6.5-22.5,12.6-35.6,13.5c-22.3,1.4-34.8-8.9-36.7-31.5c-2-22.8-4.1-45.4-9.2-67.8
		c-4.8-20.7-4.1-42,2.2-62.7c2.8-9,8.2-16.3,16.2-22.1c9.4-6.8,19.6-12,30.4-16.2c14.2-5.6,27.2-1.7,40.1,4.1
		c7,3.1,13.7,6.8,21.4,7.9V0.5h-82.4c-4,2.9-8.1,5.7-12.4,8.2C1471,18.5,1464.4,33.1,1463.3,51.2z"/>
	<path class="st2" d="M1572.2,41.9c-8.5-1.9-16.9-4.6-25.4-6.4c-14.3-2.9-27.9-0.7-40.5,6.2c-19.7,10.7-24.5,28.4-22.8,48.5
		c0.9,10.7,4.2,20.8,9.3,30.5c7.9,14.9,14.4,30.1,17.1,46.9c2.9,18,14.7,22.1,30.6,11.8c8.3-5.4,14.6-12.5,20-20.5
		c4.4-6.4,8.5-12.9,13.7-18.7c2.2-2.4,4.1-5.8,8.4-5.2v-33.7c-9.2,5.9-16.9,13.5-25.3,20.3c-4.4,3.5-9.3,6-14.3,8.4
		c-9,4.3-16.4-0.8-22.4-5.3c-13.1-9.8-22.5-22.3-22-39.7c0.4-13.8,11.4-24.1,25.8-24.8c14-0.7,26.9,4.5,40.3,6.6
		c5.9,0.9,11.8,2.3,17.9,1.9V42.3C1579.1,43.9,1575.6,42.7,1572.2,41.9z"/>
	<path class="st2" d="M1286.9,117.7c-4,4.9-8.3,9.6-11.7,14.9c-5.9,9.4-5.1,16.6,2.8,24.3c6.7,6.6,13.9,12.8,21.4,18.4
		c10.9,8.2,20,7.7,29.3-1.8c12.1-12.5,26.1-22.3,41.7-30.3c9.4-4.8,17.6-11.4,24.2-19.7c8.6-10.9,16.1-22.5,22-35
		c3.2-6.8,4.9-14,5-21.6c0.2-10-3.2-18.3-10.8-25.4c-5.7-5.3-12-9.9-18.3-14.6c-10.6-7.9-20-16.8-28.5-26.5h-25.7
		c2.6,2,5.1,4.1,7.5,6.3c6.1,5.4,11.8,11.3,17.2,17.4c7.1,7.8,16.1,13.8,24.7,20c4.4,3.2,8.2,6.9,11.8,10.7c5.6,6,5.7,14.1,3.1,20.5
		c-7.1,18.1-17.6,34.4-34,46.5c-8.5,6.3-18.6,7.7-29,7c-8.6-0.6-15.9-9.3-16.4-19.1c-0.2-2.8,0-5.6,0-8.4
		c-0.1-9.2,1.3-18.3,1.4-27.6c0.1-12.4-4.2-23.1-10.3-33.5c-4.7-8-9.5-16-10.9-25.4c-0.7-5-0.8-10,1.7-14.4h-21.3
		c0.9,14.8,4.3,29.1,11.7,42.3C1311.3,70,1306.1,94.5,1286.9,117.7z"/>
	<path class="st5" d="M1396.3,206.4c1.4-10.8,3.7-21.3,9.5-30.9c3-4.8,6.1-9.5,9.5-14.1c19.6-26.1,28.7-55.5,31.6-87.4
		c1.3-15.2,0.4-30-2.7-44.7c-2.1-10.2-5.4-19.9-10.7-28.7h-38.6c2.7,2.7,5.6,5.2,8.7,7.6c6.9,5.2,13.7,10.4,20,16.3
		c14.2,13.3,18.6,29.8,16.2,47.8c-4.9,36.8-22.7,67.1-53.3,90c-9.2,6.9-16,15.4-19.5,25.9c-6.3,18.7-20.9,24.8-39.5,25.3
		c-10.4,0.3-20.9,0.1-31.3,0c-7.8,0-15.2,1.3-21.5,4.6h116.3C1393.9,215.4,1395.6,211.7,1396.3,206.4z"/>
	<path class="st2" d="M1081,42.3c-8.5,11.4-8.8,18.7,3.7,24c1.5,0.6,3.2,1,4.8,1.3c23.5,3.8,47.1,6.6,70.6,10.6
		c9.5,1.6,18.9,0.1,26.6-7.2c8.3-7.8,17.3-15,26.4-21.9c13.2-9.9,19.6-22.8,20.1-38.7c0.2-3.4-0.3-6.7-0.9-9.9h-15.5
		c0.5,1.9,0.8,3.8,1,5.8c1.3,11.8-5.6,21.3-15.9,27.2c-15,8.6-31.7,12.7-49.1,13.5c-5.1,0.4-9.9-0.8-14.7-2.3
		c-10.6-3.4-14.7-9.6-11.3-19.5c3.1-9,7-17.5,12.2-24.8h-19.9c-4.9,5.9-9.9,11.8-15.1,17.4C1096.6,26.2,1087.7,33.3,1081,42.3z"/>
	<path class="st1" d="M1238.7,189.9c0-2,0-4,0-6c-0.1-10.9-4.8-15.8-16.4-16c-16.3-0.3-32.6-0.1-48.8-0.1c-15,0-30-1-44.9-2.2
		c-14.5-1.1-28.2,1.5-41.6,6.6c-11.3,4.3-22.4,8.9-33.2,14c-8.8,4.2-18.1,7.2-27.6,9.7c-15.1,4-28.9,0.9-42-6.5
		c-9.9-5.5-18.2-12.7-24.7-21.7c-3.6-5-7.8-9.4-12.4-13.5c-4.7-4-7.9-4-12.6,0.1c-3.4,3-6.2,6.5-8,10.6c-1.3,2.9-2.4,6-3.9,8.8
		c-4.1,7.8-10.1,11.1-19,8.8c-17.1-4.4-34.3-9.1-49.7-17.8c-21.5-12.2-32.9-31.2-38.5-53.9c-4.4-18-4.8-36.5-7.4-54.7
		c-0.6-4.4-1.2-8.7-2.5-13c-2.6-8.7-8.4-14.1-17.6-16.1c-11.2-2.5-22.7-2.8-34.2-3.5c-12.1-0.7-24.1-1.8-35.7-5.6
		c-11.4-3.8-20.6-9.9-28.4-17.5h-14.7c7.7,8.2,16.1,15.5,26.5,20.7c13.7,6.8,28.7,9,43.9,10.1c10.7,0.8,21.4,1.7,31.9,4.5
		c11.4,3.1,18,10.6,21.3,20.9c4.3,13.8,5.4,28.1,6.6,42.4c1.7,21.2,5.2,41.8,16.6,60.6c6.2,10.2,15.5,16.5,25.9,21.7
		c13.3,6.6,27.1,12.4,38.7,21.7c6.1,4.9,12.1,9.8,18.1,14.9h127.8c8.7-4.8,17.7-8.9,28.3-9c8.8,0,15.8,3.2,21.9,8.6
		c0.1,0.1,0.2,0.2,0.4,0.3h142C1233.9,212.3,1238.5,203,1238.7,189.9z"/>
	<path class="st2" d="M847.2,25.9c6.4-8.6,23.4-14.8,34.3-13.3c13.2,1.9,24.8,7.1,34.3,15.7c9.4,8.5,15,19.1,14.5,29.7
		c-0.1,21.3-9.6,36.7-20.6,51.5c-6.3,8.5-13,16.5-23.1,21.3c-14.9,6.9-30.7,2.9-40.4-10.3c-8.6-11.8-12.5-24.9-13.8-39.1
		C830.3,61,834.8,42.6,847.2,25.9z"/>
	<path class="st2" d="M843.5,79.9c0-18.1,4.7-30.5,16.7-39.5c18.2-13.8,40.1-2.6,46.1,13c5.4,14.2,2.6,27.6-4.4,40.5
		c-4.1,7.6-9.2,14.7-16.9,19.6c-11.4,7.3-24.2,5.2-32.2-5.5C845.7,98.4,842.9,87.8,843.5,79.9z"/>
	<path class="st2" d="M700,56.9c6.6-1.4,13.2-1.6,19.9-1.3c12.5,0,24.8,0.9,36.9,4.4c18.4,5.2,25.4,27.2,17.6,43.1
		c-4.5,9.1-16.6,13.6-28.5,11.3c-22.3-4.4-39.8-15.5-52.4-33.9c-2.4-3.5-3.3-7.3-3.7-11.3C689.2,62.7,693,58.4,700,56.9z"/>
	<path class="st2" d="M377.5,11.8c-4.8,9.5-5.3,19.4-3.9,29.8c1.5,10.6,4,21.5-0.2,32c-5.8,14.6-18.9,21.2-35.1,22.9
		c-12.6,1.3-24.2-1-32.5-11.2c-4.7-5.7-7.9-12.2-10.5-19c-4.1-10.7-7.5-21.7-8.5-33c-1-10.8,3.8-20.7,10.9-28.6
		c1.2-1.4,2.4-2.8,3.4-4.2h-26.4c-0.2,0.2-0.4,0.4-0.5,0.7c-10.4,12.6-11.3,27.4-5.8,42.6c4.7,13,9.7,25.9,15.1,38.7
		c8.7,20.8,22.2,29.6,45.4,29.7c22.9,0.1,45.2-5.2,67.7-7.8c11.4-1.3,22.7-1.9,33.4,3.8c6,3.2,11.8,6.7,18.3,9
		c10.1,3.6,17.9-1.5,18.5-11.8c0.7-10.9-5.4-18.9-12.5-25.9C440.8,66,430,50.7,419,35.4c-5.9-8.3-7-17.9-7.1-27.5
		c0-2.5,0.1-4.9,0.4-7.4h-28.9C381.4,4.3,379.4,8,377.5,11.8z"/>
	<path class="st2" d="M356.6,60.2c4.1-8.5-1.5-27.3-9.6-32.6c-5.6-3.6-12.6-3.1-16,1.6c-3,4.1-4.9,8.8-5.1,14.4
		c0.2,6.7,1.7,13.9,6.6,19.1C339.8,70.6,350.9,72.1,356.6,60.2z"/>
	<path class="st6" d="M307.5,214.3c-4.7-9.3,0.7-15.7,12.2-15.8c12.8,0.2,23.2,5.2,31.3,14.5c1.2,1.4,1.9,3.1,2,5h28.3
		c0.8-9.2-2.7-16.9-10.9-22.1c-20.4-13-43.5-18.6-67.9-17.1c-14.8,0.9-29.2,9.2-26.2,29.6c0.5,3.6,1.8,6.7,3.5,9.7h29.8
		C308.9,216.8,308.2,215.6,307.5,214.3z"/>
</g>
<g id="background_border">
	<g>
		<path class="st0" d="M1581.3,2v214.6H2V2H1581.3 M1583.3,0H0v218.6h1583.3V0L1583.3,0z"/>
	</g>
</g>
</svg>
