<?xml version="1.0" encoding="utf-8"?>
<!-- Generator: Adobe Illustrator 27.0.0, SVG Export Plug-In . SVG Version: 6.00 Build 0)  -->
<svg version="1.1" id="Layer_1" xmlns="http://www.w3.org/2000/svg" xmlns:xlink="http://www.w3.org/1999/xlink" x="0px" y="0px"
	 viewBox="0 0 1367 218.6" style="enable-background:new 0 0 1367 218.6;" xml:space="preserve">
<style type="text/css">
	.st0{fill:#6E30F5;}
	.st1{opacity:0.2;}
	.st2{clip-path:url(#SVGID_00000063611465626885924490000015516122048766701234_);}
	.st3{fill:none;stroke:#FFFFFF;stroke-width:1.3144;stroke-miterlimit:10;}
</style>
<rect x="0" y="0.5" class="st0" width="1367" height="217.5"/>
<g class="st1">
	<defs>
		<rect id="SVGID_1_" x="0" y="0.5" class="st1" width="1366" height="218.1"/>
	</defs>
	<clipPath id="SVGID_00000050655357947754067100000001975993780354447031_">
		<use xlink:href="#SVGID_1_"  style="overflow:visible;"/>
	</clipPath>
	<g style="clip-path:url(#SVGID_00000050655357947754067100000001975993780354447031_);">
		<path class="st3" d="M-189.7,297.7c0-61.9,0-123.7,0-185.6c5.3-10.4,14.9-14.9,26-14.9c26.4,0.1,49.9,7.2,65.9,29.3
			c0.4,0.5,0.8,0.9,1.1,1.5c10.2,16.7,25.9,20.6,44.7,18c14.5-2,28.9-4.1,43.4-6c16.5-2.2,32.1,0.5,47,7.1
			c16.1,7.1,32.6,8.2,50.1,7.2c30.2-1.7,60.6-2.2,90,6.6c18.7,5.6,34.7,14.8,42.9,33.2c2.9,6.6,4.5,13.4,5.1,20.4
			c0.7,8.2,2.1,16.4,1.6,24.6c-0.1,1,0,2,0.1,3c0.9,15.8,5.2,21,21.3,24.5c14,3.1,28.3,4.9,42.8,5.1c28.5,0.4,56.5,4.4,84.1,11.2
			c11,2.7,20.7,8.2,28.8,16.2c10.2,10,20.2,20.3,33.7,26.6c31.6,14.8,70.7-5.1,75.2-38.7c1.4-10.4-1.5-20.3-6.9-29.5
			c-2.9-4.9-6.4-9.5-10.3-13.6c-17.9-18.7-27.4-41-30.9-65.9c-2.8-19.9-9.7-38.2-22.7-54c-10-12.2-22.4-17.4-38.6-13
			c-9.2,2.5-18.1,5.8-28,5.7c-9.8-0.1-17.4-3.7-23.5-10.6c-3.9-4.5-7.1-9.4-9.4-14.9C339.8,82,336,72.9,331.6,64
			c-6.1-12.7-15.1-23.2-26.2-31.9c-15.5-12.1-25.7-27.7-33.7-45c-15.5-33.8-14.1-67.9-2.3-102.3c3.5-10.2,7.8-19.9,14.1-28.8
			c6.2-8.8,14.7-14,25.3-16.4c9.2-2.1,18.6-2.6,27.9-3.5c19.3-1.9,38.2-6.3,57.5-8.7c27.9-3.4,63.9,17.1,72.1,37.8
			c4,10.4,4.9,21.2,5.8,31.9c2.5,30.2,14.1,57.3,30.9,82.4C517.1,0.8,538.5,8.2,563.4,9c15.5,0.5,30.8-1,46.3-1.2
			c3.1,0,6.3,0,9.4,0.6c10.6,2,15.5,7.5,16,17.8c0.5,9.7-0.9,19.3-1.6,28.8c-1.4,18.3,0.5,36.2,6,53.5c5.1,16,14.4,29.5,30.9,36.8
			c12.8,5.6,25,4.8,36.5-3.7c8.4-6.2,14.7-14.3,21.7-21.6c8.9-9.3,17.4-19,26.9-27.7c11.6-10.6,20.4-8.3,24.9,6.6
			c3.5,11.6,5,23.6,8.8,35.1c2.9,8.7,6.8,16.9,13,23.8c9.9,11.1,22.2,15.8,37.5,12c8.6-2.1,16.2-6.3,23.6-10.8
			c10.8-6.6,20.7-14.2,31.5-20.8c15.7-9.6,32.4-12.1,50.4-7.5c12.1,3,23.8,7.6,36.1,9.9c10.2,1.9,20.4,3.8,31,2.7
			c16.4-1.6,29.3-9,39.7-20.7c7.9-8.9,16.5-17,24.6-25.6c11.5-12.3,15-25.9,9.9-41.7c-4.5-13.8-8.6-27.7-10-42.2
			c-2.2-23.4-7.5-46.4-11.1-69.6c-2.7-17.7-0.6-35.3,3.6-52.6c1.8-7.5,7.7-12.4,14.9-15.2c10.5-4.1,21.5-6.2,32.9-6.4
			c13.1-0.2,26.2,1.1,39.4,0.2c27-1.9,45.8-28.3,38.3-55.4c-1.4-4.9-3.3-9.5-5.7-14c-1.1-2-3-4.2-0.4-6.4c5.7-0.2,11.4,0,17.1-0.1
			c0.7,0,1.4,0,2,0.1c4.7,4,4.3,9.8,5.2,15c4,22.7,1.1,44.4-11.8,64.2c-6.6,10.1-14.2,19.2-26.5,23.8c-8.8,3.3-18,3.1-27.1,4
			c-4.1,0.4-8.3,0.1-12.5,0.1c-15.4,0.1-24.8,6.3-29.2,20.5c-7.6,24.7-13.2,49.8-12.3,75.8c0.6,16.1,3.8,31.6,11.9,45.8
			c15.4,27.1,10.2,51.7-8.9,74.9c-4,4.9-8.3,9.6-11.7,14.9c-5.9,9.4-5.1,16.6,2.8,24.3c6.7,6.6,13.9,12.8,21.4,18.4
			c10.9,8.2,20,7.7,29.3-1.8c12.1-12.5,26.1-22.3,41.7-30.3c9.4-4.8,17.6-11.4,24.2-19.7c8.6-10.9,16.1-22.5,22-35
			c3.2-6.8,4.9-14,5-21.6c0.2-10-3.2-18.3-10.8-25.4c-5.7-5.3-12-9.9-18.3-14.6c-21.9-16.4-38.9-36.9-52.5-59.9
			c-8-13.4-5.6-22.2,7.1-32c5.7-4.4,11.5-8.7,17-13.3c11.2-9.4,24.4-14.4,38.8-17.1c12.8-2.4,24.9-6.7,36.4-12.5
			c10.3-5.1,20.8-9.8,32.3-11c29.8-3,51.1-19.2,69.5-40.1c7.3-8.3,14.2-16.8,20.7-25.7c4.8-6.6,6.3-14.3,9.9-21.3
			c0.5-0.4,1.1-0.7,1.8-0.7c3,0.2,6.1-0.7,9,0.6c0,8.4,0,16.9,0,25.3c-1.8,3.3-4.8,5.5-7.5,8c-15.6,14.3-29.8,29.8-44.9,44.4
			c-14.6,14.1-31.1,25.5-51.6,30.5c-4.9,1.2-9.6,2.9-14,5.2c-18.7,10-38.5,17.3-58.3,24.8c-7,2.6-13.3,6.7-18.8,11.8
			c-13.2,12.4-15,24.8-5.5,40.1c5.7,9.2,12.8,17.3,21.6,24c6.9,5.2,13.7,10.5,20,16.4c14.2,13.3,18.6,29.9,16.2,48
			c-4.9,36.9-22.7,67.2-53.3,90.2c-9.2,6.9-16,15.5-19.5,25.9c-6.3,18.8-20.9,24.9-39.5,25.4c-10.4,0.3-20.9,0.1-31.3,0
			c-11.8-0.1-22.9,3-30.5,11.6c-13,14.7-30,18.2-48.3,18.4c-36.2,0.3-62.5,16.5-80.3,46c-10.9,18.1-19.2,37.4-25.6,57.5
			c-5.2,16.5-5.9,33.6-6.4,50.6c-0.5,18.5-4.1,36.2-10.6,53.5c-0.8,2.1-1.8,4.1-4,5.2c-7.1,0-14.2,0-21.3,0
			c-1.3-3.1,0.6-5.5,2.3-7.7c13.8-18.9,17.6-40.5,18.3-62.9c1.2-37.7,9.9-73.5,28.7-106.8c14.7-26,37.6-41.9,66.9-49.8
			c8.2-2.2,16.7-3.7,25-5.5c19-4.1,28.1-14.9,28.4-33.6c0-2,0-4,0-6c-0.1-10.9-4.8-15.8-16.4-16c-16.3-0.3-32.6-0.1-48.8-0.1
			c-15,0-30-1-44.9-2.2c-14.5-1.1-28.2,1.5-41.6,6.6c-11.3,4.3-22.4,8.9-33.2,14.1c-8.8,4.2-18.1,7.2-27.6,9.8
			c-15.1,4-28.9,0.9-42-6.5c-9.9-5.5-18.2-12.7-24.7-21.8c-3.6-5-7.8-9.5-12.4-13.5c-4.7-4-7.9-4-12.6,0.1c-3.4,3-6.2,6.5-8,10.7
			c-1.3,3-2.4,6-3.9,8.9c-4.1,7.8-10.1,11.2-19,8.9c-17.1-4.5-34.3-9.1-49.7-17.8c-21.5-12.2-32.9-31.3-38.5-54
			c-4.4-18.1-4.8-36.6-7.4-54.9c-0.6-4.4-1.2-8.8-2.5-13c-2.6-8.7-8.4-14.1-17.6-16.1c-11.2-2.5-22.7-2.8-34.2-3.5
			c-12.1-0.7-24.1-1.8-35.7-5.6c-21.7-7.2-35.3-22.8-46.7-40.8c-14-22.2-19.5-46.8-22.4-72.1c-0.6-5-1.2-10-2.1-14.9
			c-4.9-26.3-24.3-44.2-51.9-48.4c-8.6-1.3-17.1-0.8-25.5,0.5c-18.4,2.7-36.5,6.5-54.5,11.1c-16.6,4.2-28.7,13.7-36.7,27.9
			c-24.2,42.9-20.1,83.2,11.8,123.7c5.6,7.1,12.8,12.6,19.6,18.6c14,12.4,24.6,27.2,33.8,43.1c2.3,3.9,4.9,7.4,8,10.7
			c7.8,8.3,17.1,11.7,28.7,9.2c5.3-1.1,10.7-1.5,16-2.7c18.2-3.9,34.1,0.9,47.5,12.7c13.6,12,25.3,25.7,33.8,41.5
			c4.9,9,7.2,18.9,7.6,29c0.2,6.6,0.9,13.2,1.6,19.8c1.5,13.2,8,24,17.9,32.9c14.4,13.1,22.7,29.1,24.5,48.1
			c0.3,3.6,1.1,7.2,1.6,10.7c0.7,4.6,1.6,9.1,2.5,13.7c1.9,10.1,7.8,17.1,17.6,21c4.6,1.9,9.1,4,13.5,6.3
			c16.7,8.8,22.5,20.3,19.3,38.4c-0.9,5.3-2.3,10.6-3.2,16c-1.6,9.5-3.4,19-1.4,28.7c0.7,3.3,0.4,6.8,0.2,10.2
			c-0.6,8.8-4.8,14.3-11.9,15.7c-6.8,1.4-15-2.5-18.9-9.1c-3.1-5.1-4.9-10.6-5.9-16.4c-3.2-19.2-10.3-37.2-17.4-55.2
			c-5-12.7-12.1-15.2-25.1-9.6c-4.6,2-9.2,3.9-13.7,5.9c-23.4,10.8-46.4,8.9-69.5-1.2c-15.9-7-30.4-15.9-43.2-27.3
			c-12.9-11.5-28.6-16.1-45.7-17.3c-0.8-0.1-1.7,0-2.5,0c-14.2,0.3-18.3,6.1-13.4,19.1c3.3,8.9,7,17.6,8.6,27
			c3.7,22.8-6.6,39.6-29.2,46.6c-17.4,5.4-35.3,8-53.6,8.4c-8.1,0.2-16.3,0.3-24.4,0c-10.3-0.4-19.2,2.9-27.3,8.8
			c-12.1,8.7-22.8,18.8-34.5,27.9c-5.9,4.5-11.9,8.9-17.7,13.4c-4.1,3.2-8.5,5.7-13.6,7.1c-5,0-10,0-15,0c-0.4-2.5,1.6-3.6,3.2-4.7
			c26.4-17.3,49.2-38.4,71-60.7c12.7-13.1,27.4-17,45.3-14c16.2,2.7,32.3,2.6,48.1-3.2c21.1-7.9,26-27.8,10.7-43.9
			c-5-5.3-11.1-9.1-18.1-11.6c-5.9-2.1-11.8-4-18-4.9c-14.4-2.2-25.9-8.9-33.7-20.7c-6.9-10.5-16.8-12.9-28.6-11.3
			c-9.9,1.3-19.9,2.3-29.8,3.5c-18.9,2.4-37.4-0.6-56.1-2c-17.4-1.4-33.8-6.4-49.8-13.1c-26.3-11.1-54.3-15.1-82.7-17.7
			c-19-1.7-37.9-0.7-56.9-1.2c-11.2-0.3-22.4-2.2-33.6-2.5c-16-0.5-27.4,4.9-33.5,19.8c-3.3,7.9-8.8,14.5-15.4,20.3
			c-5.5,4.9-11.9,8.1-19.2,9.6C-185.1,299.1-187.6,299.6-189.7,297.7z"/>
		<path class="st3" d="M1187.8-205.8c6.2,11,10.9,22.3,10.1,35.3c-1.1,19.1-17.2,39.6-40.3,41.6c-13.5,1.1-26.9-0.3-40.4-0.1
			c-11.9,0.1-23.3,2.3-34,6.7c-6.7,2.8-11.9,7.8-13.2,15.6c-1.7,9.9-3.2,19.7-3.7,29.7c-0.7,13.7,1.6,27.1,4.6,40.4
			c3.3,15,5.4,30.3,6.8,45.6c1.6,17,6.8,33.3,11.6,49.6c4.4,15.2-0.3,27.9-11.1,39c-9.9,10.2-19.5,20.8-29.7,30.8
			c-14.2,14.1-31.6,18.5-51.7,16.5c-17.2-1.7-33.2-7.1-49.5-11.9c-22.6-6.6-42-0.9-60.3,12.2c-12.8,9.2-25.6,18.5-40.6,24.5
			c-21.9,8.8-41.3-1.2-51.7-18.7c-8.9-14.9-11.1-31.7-15.3-48c-1.1-4.5-2.2-8.9-5.4-12.6c-3.2-3.7-6.6-4.7-10.8-1.8
			c-8,5.3-14.1,12.4-20.7,19.1c-12,12.2-22.2,25.9-35.9,36.6c-11.2,8.7-29.2,8.9-43.8-0.7c-16.9-11.1-24.6-27.6-28.6-46.2
			c-2.1-9.8-2.8-19.8-3.4-29.7c-0.6-9.5,1.3-19.1,1.8-28.6c0.3-5.6,0.8-11.3,0.1-16.8c-0.9-7.9-8-12.3-18.6-12.5
			c-16.9-0.3-33.7,1.7-50.6,1.3c-31-0.7-54-13.1-68.6-40.1c-8.9-16.4-17.3-32.9-21.3-51.1c-2.2-10.1-4.3-20.5-4.5-30.8
			c-0.5-23.7-12.4-39.7-33.4-50.9c-16.7-8.9-34-10.6-52.4-7.4c-21.6,3.7-43.2,7.7-65.2,9c-22.6,1.4-35.1,15.2-42.5,33.8
			c-7.9,20-13.4,40.7-13.4,62.5c0,19.3,5.5,37.1,13.4,54.5C282.9,6.5,293,20.1,307.4,31c18.7,14.2,28.4,34.2,36.3,55.2
			c2.5,6.7,5.8,12.9,10.4,18.4c10.2,12.3,23.6,11.8,37.5,8.1c7-1.9,13.8-4.7,21.1-5.2c15.9-1.1,26.5,7.4,35.1,19.2
			c10.9,14.9,17.5,31.5,19.8,49.4c3.4,27.2,14.9,50.5,34,70.6c15.4,16.3,19.5,39.9,9.4,56.7c-10.1,16.8-25.7,27.7-45.8,30.2
			c-14.9,1.8-27.9-5.2-39.8-13.3c-5.6-3.8-10.8-8.3-15.1-13.4c-13.6-15.7-31.6-22.7-51.9-26c-24.8-4.1-49.6-7.1-74.8-7.4
			c-13.4-0.2-26.8-2.5-39.9-6c-12.1-3.3-17.6-11.2-17.5-25.7c0.1-12-0.7-24-3-35.8c-3.9-20.4-17.6-33.1-37.1-40.5
			c-17.8-6.7-36.5-9.2-55.4-9.8c-11-0.3-22.1,0.1-33.2-0.1c-7.9-0.2-15.7,1.4-23.6,1.4c-12.4,0-23.9-2.8-35-7.7
			c-18-8-36.5-9.5-56-6.4c-15.9,2.5-31.8,5.6-48.1,5.7c-12.7,0-22-5.2-29.2-14.6c-7.8-10.2-15.3-20.8-27.9-26
			c-15.4-6.3-31.1-11.4-48.3-7.9c-8.1,1.6-13.1,7.5-19,12.1c0-14.1,0-28.1,0-42.2c1.4-3.7,2.9-7.4,4.8-10.9
			c4.2-7.6,4.3-15.3-0.6-22.7c-1.8-2.7-2.7-5.8-4.3-8.6c0-10,0-20.1,0-30.1c2.2-1.2,4.5-0.6,6.7-0.2c4.1,0.7,8.2,1.5,12.2,2.5
			c13.9,3.7,25.2-0.3,33.9-10.9c15.9-19.2,37.1-26.6,62.1-27.1c19.9-0.4,39,2.5,58,7.7c10.4,2.9,21,5.3,32,3.6
			c9.4-1.4,16.7-6,22.6-12.9c12.6-14.9,21.4-32,29.7-49.4c4.2-8.8,8.8-17.3,14.3-25.4c9.4-13.5,22.5-22.4,38-28.4
			c11.1-4.2,22.3-8.2,32.4-14.3c12.8-7.8,22.3-18.2,23.1-33.8c0.2-3.8,1.1-7.6,1.4-11.4c0.2-2,0.4-4.2,3.3-4.4c28.4,0,56.7,0,85.1,0
			c0.7,0,1.4,0,2.1,0.2c0.9,5.8-2.9,11.1-10.1,13.7c-5.3,1.9-11,2.1-16.6,2.9c-2.9,0.4-5.8,0.8-8.7,1.1c-14.2,1.7-25.7,8-34.4,18.9
			c-12.2,15.1-28.5,24.5-46.8,30.9c-7.3,2.5-14.5,5-21.8,7.6c-21.3,7.8-36,22-44.8,42.1C76.3-71.6,69-53.8,58.5-37.5
			c-4.4,6.8-9.1,13.4-15.1,19.1c-9.8,9.2-21.1,13-34.7,11c-15-2.2-29-7.3-43.5-11.3c-12.1-3.4-24.4-5-37.1-4.6
			C-97.3-22.4-113.1-8-115,16.4c-1.6,20.4,2.3,39.2,16.8,55.1c8.2,9,13.9,19.6,18.4,30.6c9.3,22.5,21.5,28.1,47.9,25.8
			c13.7-1.2,27.3-2.9,41.1-3.3c15.2-0.4,29.5,2.5,43.1,8.7c15.4,7,31.6,9.5,48.6,9.6c24.1,0.2,48.4-0.3,72.3,4.5
			c16,3.2,30.4,9.7,43.3,19.4c9.1,6.9,15.4,15.7,19.4,26.1c3.5,8.9,5.9,18,8.1,27.2c4,16.5,14.1,27,31.1,32.1
			c17.7,5.3,36,6.6,54.1,9.7c16.9,2.8,33.9,4.5,50.9,6.1c18.5,1.8,33,10.5,45.1,23.5c5.4,5.8,11,11.6,17.7,16.1
			c12.4,8.5,28.1,8.3,38.9-0.5c12.9-10.4,16.3-24.8,9.2-38.9c-2-4-4.2-7.9-7.1-11.3c-17.6-20.4-27.4-44.3-34.7-69.5
			c-2.9-10.1-7.1-19.7-12.8-28.7c-11.1-17.3-27.3-24.1-47.9-21.5c-6.3,0.8-12.4,0.6-18.7-0.4c-16.3-2.5-27.2-11.6-33.9-25.6
			c-3.8-7.8-6.4-16.1-8.6-24.5c-4.7-18-13.3-33.5-28.8-45.4C270.4,20,259.9-10.4,254.2-43c-3.9-22.6,0.3-44.8,4.4-67
			c3-16.2,7.1-32.2,12.8-47.8c4.7-12.9,13-18.8,27-18.8c9.4,0,18.6,2,28,2.5c16.6,1.1,32.9-1.2,49.1-4.2c13.3-2.5,26.6-4.9,40.3-4.3
			c23.7,1,42.2,11.8,57.1,28.6c9.2,10.4,9.1,23.9,9.2,36.7c0.1,16.2,1.7,32.2,8.8,47.1c7.3,15.3,14.4,30.8,24.3,44.8
			c9.5,13.5,22.9,20.4,39.7,22.4c11.8,1.4,23.3,0.3,34.8-1.8c2.3-0.4,4.5-1,6.6-1.7c18.9-6.2,23-17.9,11.8-33.8
			c-5.3-7.5-11.2-14.7-18.3-20.6c-23.9-19.9-26.6-44.6-19-71.9c2.9-10.5,7-20.6,11.1-30.7c1.8-4.5,3.8-8.9,5.3-13.5
			c2.6-8.2,0.5-11.2-8.6-11.3c-15.9-0.2-31.7,0-47.6-0.1c-14.2-0.1-27.1-4.4-38.6-12.3c-3.9-2.7-3.9-3.1-1.9-5.8
			c36.2,0,72.4,0,108.5,0c0.7,0,1.4,0,2.1,0.1c0.4,0.2,0.9,0.3,1.1,0.6c4.7,9.6,12.5,7.8,20.6,5.3c6.1-1.9,11.7-5.3,18.2-6
			c13.8,0,27.5,0,41.2,0c1.2,0.1,2.8,0,2,1.9c-0.6,1.3-1.9,2.2-3.2,2.7c-15.9,6.6-28.5,18.1-42.4,27.6c-8.3,5.7-17.4,10.4-25.4,16.5
			c-15.4,11.6-24.5,26.7-25.9,45.6c-0.9,12.6,4.7,23.1,13.2,32.1c13.7,14.6,27.4,29.2,39.2,45.3c3.7,5.1,7.2,10.3,11.8,14.8
			c4.7,4.6,10.1,7.5,16.8,8.6c13.1,2.3,26.4,3.6,39,8.2c22.9,8.5,42.3,21.5,57,40.6c2.5,3.2,5,6.4,8,9.2c5.5,5.2,8.7,5.7,15.6,2
			c6-3.3,11.4-7.5,16.4-12c16.9-14.9,35.5-27.3,56.6-36.1c19.7-8.2,35.7-20.6,47.5-37.9c13.4-19.7,32.8-31,56-36.8
			c24-6,46.4-15.5,67.1-28.8c7.8-5,16-9.5,24.1-14.1c9.4-5.4,11.8-13.8,12.7-23.4c1.7-18.6-3.6-35.3-13.6-51
			c-2.9-4.5-6.9-8.7-7.5-14.3c0.4-0.6,0.9-0.9,1.6-0.9c6.1,0,12.3,0,18.4,0c0.7,0,1.3,0.1,1.9,0.3c5.4,4.4,7.9,10.7,11.3,16.3
			c4.3,7.1,8.3,14.3,12.6,21.5c4.9,8.2,12.3,13,21.5,15.1c11.4,2.6,23,4.2,34.7,3.1c12.4-1.1,23.3-5,27.7-17.9
			c3.2-9.5-0.5-17.7-5.3-25.6c-1.8-2.9-4.3-5.4-6.4-8.2c-1-1.4-3.3-3.1-0.1-4.7c6.9,0,13.8,0,20.7,0
			C1186.7-206.6,1187.3-206.3,1187.8-205.8z"/>
		<path class="st3" d="M129.6,456.8c23.5-15.2,43.7-34.4,66.1-50.9c7.3-5.4,15.4-8.4,24.9-8.2c24.2,0.7,48.3,0.1,71.8-6
			c9.2-2.4,18.5-4.6,25.6-11.8c9.4-9.5,11.8-20.9,10.3-33.3c-1.2-10-4.9-19.4-9-28.6c-1.7-3.8-2-7.7-1.8-11.8
			c0.2-4.7,3.1-7.6,7.5-8.4c19.2-3.4,36.7,1,52.6,11.5c6.1,4.1,11.2,9.5,17.2,13.8c16.8,12.2,35.1,21.5,55.9,25.5
			c14.5,2.8,28.6,0.7,42-5.1c5.5-2.4,10.9-5.2,16.5-7.2c16.3-6,22.3-1.8,27.1,10.6c7.9,20.5,15.2,41.1,19.2,62.7
			c1.1,6.1,3.6,12.4,10.4,15.6c10.8,5.1,20,0.3,20.7-11.2c0.3-4.9,0.1-9.9-0.7-15c-1.6-9.6,0.9-19.1,2.6-28.5
			c1.1-6.3,2.9-12.4,3.4-18.9c1-14.7-6.2-24.4-19.4-30.6c-6-2.8-12.3-5.1-18-8.3c-11.2-6.1-13.4-17-15.3-28.1
			c-2.3-13.3-2.8-27-8.4-39.8c-4.2-9.5-10.9-17-18.3-24c-8.9-8.6-15.5-18.3-17.7-30.4c-1-5.7-1.9-11.5-1.8-17.2
			c0.4-20.5-7-38-20.5-53.4c-7.3-8.4-14.2-17.1-23.3-24.1c-14-10.9-29.3-13.3-46.3-9.5c-6.1,1.3-12.2,2.6-18.4,3
			c-16.3,1.1-25.8-8.8-32.7-21c-10.8-18.8-24-35.7-41-49.6c-19-15.5-30-35.6-36.9-58c-8.9-28.9-1.8-55.9,12.7-81.4
			c7.5-13.1,18.7-22.6,33.9-26.8c10.8-3,21.8-5.2,32.7-7.6c12.5-2.8,25.2-5.3,38-5.8c15.5-0.7,29.9,4,42.8,12.5
			c16,10.5,23.1,25.6,25,43.6c2.6,23.7,5.4,47.5,16.6,69.1c13,25.3,29.4,47.8,60.7,54.4c8.9,1.9,17.9,3,27.1,3.3
			c11.2,0.4,22.3,1.3,33.4,3.2c12.7,2.2,19.4,11.6,21.3,23.4c2.8,16.8,3.4,33.7,6.1,50.5c3.5,21.7,10.8,41.5,28.3,56.7
			c7.5,6.6,16.4,11.2,25.6,14.7c11.4,4.3,23.2,7.6,35,11c7.9,2.2,13.3-0.3,16.7-7.5c3.7-7.6,6.1-15.7,13.3-21.4
			c4.9-3.9,9-4.1,13.7-0.1c7.3,6.3,12.6,14.4,19.1,21.4c12.8,13.8,28.5,23.2,48.3,22.6c12.8-0.4,24.7-5.1,36.2-10.5
			c14.1-6.5,28.2-12.9,43.1-17.6c12.8-4.1,25.8-5,39.3-3.3c11.3,1.4,22.8,1.3,34.3,1.5c17.9,0.2,35.9,0.3,53.8,0
			c11.5-0.2,20.3,6.5,19.2,18.2c-0.8,8.6-0.1,17.3-4.7,25.1c-6.3,10.7-16.7,15-28.7,17.1c-20.2,3.5-39.7,8.7-56.9,20.3
			c-12.3,8.4-22,18.9-29.5,31.4c-14,23.3-21.9,48.8-26.7,75.1c-1.8,10-2.4,20.2-2.7,30.4c-0.7,24.2-4.4,47.4-19.8,67.5
			c-1.2,1.6-1.9,3.6-2.9,5.3c-19.6,0-39.2,0-58.9,0c-13.1-2.4-25.7-6.6-38.3-10.9c-22.9-7.8-45.3-8.2-67.3,2.7
			c-8.2,4-16.8,7-25.9,8.2c-37.2,0-74.3,0-111.5,0c-9.4-2-18.5-4.6-27.4-8.2c-16.9-6.9-23.5-16.3-23.5-33.9
			c0-10.7-0.2-21.3-4.1-31.5c-4.8-12.7-11.3-17-25.2-17.3c-8-0.2-15.8,1.1-23.7,1.4c-19.1,0.8-36.5-5.6-54.3-10.8
			c-11-3.2-21.9-6.8-32.9-9.6c-3.4-0.9-6.9-1.4-10.5-1.4c-9.5-0.1-14.1,2.9-17.4,11.6c-2,5.3-3.7,10.7-5.2,16.1
			c-6.4,23.4-23,33.9-47.2,36.2c-26.8,2.5-53.4,5.9-80.5,5c-12-0.4-22.9,3.9-32.8,10.4c-11.8,7.7-22.7,16.4-34,24.6
			c-4.2,3-8.4,6-13.4,7.5C139.6,456.8,134.6,456.8,129.6,456.8z"/>
		<path class="st3" d="M1391.9-163.8c0,4.8,0,9.6,0,14.5c-1.5,2.8-4.1,4.5-6.7,6.2c-15.4,10-28.2,22.6-38.4,37.5
			c-11.5,16.8-13.8,34.6-6.1,53.4c1.3,3.2,2.6,6.3,3.5,9.7c2,8.2,0.9,15.4-6.6,21c-13.5,10.1-25.9,21.7-40.5,30.3
			c-16.9,9.9-23.6,24.5-24.7,42.7c-1.4,22-3.4,44-4,66.1c-0.4,14.6-2.4,29.2-5.5,43.6c-2,9.2-3.4,18.6-4.7,27.9
			c-3.2,24.5,11.1,41,37,41.6c21.9,0.5,42.6-4.6,62.3-13.7c8.8-4.1,17.4-8.8,26.5-12.2c2.5-0.9,5-2.3,7.8-1c0,4.8,0,9.6,0,14.5
			c-1,1.9-2.7,3-4.7,3.7c-18.2,6.6-35.4,15.3-53.7,21.6c-22.9,7.9-46.1,12.7-70.6,9.4c-6-0.8-12.1-0.3-18.1-0.2
			c-8.1,0.1-12.7,3.6-14.7,11.3c-2.8,11.4-1.5,22.8,0.6,34.1c1.2,6.5,2.6,13,4,19.5c4.1,18.8,3.9,37.5-2.4,55.9
			c-7.6,22.2-12.7,44.9-18.7,67.5c-1.5,5.5-2.1,11.6-7.1,15.8c-8.3,0-16.7,0-25,0c-1.1-2.4,0.2-4.4,1.5-6.1
			c17.7-22.1,23.2-49.1,32.8-74.5c9.2-24.6,7.4-48.9-0.2-73.3c-3.3-10.8-5.7-21.8-9.9-32.3c-5.3-13.2-15-20.8-29.3-23.5
			c-14.4-2.7-28.8-4.2-43.5-3.1c-13.8,1-24.9,7-33.6,16.7c-13.2,14.7-29,19.2-48.3,13.8c-9.8-2.8-19.8-5-30.1-4.9
			c-23.1,0.1-39.2,10.5-47.6,31.4c-3,7.5-5.4,15.2-7.2,23.1c-2.5,11.1-6.4,21.7-12.7,31.3c-11.2,17-14.8,36-16.5,55.6
			c-1.2,13.8-3.6,27.5-6.1,41.1c-0.3,1.8-0.8,3.5-2.2,4.9c-4.6,0-9.2,0-13.8,0c-2-2.7-0.9-5.5-0.1-8.1c5.8-20.9,6.9-42.4,8.2-63.8
			c1.1-17.9,7.1-34.6,14.8-50.7c4.6-9.7,8.5-19.6,12.9-29.4c8-17.6,18.4-33.4,36.2-43.4c9-5.1,18.8-7.4,29.2-7.8
			c13.8-0.5,27.5,1.2,41.2,1.3c7.9,0.1,14.7-2.3,20.9-6.7c1-0.7,2.1-1.4,3-2.2c16.9-15.7,37.5-20.6,60.3-20.2
			c13.3,0.2,26.7,0.9,40-1.1c2.7-0.4,5.4-0.7,8-1.3c10.2-2.2,14.8-6.7,16.1-16.6c1.4-10.8,3.7-21.4,9.5-30.9c3-4.9,6.1-9.6,9.5-14.1
			c19.6-26.2,28.7-55.7,31.6-87.6c1.3-15.2,0.4-30.1-2.7-44.8c-3.4-16.2-9.6-31.2-22-43.1c-2.8-2.7-4.9-6-6.6-9.5
			c-3.6-7.2-1.3-13.4,6.3-16.9c5.3-2.5,11.1-3.7,16.9-4.4c8.9-1.1,16.3-4.8,22.4-10.9c9.9-9.9,20.8-18.6,32.1-26.8
			c10.2-7.5,18.3-16.9,26.6-26.2c16.3-18.3,32.5-36.6,52.9-51C1385-161.6,1387.6-164.6,1391.9-163.8z"/>
		<path class="st3" d="M-189.7,438.7c0-23.3,0-46.6,0-69.9c3.8-1.6,7.9-0.8,11.7-0.6c14.2,0.8,24.8-5.3,33.5-15.5
			c11.4-13.4,21.8-27.4,32.8-41.1c11.5-14.2,26.1-21,44.9-20.7c29.5,0.5,57.4,7,83.9,19.4c16.9,7.9,35.1,10.2,53.5,10.7
			c19.2,0.5,38.4-0.3,57.4,2.6c5,0.8,9.8,2,14.4,4.1c14.4,6.4,20.6,18,18.4,33.3c-2.2,15.1-9.8,27.7-20.1,38.8
			c-10.1,10.9-20.6,21.6-31.5,31.8c-20,18.7-49.3,20.9-71.4,4.8C19.9,423.2,5.8,407-3,386.9c-0.9-2-1.8-4-3-6
			c-3.3-5.7-6.4-7.5-12.8-5.9c-22,5.7-44.6,8.3-67.1,11.6c-21.6,3.2-39.2,12.5-54.1,27.7c-11.6,11.9-25.6,20.6-42.5,24.2
			C-184.9,439.1-187.3,440-189.7,438.7z"/>
		<path class="st3" d="M1391.9-163.8c-22.1,13.5-39.5,31.7-56,50.8c-14,16.2-29.2,31.1-47,43.5c-7.1,5-13.6,11-19.6,17.4
			c-6.8,7.3-15.7,8.4-24.7,10c-4.7,0.9-9.4,1.8-13.7,3.9c-5.7,2.8-7.3,7.8-4.9,13.3c3,6.9,9.1,11.4,13.4,17.2
			c11.7,15.8,16.1,33.8,18.5,52.7c2.5,19.6-0.3,38.7-4.1,57.6c-4.3,21.2-13.2,40.9-26.4,58.5c-10.5,14-18.5,28.6-20,46.3
			c-1.1,13.9-10,17.3-25,19.2c-13.5,1.7-27,1.3-40.5,1.1c-22.4-0.4-42.8,3.9-59.4,19.7c-11.6,11-26.4,10-41.1,8.8
			c-19.5-1.5-39.1-2.8-56.7,8.4c-11.2,7.1-20,16.7-25.7,28c-11.7,23.4-23.3,46.9-30.9,72c-3.4,11.2-4.1,22.9-4.4,34.3
			c-0.5,19.7-4.6,38.8-9,57.9c-5,0-10,0-15,0c7.9-19.8,12.6-40,12.7-61.4c0.1-27.7,5.9-54.3,18.5-79.5c7-14.1,13.4-28.5,23.8-40.7
			c15.1-17.8,33.7-29.2,58-31.8c12.5-1.3,25.3-0.9,37.7-4c6.7-1.7,12.3-4.8,17-9.5c5.1-5,10.4-9.7,16.9-13.1
			c6.3-3.3,12.9-4.4,19.8-4.5c11.5-0.2,23,0.4,34.4-0.2c10.2-0.5,20.4-2.2,27.9-10c2.3-2.4,4.2-4.9,5.3-8
			c5.2-15.1,14.4-27.3,27.6-36.9c19.3-14.1,31.4-33.2,40.2-54.7c4.9-12.1,8.1-24.4,8.3-37.3c0.4-19.6-8.4-35.1-24.7-46.8
			c-12.4-8.9-24-18.4-32.3-31.3c-12.8-20-9.2-33.8,10.3-48.8c8.8-6.7,19.2-10.4,29.7-13.6c15.9-5,30.1-13.7,45.4-19.9
			c8.4-3.5,17.3-5.9,25.8-9c13.8-5,24.5-14.4,34.7-24c16.2-15.3,31.8-31.2,47.6-46.9c2.2-2.2,4.4-4.2,7.5-5.3
			C1391.9-175,1391.9-169.4,1391.9-163.8z"/>
		<path class="st3" d="M-189.7,438.7c12-3.2,24.1-6.3,34.2-13.9c4.9-3.7,10.1-7.1,14.2-11.6c15.1-16.6,34.1-25.5,56.6-28.7
			c22.3-3.2,44.8-5.7,66.6-11.7c6.4-1.7,10.9,0.5,13.5,6.8c7.9,18.9,19.9,35,35.2,49c17.6,16.1,40.1,21.1,60.6,12.6
			c5.9-2.4,11.4-5.7,16-10.3c14.8-14.6,30.8-28.3,42.3-45.7c6.9-10.4,11-21.7,9.3-34.5c-1.6-12.5-9.4-19.1-20.9-22.7
			c-7.3-2.3-14.9-3.1-22.6-3.8c-16.8-1.5-33.7-0.3-50.5-1.2c-19.4-1.1-38.1-5.1-55.7-13.8c-17.6-8.7-36.7-12.4-56.1-15
			c-11-1.5-21.9-1.7-32.9-0.1c-12.4,1.8-21.5,8.5-28.9,17.4c-12,14.5-23.5,29.5-35.2,44.2c-10,12.5-29.9,18.3-45.6,13.3
			c0-8,0-16.1,0-24.1c1-0.8,2-1.6,3.3-1.6c14.6,0.1,24.3-8.9,34-17.3c10.5-9.2,20.7-18.7,29.4-29.6c10.4-12.9,24.3-19.1,40.8-20.7
			c26.8-2.6,53.2-0.9,79.5,4.7c17.1,3.6,32.8,10.6,48.6,17.3c13.7,5.8,28.1,8.2,43.1,9.4c20.2,1.6,40.5-0.5,60.5,3.5
			c6.6,1.3,12.9,3.1,18.8,6.4c8.7,4.9,12.8,12.4,13.4,21.8c0.8,15.2-4.6,28.9-11.7,42c-8.9,16.4-21.3,30.2-35.9,42.1
			c-6.9,5.6-13,11.9-19.8,17.5c-23.3,19.2-60.3,20.2-83.6,5.5c-16.4-10.3-33-20.5-48.7-31.6c-30.3-21.5-75.3-14.5-99.7,3.5
			c-9.6,7.1-18.7,14.7-28.5,21.6c-7.3,5.1-14.8,9.7-22.8,13.7c-4.6,2.3-9.5,2.6-14.2,4c-5.3,1.1-7.1-0.9-6.4-6
			C-189.3,446.8-189.7,442.7-189.7,438.7z"/>
		<path class="st3" d="M-189.7,297.7c17.6-1.1,28.7-11.3,37.3-24.9c1.8-2.9,3.4-6,4.8-9.1c5.3-11.8,15.2-16.9,27.8-16.5
			c28.3,0.8,56.5,1.9,84.8,2.7c31.8,1,63.3,5.9,92.9,17.9c13.1,5.3,26,10.7,40.2,12.4c9,1.1,18.1,2.6,27.2,2.9
			c7.7,0.3,15.2,1.8,23,1.5c14.9-0.7,29.7-2.3,44.5-4.4c12.3-1.7,23.5-0.9,31,11.1c8,12.7,20.4,18.9,35.8,21.4
			c15.6,2.6,30.1,8.2,39.3,22.1c9.7,14.8,4.9,31.9-11.5,39.5c-18.1,8.4-37,8-56.2,4.9c-14.4-2.3-27.1,0.1-37.7,10.7
			c-20.2,20.2-40.9,40-64.2,57c-4.8,3.5-9.8,6.7-14.7,10c-5.4,0-10.9,0-16.3,0c-0.3-2.9,2.3-3.6,4.1-4.6
			c30.1-17.5,55-40.3,75.2-67.8c8-10.8,15.6-21.8,24.4-32c7.7-9,7.7-17.9,2.8-28.5c-8.4-18.2-24.1-23.4-42.5-24.2
			c-22.9-1-45.8-1.6-68.7-2.6c-16.7-0.7-32.2-6.1-47.3-12.6c-29.7-12.7-60.7-19.8-93.4-19.9c-18.4-0.1-36.7,0.7-54.9,2.2
			c-11.1,0.9-20,6.3-26.8,14.9c-6.3,8-12.8,15.8-20.6,22.6c-9.2,8.2-19.7,14.2-31.5,18c-3,1-6,1.9-8.9-0.5
			C-189.7,313.8-189.7,305.8-189.7,297.7z"/>
		<path class="st3" d="M957.4,456.8c-5,0-10,0-15,0c-2.3-2.3-2.2-5.2-1.8-8c1.8-15,3.7-29.9,7.5-44.6c3.6-14.2,11.7-24.7,25.9-30.4
			c0.4-0.2,0.7-0.4,1.1-0.5c13-6.4,15.9-11.6,13.8-25.6c-1-6.6-2.7-13-3.8-19.5c-1.3-7.6-1.1-15.2,0.7-22.7
			c4.3-17.8,21-28.8,39.9-26c11.4,1.7,22,6.2,32.7,10.1c19.4,7,31,4.2,44.3-11.1c1.5-1.7,3-3.4,4.3-5.2
			c12.4-16.7,29.6-21.7,50.1-19.1c22.6,2.8,37.8,14.1,46.1,34.7c6.2,15.5,11.4,31.1,12.5,47.7c0.5,8-0.5,16.1-2.7,23.8
			c-5.6,19.1-11.7,38.1-20.8,56.1c-4.8,9.5-11.3,17.8-20.2,24.1c-7.4,5.2-13.6,11.9-21.7,16.2c-14.2,0-28.4,0-42.6,0
			c-3.6-7-1.9-12.7,4.9-16.2c3.9-2,8.2-3,12.5-3.9c9.4-2.1,18.7-4.1,27.6-7.9c12.9-5.5,22.9-14,28.7-26.4
			c9.2-19.9,17.5-40.2,19-62.1c1.3-20.3-5.2-39-18.8-54.8c-13.1-15.3-40.3-18.3-55.7-0.8c-6.1,6.9-12.6,13.4-19.2,19.8
			c-7.2,7.2-15.6,12.8-24.6,17.4c-11.1,5.7-22.1,6.7-32.4-2.4c-4.9-4.3-10.6-7.9-16.8-10.3c-4-1.6-8.2-2.6-11.7,0.7
			c-3.5,3.2-2.9,7.3-1.4,11.2c3.9,10.6,11.9,17.6,23.1,18.9c18.7,2.2,26.3,13.6,29.7,29.4c1,4.7,2.2,9.4,1.9,14.3
			c-0.4,8.6-5.8,13.4-14.3,11.3c-16.4-4-32.3-1.9-48.1,2.4c-9.2,2.5-18.8,3.6-28,6.4c-10.4,3.2-17.1,9.5-20.3,19.6
			c-2.6,8.1-4.4,16.3-4.4,24.8C959.3,451.2,959.8,454.3,957.4,456.8z"/>
		<path class="st3" d="M957.4,456.8c-0.3-9.4,0.3-18.7,2.4-28c3.5-15.2,12.3-25,28.4-28.3c15.8-3.3,31.5-6.8,47.4-9.7
			c8.5-1.6,16.8,1.6,25.2,2.7c6.5,0.9,11.8-1.8,11.6-7.9c-0.5-13.6-2.1-27-13.1-37.6c-4.7-4.6-10.5-4.4-15.9-5.6
			c-13.3-2.8-22.3-9.9-26.4-22.7c-1.5-4.6-0.6-8.6,2.5-11.7c2.9-2.9,7-3.1,11-1.8c8.3,2.6,15.5,7.2,21.6,12.7
			c9.1,8.2,18.6,6.4,27.7,2.1c15.9-7.6,28.8-19,39.4-32.5c22.4-28.6,58.3-19.2,71.4,6.1c6.6,12.7,11.2,25.8,12,39.9
			c0.5,9.8-1.8,19.4-4.8,28.8c-4,13-8.3,26-14,38.4c-8.4,18.4-24.1,27.9-43.3,33.2c-6,1.6-12.1,2.6-18.2,4c-13,3-14.8,5.1-14.8,17.8
			c-13.8,0-27.6,0-41.3,0c-3.1-2.8-3.5-6.7-4.9-10.2c-3.8-9.2-7.9-18.1-16.6-24.3c-8.9-6.3-19.2-6.4-29.4-5.6
			c-7.9,0.6-15.5,2.8-22.6,6.5c-9.9,5.2-14.5,13.4-14.7,24.1c-0.1,3.2,0.9,6.4-0.7,9.5C970.7,456.8,964.1,456.8,957.4,456.8z"/>
		<path class="st3" d="M144.6,456.8c18.7-13.2,35.7-28.6,56.4-39.1c7.5-3.8,15.7-5.3,24-5.4c10.4-0.2,20.9,0,31.3-0.1
			c13.7-0.1,27.1-3,40.7-4.2c6.8-0.6,13.5-1.4,20.3-2.7c16.4-3.2,26.3-12.9,31.5-27.6c2.1-5.9,3.9-11.8,5.8-17.7
			c5.4-17.4,12.8-18.5,28.5-15.5c17.5,3.4,34.3,9.6,51.3,14.8c17.1,5.2,34.2,7.6,52.1,5c6.1-0.9,12.6-0.9,18.7,0
			c9.1,1.3,14.1,8,17.4,15.7c4.1,9.3,5.7,19.2,5.2,29.3c-1.5,25.2,7.5,32.9,30.4,40.7c6.2,2.1,13,2.9,18.4,6.9
			c-18.8,0-37.6,0-56.4,0c-9.1-2.1-16.9-6.8-24.2-12c-9.3-6.6-11.5-13.6-7.9-24.2c1.4-4.2,3.3-8.3,3.8-12.7
			c1-9.4-1.7-13.8-10.8-17.2c-4.5-1.7-9.1-3-13.7-4.1c-16.2-3.7-31.7-10.2-48-13.6c-5.9-1.2-11.8-2.4-17.9-2.3
			c-11.7,0.2-19.7,5.7-25,15.3c-3.8,6.9-5,14.5-5.5,22.1c-0.3,4.9,1.5,9.3,5.3,13.1c4.9,4.8,10.5,8.5,16.2,12.2
			c6.9,4.5,13.7,9.2,18.1,16.3c1.3,2.2,3.2,4.3,2,7.2c-13.4,0-26.7,0-40.1,0c-6.3-1.6-12.5-1.6-18.8,0c-18.4,0-36.7,0-55.1,0
			c-0.9-2.5,1-4.1,2.1-6c4.1-7.3,2.1-11.6-6.3-13.8c-6.9-1.8-14.1-1.8-21-2c-15.4-0.4-30.6-3-45.9-4.3c-13-1.1-24.7,2-35.9,7.7
			c-6.6,3.4-12.6,7.8-18.7,11.9c-4.1,2.8-8.4,5.1-13.2,6.5C154.6,456.8,149.6,456.8,144.6,456.8z"/>
		<path class="st3" d="M-189.7,321.8c14.9-1,26.5-8.7,37.5-17.5c8.5-6.8,15.5-15.1,21.9-23.7c8.4-11.3,20.2-16,33.7-16.5
			c18.9-0.6,37.8-2.2,56.8-1.4c29.8,1.2,58.4,7.6,85.5,19.4c18.6,8.1,37.5,13.5,58.2,13.4c20.3-0.1,40.7,1,61,2.4
			c9,0.6,18,2,26.1,6.9c12,7.4,16.9,18.8,19.9,31.2c1.6,6.8-3.1,12.5-7.3,17.3c-13.6,15.7-23.9,33.7-37.7,49.1
			c-5.8,6.5-12.1,12.8-18.7,18.6c-11.4,9.9-22.4,20.3-35.4,28.2c-4.4,2.7-8.9,5-13.4,7.5c-21.3,0-42.6,0-63.9,0
			c-7.9-1-14.4-5-20.9-8.9c-18.7-11.1-38.8-19.5-58.8-28.1c-20.1-8.7-40.4-5.8-59.5,4.4c-13.8,7.3-25.5,17.4-38,26.4
			c-3.7,2.7-7.5,5-11.9,6.3c-9.6,0-19.2,0-28.8,0c15.8-5.9,30.1-14.2,43.2-24.5c10.1-8,19.9-16.3,31.4-22.5
			c11.9-6.4,24.7-10.4,38.5-10.8c14.2-0.4,28.4-0.6,41.2,6.8c17.5,10,34.5,20.7,51,32.3c24.4,17.1,50.2,22.2,78.3,8.9
			c6.2-2.9,11.9-6.8,16.8-11.3c16.4-15.3,34.7-28.8,46.6-48.1c8.7-14.1,15.4-28.7,16.3-45.3c0.7-14.9-7.4-23.3-20.8-27.5
			c-10.9-3.4-22.3-4.5-33.7-4.7c-21.2-0.3-42.4,0-63.2-4.9c-14.7-3.4-27.7-10.8-41.6-16c-13.6-5.1-27.8-8.2-42.1-10.3
			c-13.7-2-27.7-3.5-41.6-2.5c-9.3,0.7-18.6,0.7-27.8,2.4c-16,3.1-26.1,13.5-36.1,24.9c-12.3,14.1-25.9,27.1-42.1,37.3
			c-6.2,3.9-13.3,4.2-20.5,3.9C-189.7,337.1-189.7,329.5-189.7,321.8z"/>
		<path class="st3" d="M1391.9,203.7c-15.2,5-28.8,13.6-43.7,19.2c-17.6,6.6-35.9,10.9-54.7,9.5c-24.9-1.8-40.3-15.8-37.2-43.4
			c2.4-21.6,8.7-42.6,9.5-64.5c0.5-14.5,0.7-29.2,2.3-43.7c1.6-15.1,1.7-30.2,4.9-45.2c2.4-11.2,9.1-19.2,18.5-25.3
			c16.1-10.4,30.6-22.6,45.7-34.1c7.1-5.4,7.1-12.1,4.9-19.4c-1.4-4.6-3.5-9-5-13.6c-6.1-18.6-2.1-35.5,9-51.3
			c12-17.2,27.1-31.2,45.9-41.4c0,5.2,0,10.4,0,15.7c-4.8,4.5-10.7,7.6-15.8,11.7c-6.6,5.4-12.1,11.6-16.1,18.9
			c-9.5,17.1-4.8,34.9,12.1,46.5c4.1,2.8,8.6,5,13.4,6.3c2.4,0.7,4.8,1.4,6.4,3.4c0,6,0,12,0,18.1c-1.8,1.9-4.1,2.5-6.7,2.8
			c-2.5,0.3-4.9,0.5-7.3,1.2c-7.7,2.1-9.4,5.9-4.9,12.3c3.7,5.3,8.5,9.8,13.9,13.5c2.1,1.4,3.8,3,5,5.1c0,6,0,12,0,18.1
			c-2.8,2.2-5.6,0.7-8.3-0.2c-7.5-2.5-14.4-6.3-21.8-9.1c-11.5-4.4-22.7-4.5-34,0.4c-9.6,4.1-18.7,8.8-27,15
			c-7.9,5.9-13.1,13.4-15.7,22.6c-5.6,20.2-6.2,40.8-1.5,60.9c5.1,21.9,8,43.8,8.9,66.1c0.2,4.5,1.3,8.7,2.9,12.9
			c5.3,13.3,17.3,20,32.1,18.4c12.8-1.4,23.9-6.9,34.7-13.1c7.9-4.5,15.5-9.4,23.1-14.4c2-1.3,3.9-3.3,6.7-1.6
			C1391.9,189.3,1391.9,196.5,1391.9,203.7z"/>
		<path class="st3" d="M-189.7-63.8c0-28.1,0-56.2,0-84.3c1.6-3.8,4.8-6,8.5-7.5c16.3-7,33.6-9.4,51.2-10.1
			c25.6-1.1,51.2,1.8,76.9,1.1c8-0.2,15.8-0.8,23.4-3.5c13.2-4.7,18.8-12.2,19.5-25.8c0.2-4.1-1.1-8.5,1.9-12.2
			c6.2-0.9,12.5-0.2,18.7-0.4c0.7,0,1.4,0.1,2,0.5c10.3,25.1-3.8,50.2-31.1,54.6c-16.3,2.7-32.8,2.9-49.2,2.8
			c-23.8-0.1-47.5,1.5-70.8,6.3c-9,1.9-17.8,4.4-25.6,9.3c-5,3.2-8.9,7.2-10.8,12.8c-3.1,9.4,0.8,16.3,10.7,18.8
			c3.8,0.9,7.8,1.6,11.7,1.9c15.3,1.1,29.7,5.3,41.9,14.3c18.3,13.5,39.4,17.5,61.5,19.5c10,0.9,20,0.7,30,1.4
			c19,1.3,31.7-7.7,42.1-21.4C31.1-97,37.5-109.4,43-122.2c6.9-15.9,15.8-30.5,27.4-43.6c2.4-2.8,4.8-5.6,6.6-8.8
			c4.3-7.4,4.5-14.8-0.6-22.1c-2-2.8-4.8-5.1-4.7-8.9c0.4-0.6,1-0.9,1.8-0.9c11.2,0,22.4,0,33.6,0c7.5,2.6,12.5,8,15.8,14.6
			c3.7,7.6,0.8,16.2-6.5,22.1c-4.3,3.5-9.1,6.5-13.9,9.2c-20.7,11.5-34.4,28.8-44.7,49c-7.8,15.1-16.3,29.8-27,43.3
			C20-54.8,5.8-47.9-12-49c-7.3-0.4-14.5-1-21.8-2c-17.1-2.5-34.5-2.8-51.6-4.7c-9.8-1.1-19.5-2.5-28.8-5.4
			c-20.6-6.4-41.3-6.8-62.3-2.2C-180.8-62.5-185.5-60.4-189.7-63.8z"/>
		<path class="st3" d="M1150.2,456.8c5-6.6,11.8-11.2,18.5-16c12.6-9,20.7-21.1,26.3-35c6.2-15.5,12.3-31.1,16.4-47.2
			c5.4-21.2,0.9-41.6-7-61.4c-3.5-8.7-6.9-17.5-13.3-25c-7.2-8.4-16.7-12.5-27-15.1c-8.8-2.2-18.1-2.4-27.3-1.1
			c-14.3,2.2-23.2,11.6-31.4,21.9c-13.2,16.4-27.2,21.6-47.9,13.3c-12.4-5-24.8-10.5-38.8-10.5c-14.9,0.1-28.2,11.3-31.3,25.3
			c-3,13.6,0.4,26.6,3.2,39.7c3.1,14.6-0.1,22.8-14,28.6c-15.3,6.4-24,17-27.3,32.6c-3.4,16.4-6.7,32.9-7,49.7c-4.6,0-9.2,0-13.8,0
			c0-8.8,2.8-17.3,3.8-26c1.3-11.7,2.6-23.4,4.2-35c2.1-15.2,7.2-29.5,15.7-42.6c6.6-10.1,9.8-21.5,12.7-33
			c3-11.8,6.4-23.6,14.3-33.6c9.3-11.8,21-18.8,36.9-19c11.2-0.1,21.9,1.6,32.6,4.3c5.4,1.3,10.9,2.4,16.5,3
			c13.1,1.4,22.8-5.2,30.9-13.9c7.4-7.9,15.7-14.5,26.4-17.1c8.6-2.1,17.2-3,26.4-2c9.9,1.2,19.8,1.7,29.5,3.7
			c13.5,2.8,23.1,10,28,22.3c7.5,18.9,12.7,38.4,16.3,58.3c3.3,18.3,0.2,35.8-6,53c-5.6,15.5-10.9,31.1-16.6,46.6
			c-3.5,9.6-10.2,17.4-15.6,25.9c-1.1,1.7-2.2,3.4-3.2,5.1C1171.1,456.8,1160.7,456.8,1150.2,456.8z"/>
		<path class="st3" d="M412.6,456.8c-4.1-10-12.2-16.4-21.2-22.1c-4.3-2.8-8.7-5.4-12.7-8.6c-8.3-6.6-11.4-14.4-8.9-24.8
			c1.9-8.1,3.6-15.9,9.2-22.5c10.6-12.2,24.4-11.6,38.3-8.1c20.2,5.1,40.2,11.3,60.3,16.8c17.4,4.8,19.4,12.9,13.8,29.4
			c-2.3,6.7-5.6,13.1-1,20c3.5,5.2,8.8,8.4,14.2,11.3c5.2,2.9,10.4,5.8,15.6,8.7C484.4,456.8,448.5,456.8,412.6,456.8z"/>
		<path class="st3" d="M178.4-205.7c0.4,17.8-2.9,34.3-18.6,46.2c-8.1,6.1-17.5,10-26.9,13.7c-13.7,5.4-27.6,10.3-38.6,20.3
			C83-115.3,75.9-102.4,69.7-89C61-70.5,51.7-52.3,38-36.8C29-26.6,16.9-23,2.7-24.6c-18.2-2.1-35.2-9.7-53.5-10.8
			c-25.9-1.6-51.8-2.6-73.6,14.9c-3.4,2.7-6.4,5.6-9.2,8.9c-6.4,7.5-13.6,14.4-24.4,14.9c-7.9,0.4-15.5-2.2-23.2-3.6
			c-2.8-0.5-5.6-1.4-8.4-2.1c0-9.2,0-18.5,0-27.7c5.4-3.9,11.9-3.2,18-4c9.4-1.2,18.4-3.1,27.2-6.5c14.9-5.7,30.4-7.8,46.4-8.4
			c31-1.1,61.5,2.6,92,7.7C8.7-38.8,21.3-43.6,31.1-55c13.8-15.9,23.3-34.2,33-52.4c10.9-20.5,25.8-36.6,48.1-46.1
			c9.6-4.1,19.6-7.9,27.1-15.7c8.4-8.7,9.8-19.5,3.1-29.7c-1.1-1.7-2.5-3.3-3-5.2c-0.4-1.3-0.2-2.4,1.6-2.5c10.5,0,21,0,31.4,0
			C174.5-206.5,176.6-207.2,178.4-205.7z"/>
		<path class="st3" d="M1391.9,182.1c-9.6,5.9-19.1,11.8-28.8,17.6c-11,6.5-22.5,12.7-35.6,13.5c-22.3,1.4-34.8-8.9-36.7-31.6
			c-2-22.9-4.1-45.5-9.2-68.1c-4.8-20.8-4.1-42.1,2.2-62.9c2.8-9,8.2-16.3,16.2-22.1c9.4-6.8,19.6-12,30.4-16.3
			c14.2-5.6,27.2-1.7,40.1,4.1c7,3.1,13.7,6.8,21.4,7.9c0,6,0,12,0,18.1c-3.5,1.6-7,0.4-10.4-0.3c-8.5-1.9-16.9-4.6-25.4-6.4
			c-14.3-2.9-27.9-0.7-40.5,6.2c-19.7,10.7-24.5,28.4-22.8,48.5c0.9,10.7,4.2,20.8,9.3,30.5c7.9,14.9,14.4,30.1,17.1,46.9
			c2.9,18,14.7,22.1,30.6,11.8c8.3-5.4,14.6-12.5,20-20.5c4.4-6.4,8.5-12.9,13.7-18.7c2.2-2.4,4.1-5.8,8.4-5.2
			C1391.9,150.7,1391.9,166.4,1391.9,182.1z"/>
		<path class="st3" d="M1391.9,135.1c-9,6.3-14.1,15.6-20,24.2c-7.4,10.6-15.7,20.1-28.2,25.5c-12.3,5.2-23.4,1.1-25.2-11.5
			c-3.2-22.5-14.4-41.8-22.7-62.4c-7.7-19-9-38.8,3.2-56.9c9.4-13.9,24.2-19.5,40.7-21.2c14.9-1.6,28.5,4.6,42.6,7.6
			c3.2,0.7,6.8,0,9.6,2c0,8.8,0,17.7,0,26.5c-2.8,2.5-6.2,1.8-9.5,1.3c-9.1-1.2-18-3.2-26.9-5.5c-7.5-1.9-15.1-3-22.9-2.4
			c-12.9,1-21.9,9.8-22.7,22.2c-1.1,17.9,14.4,39.2,32.3,44.3c3.7,1,7,0.2,10.3-1.1c7.9-3.1,14.2-8.3,20.3-13.8
			c4-3.6,8.1-6.9,12.4-10c1.9-1.4,3.7-3.4,6.6-2.5C1391.9,112.6,1391.9,123.8,1391.9,135.1z"/>
		<path class="st3" d="M139.7-205.7c4.1,5.3,8.3,10.1,8.9,17.4c1.3,14.4-7.3,22.3-18.6,28.5c-8.9,4.8-18.3,8.7-27.3,13.4
			c-16,8.3-26.4,21.6-34.9,36.6C58-92.5,49-74.6,36.8-58.5C28.1-47.1,17.3-39.4,2.4-38.7c-10.4,0.5-20.5-2.2-30.7-4
			c-28-5-56.1-4.9-84.4-3.3c-16,0.9-29.9,8-45,11.5c-10.5,2.4-21.2,3.3-31.9,4.5c0-11.2,0-22.5,0-33.7c9,0,17.7-2.2,26.4-3.7
			c16.4-2.9,32.2-0.2,47.9,4c15,4,30.3,6.1,45.9,7.1c19.2,1.3,38.2,4.3,57.4,5.6C5.1-49.5,19-56.3,29.3-69.6
			c9.9-12.7,18.2-26.3,25.4-40.5c6-11.9,13.2-23.2,22-33.3c7.8-9,18.6-14.6,28.5-21.2c2.9-1.9,5.9-3.7,8.9-5.6
			c10.2-6.3,10.9-21.5,2.4-27.4c-3.2-2.2-5.5-5.4-8.2-8.2c9.7-1.7,19.5-0.3,29.2-0.8C138.4-206.6,139.1-206.3,139.7-205.7z"/>
		<path class="st3" d="M1391.9,305c0,37.4,0,74.7,0,112.1c-2.7,0.9-4.4-0.9-6.1-2.2c-12.2-8.9-25.5-16-39.2-22.4
			c-5.8-2.7-11.2-6.2-16.8-9.4c-14.4-8.1-16.5-23.6-11.3-37c4.7-12,14.3-19.6,25.2-25.8c12.3-6.9,25.5-12,39.2-15.6
			C1386,303.9,1389,302.5,1391.9,305z"/>
		<path class="st3" d="M1391.9,231.5c0,4.4,0,8.8,0,13.3c-1.4,1.6-3,2.7-5,3.4c-17,5.6-32.9,13.7-48.8,21.7
			c-13.8,6.9-28.3,11.7-43.6,14.3c-5.9,1-11.9,2.1-17.6,4.3c-9.6,3.7-14.4,10.5-14.5,20.4c-0.1,9.4,0.2,18.8,0.3,28.3
			c0.2,13-2.8,25.5-6.7,37.8c-3,9.6-5,19.5-5.9,29.5c-1.5,18.3,7.1,32,21.7,42.9c3.1,2.3,7.3,4.4,6.1,9.5c-14.6,0-29.2,0-43.8,0
			c-4.9-3.3-4.2-8.4-4.5-13.1c-1.3-22.1,0.9-43.8,8.4-64.7c7.8-21.9,8.8-44,3.9-66.4c-1.3-6-1.1-12-1-18c0.2-15.7,8.7-24.9,25-27.3
			c7-1,14.1-1.6,21.2-2.1c20.2-1.4,38.4-8.7,56.5-16.8c12.9-5.7,25.7-11.5,39-16.3C1385.5,230.9,1388.6,229.1,1391.9,231.5z"/>
		<path class="st3" d="M1278,456.8c-1.9-5.9-7.6-8.4-12-11.9c-18.1-14.4-20.3-33-16-53.3c2.6-12.5,6.4-24.8,9.2-37.3
			c3.3-14.8,0.7-29.9,1.3-44.8c0.1-2.4,0.1-4.7,0.7-7.1c2.8-10.9,11.4-15.2,21.6-17.7c10-2.5,20.4-3.6,30.4-6.6
			c18.2-5.5,34.3-15.4,51.6-23.1c8.9-3.9,17.9-7.6,27.3-10.1c0,4.4,0,8.8,0,13.3c-1.1,2.2-3.3,3-5.5,3.6
			c-12.9,3.7-24.6,9.8-36.4,15.9c-14.7,7.6-29.4,15.2-45.5,19.9c-15.4,4.5-25.1,13.7-26.4,29.9c-1.4,17.9-6.6,35.1-10.7,52.5
			c-1.7,7.2-2.8,14.6-1.4,22.1c1.6,8.6,6.2,15.2,14.2,19.5c5.7,3,11.6,5.4,17.5,8c7.6,3.4,14,8.1,16.9,16c1.4,3.8,2.6,7.7-0.4,11.4
			C1302.2,456.8,1290.1,456.8,1278,456.8z"/>
		<path class="st3" d="M1391.9,231.5c-11.9,2.6-22.6,8-33.6,12.6c-17.7,7.4-34.8,16.3-53.8,20.5c-11.6,2.6-23.4,3.1-35.1,4.1
			c-15.7,1.5-26.9,9.5-26.8,26.9c0.1,13.7,3.8,26.9,4.3,40.5c0.4,10.7-0.5,21.1-3.4,31.2c-4.5,15.6-10.2,31-11.3,47.2
			c-1,14.1-2.5,28.4,2,42.3c-9.2,0-18.4,0-27.6,0c9.7-28.5,14.7-58.1,24.7-86.6c7-19.9,4.6-40.2-0.1-60.3c-3.5-15-6.5-30.1-3.3-45.6
			c1.8-9,7.2-13.6,16.5-13.6c9.6,0,19.1,0.4,28.6,1.1c25.1,1.9,48.4-5.5,71.3-14.3c16-6.2,31.3-13.8,47.7-19.3
			C1391.9,222.6,1391.9,227,1391.9,231.5z"/>
		<path class="st3" d="M1314.3,456.8c1.3-15.8-8.7-22.2-20.6-27.3c-4.6-2-9.1-4-13.6-6c-10.7-4.8-17.7-16.5-16.3-32
			c1.4-15.5,7.3-29.9,9.6-45.1c1.1-6.9,2.6-13.7,3.1-20.7c1.1-14.3,9-23.9,22.5-28.1c22.2-6.9,42.3-17.8,62.8-28.1
			c9.6-4.8,19.7-8.6,30.1-11.4c0,4.8,0,9.6,0,14.5c-1.3,1.4-2.7,2.4-4.6,2.9c-19.2,5.5-36.2,15.5-53.7,24.4
			c-5.9,3-11.9,5.9-17.8,8.9c-11.8,6-20.2,14.6-23.7,27.3c-4.3,15.5-8.9,30.9-9.9,47.1c-0.6,10.6,4.7,17.4,14,22.1
			c9.4,4.7,19.7,7.7,28.7,13.4c11.1,7.1,18.8,16.4,21.6,29.1c0.7,3.1,1.6,6.4-1.1,9.1C1335.2,456.8,1324.7,456.8,1314.3,456.8z"/>
		<path class="st3" d="M1345.6,456.8c0.2-16.9-8.5-28.7-22.8-37.5c-7.4-4.6-15.8-7.1-23.6-10.8c-16.8-8-21-14-18.5-31.9
			c2.2-15.8,6.1-31.3,11.5-46.5c3.5-9.8,10.4-16.9,19.2-21.2c22.3-10.8,43.3-24,66.8-32.5c4.5-1.6,9-2.9,13.7-4c0,5.2,0,10.4,0,15.7
			c-1.2,1.2-2.7,1.8-4.3,2.3c-22,5.8-41.6,16.5-60.7,28c-14,8.4-21.8,20.7-24.8,36c-0.8,4.1-1.5,8.3-1.9,12.5
			c-1.3,12.1,5.3,20.3,15.4,26.2c6.4,3.7,13.1,7.1,19.8,10.4c21.3,10.5,35.1,27.3,44,48.3c0.7,1.7,1.6,3.4,0,5.1
			C1368.1,456.8,1356.9,456.8,1345.6,456.8z"/>
		<path class="st3" d="M1391.9,101.3c-9.2,5.9-16.9,13.5-25.3,20.3c-4.4,3.5-9.3,6-14.3,8.4c-9,4.3-16.4-0.8-22.4-5.3
			c-13.1-9.8-22.5-22.3-22-39.7c0.4-13.8,11.4-24.1,25.8-24.8c14-0.7,26.9,4.5,40.3,6.6c5.9,0.9,11.8,2.3,17.9,1.9
			C1391.9,79.6,1391.9,90.5,1391.9,101.3z"/>
		<path class="st3" d="M1379.4,456.8c-8.8-23.2-23.5-41.4-46.9-52.9c-9.2-4.5-18.9-8.3-26.4-15.7c-5.8-5.7-8.7-12.4-8-20
			c1.1-12.1,3.2-24.1,10.1-34.8c4.7-7.3,11.2-12.8,18.7-17.2c19-11.2,38.3-21.9,60-27.5c1.6-0.4,3.3-0.4,4.9-0.6
			c0,5.6,0,11.2,0,16.9c-9.5,0.6-18.1,4.1-26.7,7.3c-14.1,5.4-27.7,11.8-38.1,23c-9.1,9.9-13.1,27-5.3,38.3
			c5.4,7.8,14.3,11.5,22.5,15.5c16.6,8.2,33,16.6,47.6,27.9c0,12-0.1,24.1,0.1,36.1c0.1,3-0.7,4-3.8,3.7
			C1385.3,456.6,1382.3,456.8,1379.4,456.8z"/>
		<path class="st3" d="M-189.7-169.8c0-5.2,0-10.4,0-15.7c1.1-2,2.8-3.4,5.1-4.2c15.9-5.4,31.4-11.7,47.8-15.5
			c3.4-0.8,7-0.6,10.5-1.4c4.1,0,8.2,0,12.3,0c8.5,0.5,16.7,2.4,24.9,4.5c10.6,2.8,20.5,1.1,29.7-4.4c0.7-0.1,1.4-0.2,2.1-0.2
			c9.7,0,19.3,0,29,0c0.8,0,1.4,0.3,1.9,0.9c2,13.5-5.2,25.1-18.5,29c-16,4.7-32.2,3.1-48.4,0.9c-9.7-1.3-19.2-3.8-29.1-4.1
			c-20.4-0.6-39.7,4.3-59,9.3C-184.1-169.8-186.8-167.9-189.7-169.8z"/>
		<path class="st3" d="M-189.7-169.8c15.7-6.2,32.3-9.1,48.9-11.5c13.7-2,27.7-0.2,41.5,2.4c18.4,3.5,36.9,5.6,55.4-0.1
			c9.8-3,14-10.1,15.7-19.1c0.5-2.5,0.8-5.1,1.2-7.7c6.3-1.2,12.5-1.3,18.8,0c-0.1,5.8,0.3,11.7-0.5,17.4
			c-2.5,16.8-15.5,22.1-29.1,24.5c-16.1,2.8-32.5,2-48.6,1c-15.6-0.9-31.3-1.3-46.8-0.6c-16.7,0.8-33.5,3-48.8,10.5
			c-2.7,1.4-5.2,3.2-7.8,4.9C-189.7-155.3-189.7-162.6-189.7-169.8z"/>
		<path class="st3" d="M159.7,456.8c14.1-9,27-19.9,43.4-25.5c11.6-4,23.2-3,34.9-1.7c10.5,1.1,20.9,2.8,31.5,3.2
			c8.5,0.4,16.9,0.9,25.3,2.2c11.6,1.7,13,11,6.6,18.5c-0.9,1.1-1.8,2.2-2.7,3.3c-17.5,0-35.1,0-52.6,0c-11-4.5-21.8-9.9-34.4-9.1
			c-6.1,0.4-12,1.2-17.5,3.7c-4.7,2.2-9.5,3.9-14.4,5.3C173,456.8,166.3,456.8,159.7,456.8z"/>
		<path class="st3" d="M977.4,456.8c-4.1-13.1,0.7-28.4,13.9-35.1c12.4-6.3,25.6-8.5,39.3-6.9c17.5,2.1,25.9,14.4,31.7,28.8
			c1.7,4.2,3.7,8.5,4,13.2c-9.6,0-19.2,0-28.8,0c-2.4-2.3-2-5.6-3-8.4c-3.7-10.3-14.3-14.3-24.1-9.1c-5.7,3.1-7.4,6.5-6.3,12.9
			c0.3,1.6,1,3.1-0.4,4.5C994.9,456.8,986.2,456.8,977.4,456.8z"/>
		<path class="st3" d="M-154.7,456.8c16.2-11,30.9-24.2,48.2-33.7c21.4-11.8,43.7-13.9,66.1-3.3c22.2,10.4,45,19.8,65.9,32.8
			c2.8,1.7,5.9,2.9,8.8,4.3c-7.1,0-14.2,0-21.3,0c-18.5-6.2-35.8-15-54.4-21.1c-9-3-17.8-6.7-27.6-7.2c-17.2-1-31.7,5.4-45.4,14.4
			c-7.2,4.7-13.3,10.9-21.7,13.9C-142.2,456.8-148.4,456.8-154.7,456.8z"/>
		<path class="st3" d="M1391.9-46.9c-9.3-1.8-17.8-5.2-25-11.4c-16.8-14.5-17.6-34.2-5.4-50.7c7.9-10.7,17.4-19.8,30.4-24.7
			c0,6,0,12,0,18.1c-1.2,2.2-3.1,3.6-5.1,5.1c-16,11.8-15.8,28.5,0.3,39.8c1.9,1.3,3.7,2.6,4.8,4.6
			C1391.9-59.7,1391.9-53.3,1391.9-46.9z"/>
		<path class="st3" d="M-135.9,456.8c12.5-10.2,25.3-20.1,40.7-26.1c13.8-5.3,27.8-5.8,42-1.1c20.8,7,41.3,14.7,61.1,24
			c1.8,0.9,3.5,2.1,5.3,3.1c-8.3,0-16.7,0-25,0c-16.8-3.3-32.4-10.2-49.2-13.5c-16.1-3.2-30.7-0.2-44.3,8c-3.7,2.2-7.5,4.2-11.7,5.5
			C-123.4,456.8-129.6,456.8-135.9,456.8z"/>
		<path class="st3" d="M688.1,456.8c19.1-6.5,36.7-17.1,57.4-19c7.1-0.7,14.2,0.6,20.9,2.3c18.1,4.5,35.9,9.8,53.2,16.7
			C775.8,456.8,732,456.8,688.1,456.8z"/>
		<path class="st3" d="M-117.1,456.8c13.4-10.4,28.2-17.5,46-16.8c8.5,0.3,16.8,2.4,24.8,5c11.6,3.7,23.5,6.3,34.4,11.9
			c-10.9,0-21.7,0-32.6,0c-16.3-2.6-32.6-4.3-48.8,0C-101.2,456.8-109.2,456.8-117.1,456.8z"/>
		<path class="st3" d="M1391.9-66.2c-13.9-5.4-20.3-18-18.7-26.6c2-10.8,8.5-18.2,18.7-22.8C1391.9-99.1,1391.9-82.6,1391.9-66.2z"
			/>
		<path class="st3" d="M1003.7,456.8c-2.9-5.8-3.8-11.8,1.7-16.4c5.1-4.3,11.2-6.8,18.4-4.6c8.3,2.5,12.3,8.4,13.6,16.2
			c0.3,1.6,0.1,3.2,0.1,4.8C1026.3,456.8,1015,456.8,1003.7,456.8z"/>
		<path class="st3" d="M1391.9,6.1c-8.5-4.5-15.6-10.6-20.9-18.4c-4.9-7.1-2.8-12.2,5.7-14.1c5-1.1,10.2-1.7,15.2-2.5
			C1391.9-17.2,1391.9-5.5,1391.9,6.1z"/>
		<path class="st3" d="M-127.1-205.8c-19.6,4.3-38.2,11.3-57,17.9c-1.9,0.7-3.8,1.6-5.7,2.4c0-4.4,0-8.8,0-13.3
			c4.7-5.5,11.5-6.6,18.3-7.8c12.8,0,25.6,0,38.4,0C-131.1-206.5-128.9-207.2-127.1-205.8z"/>
		<path class="st3" d="M179.7,456.8c22.4-15,45.1-13.9,64.3-2.1c0.8,0.5,1.4,1.4,2.1,2.1C223.9,456.8,201.8,456.8,179.7,456.8z"/>
		<path class="st3" d="M-189.7,27.8c12.9,12.7,12.9,26.2,0,42.2C-189.7,55.9-189.7,41.9-189.7,27.8z"/>
		<path class="st3" d="M688.1-207.2c62.6,0,125.2,0,187.8,0c0.4,0.8,0.2,1.5-0.6,2c-7.9,2.8-16.1,0.9-24.2,1.3
			c-1.4,0.1-2.9-0.4-4.4,0c-22,0.2-44,0.6-66-0.2c-26.2,0.8-52.4,0.2-78.6,0.3c-4.5,0-9.2,0.8-13.5-1.4
			C688-205.6,687.8-206.3,688.1-207.2z"/>
		<path class="st3" d="M-93.3,456.8c7.2-4,15-5.2,23.1-4.7c8.8,0.5,17.5,1.3,25.8,4.7C-60.8,456.8-77,456.8-93.3,456.8z"/>
		<path class="st3" d="M-127.1-205.8c-15.5,0-31,0-46.4-0.1c-5.4,0.9-10.8,3.9-16.2-0.1c1.1-2.5,3.4-1.1,5-1.1
			c42.2-0.1,84.3-0.1,126.5-0.1c0.4,0.2,0.6,0.4,0.4,0.7c-0.1,0.2-0.3,0.3-0.4,0.3c-0.4,0.1-0.9,0.3-1.3,0.4
			c-3.2,1.6-6.7,2-10.3,2.1c-14.6,0.3-29.1-0.1-43.5-2.1C-117.9-205.8-122.5-205.8-127.1-205.8z"/>
		<path class="st3" d="M139.7-205.7c-0.4-0.1-0.9-0.3-1.3-0.4c-0.4-0.2-0.5-0.5-0.4-0.7c0.1-0.2,0.3-0.3,0.4-0.3c43,0,86,0,129,0
			c0.3,0.2,0.4,0.5,0.3,0.7c-0.1,0.2-0.2,0.4-0.3,0.4c-29.7,0.1-59.3,0.2-89,0.3C165.5-205.7,152.6-205.7,139.7-205.7z"/>
		<path class="st3" d="M1186.6-206.1c-7.5,0.1-15,0.2-22.4,0.4c-2.3,2.2-5.3,2.1-8.2,2.1c-26.1,0.1-52.1,0-78.2,0
			c-3.2,0-6.2-0.7-9-2.1l0.1-0.3c-0.5-0.2-0.6-0.5-0.5-0.7c0.1-0.2,0.3-0.4,0.4-0.4c39.2,0,78.5,0,117.7,0c0.4,0.2,0.6,0.5,0.5,0.7
			C1186.9-206.2,1186.7-206.1,1186.6-206.1z"/>
		<path class="st3" d="M601.8-206.1c-34.6,0.1-69.3,0.1-103.9,0.2c-2.9,0-5.8,0.1-8.8,0.2c-0.5,0.3-1,0.3-1.5,0
			c-0.3-0.5-0.3-1,0.2-1.4c38,0,76,0,114,0c0.3,0.2,0.5,0.5,0.4,0.7C602-206.2,601.9-206.1,601.8-206.1z"/>
		<path class="st3" d="M875.9-206.1c0-0.3,0-0.7,0-1c33,0,66,0,98.9,0c0.4,0.8,0.2,1.4-0.5,1.9c-0.6,0.4-1.3,0.7-2.1,0.9
			c-8.4,1-16.9,0.6-25.4,0.4c-14.4,0.3-28.7,0.6-43.1,0c-8.7,0.2-17.4,1.1-26.1-0.6C877-205,876.4-205.5,875.9-206.1z"/>
		<path class="st3" d="M318.7-207.2c30.9,0,61.8,0,92.7,0c0.4,0.8,0.2,1.4-0.5,1.9c-1,0.7-2.1,1-3.3,1c-25.4,1.1-50.7,0.3-76.1,0.6
			c-3.3,0-6.6-0.4-9.9-0.7c-0.8-0.1-1.6-0.4-2.2-0.8C318.5-205.7,318.3-206.4,318.7-207.2z"/>
		<path class="st3" d="M601.8-206.1c0-0.4,0-0.7,0-1.1c28.8,0,57.6,0,86.4,0c0,0.3,0,0.7,0,1c-1.2,1.3-2.4,1.3-3.8,0.4
			c-15,0-30.1-0.1-45.1-0.1c-10.6,3.4-21.6,1.9-32.5,1.9c-1.9,0-3.6-0.8-5.1-1.9L601.8-206.1z"/>
		<path class="st3" d="M1268-207.2c27.1,0,54.3,0,81.4,0c0.1,0.8-0.2,1.5-0.8,2c-5.6,2.4-11.5,1.1-17.3,1.2
			c-19.1,0.7-38.2,0.3-57.3,0.2c-1.9,0-3.7-0.3-5.4-1.3C1267.8-205.6,1267.6-206.3,1268-207.2z"/>
		<path class="st3" d="M411.4-206.1c0-0.3,0-0.7,0-1c25.5,0,50.9,0,76.4,0c0,0.4,0,0.7,0,1.1c-1.5,2-3.8,2.3-6.1,2.3
			c-13,0.1-25.9,0.6-38.9-0.2c-7.8,0.4-15.6,0.5-23.5,0.3C416.5-203.8,413.5-203.6,411.4-206.1z"/>
		<path class="st3" d="M974.9-206.1c0-0.3,0-0.7,0-1c24.2,0,48.4,0,72.6,0c0.5,0.3,0.6,0.5,0.4,0.7c-0.2,0.2-0.3,0.3-0.5,0.3
			l0.2,0.4c-2.1,2.1-4.9,2-7.5,2.1c-19.1,0.1-38.1-0.1-57.2,0C980.1-203.7,977-203.6,974.9-206.1z"/>
		<path class="st3" d="M138.4-207.2c0,0.3,0,0.7-0.1,1c-10,0.1-20,0.2-30,0.4c-12.1-0.1-24.2-0.2-36.3-0.3c-0.3-0.2-0.4-0.5-0.3-0.7
			c0.1-0.2,0.2-0.4,0.3-0.4C94.1-207.2,116.2-207.2,138.4-207.2z"/>
		<path class="st3" d="M72-207.2c0,0.4,0,0.7,0,1.1c0,0,0.1,0.3,0.1,0.3c-2.1,2.1-4.9,2-7.6,2.1c-15,0.1-30,0.1-45,0
			c-2.7,0-5.4-0.2-7.6-2.1l0-0.3c-0.4-0.2-0.6-0.5-0.4-0.7c0.1-0.2,0.3-0.4,0.4-0.4C31.9-207.2,52-207.2,72-207.2z"/>
		<path class="st3" d="M-189.7-206c5.4,0,10.8,0.1,16.2,0.1c-5,3.1-10.8,4.8-16.2,7.1C-189.7-201.1-189.7-203.5-189.7-206z"/>
		<path class="st3" d="M318.7-207.2c0,0.3,0,0.7,0,1c-3.1,3.3-7.2,2.1-10.9,2.4c-4.3,0.4-8.6-0.6-12.8-0.1c-7,0.3-13.9,0.2-20.9,0.1
			c-2.4,0-5-0.1-6.9-2c0,0,0.2-0.3,0.2-0.3c0-0.4,0-0.7,0-1.1C284.5-207.2,301.6-207.2,318.7-207.2z"/>
		<path class="st3" d="M11.9-207.2c0,0.4,0,0.7,0,1.1c-6.7,0.1-13.4,0.2-20.1,0.3c-6.3,0-12.5,0-18.8,0c0,0,0.1-0.3,0.1-0.3
			c-0.5-0.2-0.7-0.4-0.5-0.6c0.1-0.2,0.3-0.4,0.5-0.4C-14-207.2-1.1-207.2,11.9-207.2z"/>
		<path class="st3" d="M1207.8-205.8c-0.4-0.1-0.8-0.3-1.2-0.4c-0.5-0.2-0.6-0.4-0.5-0.6c0.1-0.2,0.3-0.3,0.5-0.3
			c12.1,0,24.2,0,36.3,0c0.1,0.3,0.2,0.7,0.3,1c-0.4,0.6-1,1.1-1.7,1.4c-5.9,1.5-11.9,0.7-17.9,0.6
			C1218.3-204,1212.8-202.6,1207.8-205.8z"/>
		<path class="st3" d="M1349.3-206.2c0-0.3,0.1-0.7,0.1-1c10.9,0,21.7,0,32.6,0c0.5,0.3,0.6,0.5,0.4,0.7c-0.2,0.2-0.3,0.3-0.5,0.3
			l0.1,0.3c-4.9,3.2-10.4,1.8-15.7,1.7c-5.1-0.2-10.3,0.9-15.4-0.7C1350.2-205,1349.6-205.5,1349.3-206.2z"/>
		<path class="st3" d="M-26.9-207.2c0,0.3,0.1,0.7,0.1,1c-10.5,0-20.9,0-31.4,0c0-0.3,0-0.7,0-1C-47.8-207.2-37.4-207.2-26.9-207.2z
			"/>
		<path class="st3" d="M353.8,456.8c6.3-3.2,12.5-3.2,18.8,0C366.3,456.8,360,456.8,353.8,456.8z"/>
		<path class="st3" d="M1242.9-206.1c0-0.3,0-0.7,0-1c8.3,0,16.7,0,25,0c0,0.3,0,0.7,0,1c-0.5,0.7-1.1,1.2-1.8,1.5
			c-5.9,1.5-11.8,0.9-17.8,0.8C1246.3-204,1244.2-204.3,1242.9-206.1z"/>
		<path class="st3" d="M1047.5-206.2c0-0.3,0.1-0.7,0.1-1c7.1,0,14.2,0,21.3,0c0,0.4,0,0.7,0,1.1
			C1061.7-206.1,1054.6-206.1,1047.5-206.2z"/>
		<path class="st3" d="M1206.6-207.2c0,0.3,0,0.7,0,1c-6.3,0.1-12.5,0.3-18.8,0.4c-0.4-0.1-0.8-0.2-1.2-0.3c0-0.4,0-0.7,0-1.1
			C1193.2-207.2,1199.9-207.2,1206.6-207.2z"/>
		<path class="st3" d="M1381.8-206.1c0-0.3,0.1-0.7,0.1-1c3.3,0.6,7-1.3,10,1.2C1388.6-206,1385.2-206.1,1381.8-206.1z"/>
		<path class="st3" d="M1365.7-205.8c5.4,0,10.9,0,16.3,0c-2.5,17.2-14.2,29.5-24.8,42.2c-8.6,10.3-18.4,19.6-28.8,28.2
			c-12.1,10.1-26.5,14.9-41.8,17.3c-12.4,2-24.2,5.6-35.4,11.2c-12.4,6.3-25.3,11.2-39.2,13.5c-17.9,2.9-32.5,11.7-45.6,23.3
			c-2.8,2.4-5.7,4.7-8.6,6.9c-12.1,9-13.9,17-6.4,30.1c7.2,12.5,16.8,23.3,25.8,34.5c11.6,14.3,26.8,24.4,41.1,35.6
			c19.7,15.4,16.9,36.6,9.3,52.9c-6.7,14.3-15.4,27.5-25.9,39.5c-5.8,6.6-13.2,11.7-21.1,15.7c-14.8,7.3-28.6,15.9-39.2,28.3
			c-12.1,14.1-25.2,10.9-37.2,0.8c-6.4-5.4-12.6-11.1-18.7-16.8c-7.9-7.4-8.6-16.4-2.7-25.4c5.8-8.8,13.3-16.3,19.2-25.1
			c12.7-19.2,14.3-38.7,3.8-59.2c-5-9.7-9.7-19.5-11.7-30.3c-2.6-14.3-2.7-28.5-1.5-42.9c1.6-19.7,6.9-38.5,12.7-57.3
			c3.4-10.8,14.7-18.5,26.5-18.3c10.6,0.2,21.2-0.3,31.8-1.4c8.7-0.9,16.8-4.1,22.9-10c14.9-14.5,23.7-31.8,25.7-52.5
			c1.4-14-1.4-27.3-4-40.8c5.4,0,10.8,0,16.3,0c2.7,2.6,2,6,2,9.1c0.2,18.1,0.8,36.1,2.5,54.1c1,10.2,5.9,14.2,16.3,12.7
			c17.5-2.6,35.1-4.6,52.7-6.9c19-2.5,32.4-14,44.3-27.3c9.7-10.9,18.1-22.6,20.7-37.2C1363-203.2,1364.1-204.7,1365.7-205.8z"/>
		<path class="st3" d="M146.9,270c-26.7-0.5-50.5-8.3-70.8-25.5c-8.4-7.1-17.4-13.6-27.6-18.5c-5.6-2.7-10.9-3.4-16.7-1.2
			c-28.6,11.1-58.6,11.3-88.6,10c-22.1-1-42-8.1-55.2-26.8c-5-7.1-3.7-13.2,3.5-17.8c23.5-15.1,48.9-25.8,77-29.5
			c9-1.2,17.9-2,27.3-0.8c14.4,2,23.8,10,31.1,21c10.7,16.1,12.5,16.5,28,5.2c17.4-12.7,36.9-19.5,59-19.7
			c23.4-0.2,45.9,3.9,67.6,12.2c14.9,5.7,24.3,15.9,26,32.2c2,19.1-3.3,35.4-18.9,47.6c-9.4,7.4-20.9,10.6-32.9,11.7
			C152.7,270.2,149.8,270,146.9,270z"/>
		<path class="st3" d="M-122.1,170c0.9,4.3-0.5,9.4-1.4,14.5c-0.7,4-3.6,6.8-8,7.1c-15.5,1-28-5.2-37.7-16.3
			c-8.6-9.8-6.3-20-1.8-26.1c9.1-12.2,23.2-17.8,33.8-12.6c10.1,5,14.6,14.2,15.1,25.2C-122,164.3-122.1,166.7-122.1,170z"/>
		<path class="st3" d="M267.2-205.7c9.3,0,18.5,0,27.8-0.1c1.6,0.9,3.3,1.7,4.6,3.1c15.1,15.8,34.4,20.7,55.7,18.5
			c23.2-2.4,45.9-8.1,68.5-13.6c6.7-1.6,12.8-4.7,18.8-8c15.1-0.1,30.1-0.2,45.2-0.3c0.4,0.1,0.9,0.2,1.3,0.3
			c11.5,9.8,25,15,40.2,15.4c16.7,0.4,33.4,0.1,50.1,0.1c10.3,0,13.3,3.8,10,13.1c-5.3,14.9-12.4,29.3-16.5,44.6
			c-4.6,17.5-7,35,2.5,52c2.5,4.4,5.6,8.4,9.3,11.9c8.2,7.7,15.7,16,22.9,24.5c4.3,5.1,6.9,11,8.6,17.2c1.4,5.1-2.1,12.8-7.1,16.3
			c-7.4,5.2-16,7.5-24.9,9C571.2,0.5,558,0.5,545-2.7c-13.9-3.4-24.9-10.9-32.3-22.9c-11.7-19-23.1-38.1-29.1-59.6
			c-2.3-8.3-3.8-16.8-3.3-25.5c0.5-8.7-0.5-17.2-1.7-25.7c-1.8-13.3-10.8-21.9-21.5-29.6c-20.2-14.6-42.8-17.5-66.9-12.9
			c-17.7,3.3-35.4,6.9-53.4,7.5c-9.8,0.4-19.8-1.6-29.6-2.8c-5.6-0.7-11.4-1.2-16.8-0.1c-8.7,1.6-13.8,8-16.6,15.7
			c-8.3,22.5-13.2,45.7-16.6,69.3c-1.4,9.9-2.5,19.8-2.4,29.8c0.2,21.2,6.4,41,14.2,60.4c7.1,17.8,20.5,30.7,35.3,42.7
			c14.4,11.8,21.1,27.9,25.8,45c3.1,11.4,6.3,22.7,14.3,32.3c6.7,7.9,15,12.1,25.1,14.3c8.6,1.9,16.9,0.2,25.4-0.2
			c20.6-0.9,34.6,8.6,44.7,25.1c7.9,12.9,11.8,27.3,16.3,41.4c6,19,15.1,36.3,27.8,51.9c7.2,8.9,13.6,18.3,13,30.4
			c-0.7,13.6-8,23-20.1,28.9c-12.1,5.8-23.9,4.2-34.7-3.4c-7.6-5.3-13.6-12.2-20.1-18.8c-11.2-11.4-24.8-19.1-41.6-20.6
			c-24.3-2.1-48.5-5.5-72.6-9.3c-11.3-1.7-22.4-3.5-33.4-6.7c-17.7-5.1-28-16.2-31.9-33.4c-2.4-10.5-5.1-21.1-9.6-31
			c-8.4-18.3-24.4-28.3-42.8-35.4c-16.4-6.4-33.7-7.9-51.3-8.5c-16.6-0.6-33.3-0.8-49.9-1.1c-14.8-0.3-28.3-5.7-41.6-11.5
			c-17.3-7.5-35.4-7.3-53.8-5.7c-13.4,1.2-26.8,3.5-40.4,2.8c-16.8-0.9-27-10.2-32.9-24.5c-5.6-13.5-13.5-25.6-22.5-37.2
			c-17.6-22.9-19.3-48-7.7-73.7c5.1-11.3,16-16.4,28.1-18.8c20.3-3.9,39.6,0.4,58.7,6.4c12.2,3.9,24.5,7.8,37.4,8.9
			c9.3,0.7,18-2.2,25.3-8.3c10.1-8.5,16.8-19.3,23.1-30.3c7.6-13.2,13.6-27.1,19.3-41c9.8-23.8,27.5-38.9,52.4-46.9
			c16.6-5.3,33.1-10.9,47.2-21.4c7-5.2,12.4-11.8,18.1-18.1c10.4-11.6,24.3-15.4,39.4-16.8c4.7-0.5,9.4-1.3,14.1-1.9
			C260.3-194.5,264.9-198.9,267.2-205.7z"/>
		<path class="st3" d="M974.9-206.1c24.2,0.1,48.5,0.2,72.7,0.3c8.9,14,18.9,27.6,21.6,44.2c1.8,11.1,1.6,22.3-1.2,33.4
			c-1.6,6.4-6.6,9.8-11.6,12.8c-15.1,9.1-30.5,18-46,26.6C994.8-80.2,977.3-76,960.2-71c-13.5,4-26.3,9.5-36.5,18.9
			c-6.5,6-12,13.3-17.3,20.4c-9.7,12.9-21.8,22.9-36.7,30c-14.7,7.1-30.1,13-43.1,23C816,29.6,805.4,38,794.8,46.3
			c-1.8,1.4-3.6,2.7-5.6,3.9c-7.6,4.5-11.6,3.8-18.1-2.1c-5.1-4.6-8.6-10.2-13.1-15.3c-18.2-20.6-41.1-33.3-68.5-38.9
			c-6.5-1.3-13-2.7-19.6-3.2c-12.1-0.9-19.6-8-26.1-16.7c-11.5-15.5-23.3-30.6-37-44.4c-7-7-14-14.2-18-23.5
			c-7.6-18-2.2-34.2,7.6-49.5c5.6-8.8,13.9-15.5,23-20.8c14.4-8.5,27.9-18.2,41.1-28.2c7.3-5.5,16.1-8.3,23.7-13.3
			c1.3-0.1,2.6-0.3,3.8-0.4c28.2,0.1,56.3,0.1,84.5,0.2c2.7,0,5.4,0.1,8.1,0.2c2.2,5.7-0.8,13.3-6.8,16.9c-4.4,2.6-9.1,3.8-14.4,2.9
			c-5.2-0.9-10.2-2.2-15.1-3.9c-28.9-9.9-54.2-3.7-76.3,15.9c-10.9,9.7-22.2,18.8-34.2,27.2c-4.7,3.3-9.2,6.9-13.2,11
			c-10.1,10.3-12.4,25.5-3.9,37.1c11.4,15.6,22.2,31.6,34.1,46.8c9.7,12.4,22.2,21.2,37.8,25.4c27.9,7.6,54.1,19,78.6,33.7
			c16,9.6,31.3,7.7,46.6-0.7c14.5-8,29.9-14.2,45.1-20.9c14.8-6.5,25.4-17.3,34.3-29.9c2.5-3.5,4.7-7.1,6.8-10.8
			c10-17.5,25.8-27.4,45.4-32.3c13.5-3.3,27.3-6,40-11.8c20.1-9,36.6-22.4,49.5-39.6c17.4-23.1,1.7-49-15.6-59.2
			c-7.4-4.4-15-2.7-21.9,1.6c-12.8,7.9-22,18.9-29.1,31.7c-3,5.5-5.9,11.1-8.8,16.7c-10,19.2-30.7,27.7-52.1,18
			c-13.5-6.1-24.4-15.3-34.6-25.4c-12.6-12.5-21.4-27.1-25.4-44.2c-0.5-2.1-1.7-4.2-0.4-6.4c9.6-0.1,19.1-0.3,28.7-0.4
			c0.4,0.1,0.8,0.3,1.3,0.4c4.3,3.8,5.6,9.3,7.9,14.2c3.1,6.6,6.4,13,10.8,19c2.8,3.8,6.2,7,10.3,9.6c12.1,7.7,24.2,5.9,33.2-5
			c7.5-9.1,13.9-19,22.2-27.6c3.7-3.8,6.8-8.2,12.2-10.1C974.1-205.9,974.5-206,974.9-206.1z"/>
		<path class="st3" d="M1068.9,48.5c2.2,19.8-9.1,34.4-20.4,48.9c-4.7,6.1-9.1,12.3-14.6,17.9c-12.4,12.6-27.7,14.6-44.2,11.7
			c-13.8-2.3-26.7-7.6-39.9-11.9c-22.4-7.4-43.4-4.8-63,7.9c-8.8,5.7-17.4,11.6-26,17.6c-5.5,3.8-11.7,5.9-18,8.2
			c-8.7,3.1-22.6-1.9-27-9.9c-6.9-12.5-8.4-25.5-6.7-39.5c1.2-9.9,2.3-19.8,5-29.5c7.1-24.8,24.1-41.7,47.4-52.9
			c18-8.7,35.2-18.3,48.5-33.2c4.5-5,9.1-9.9,13.2-15.2C937.5-49.8,958-58,980-63.6c12.4-3.2,24.7-7.2,37.4-9.2
			c14.1-2.1,21.5-0.9,27.8,12c9.8,19.9,17.4,40.5,20.1,62.7C1067.1,17.5,1067.5,33,1068.9,48.5z"/>
		<path class="st3" d="M739.6,58c-0.1,21.3-9.6,36.7-20.6,51.5c-6.3,8.4-13,16.5-23.1,21.3c-14.9,6.9-30.7,2.9-40.4-10.3
			c-8.6-11.8-12.5-24.9-13.8-39.1c-1.9-20.4,2.5-38.7,14.9-55.4c6.4-8.6,23.4-14.8,34.3-13.3c13.2,1.9,24.8,7.1,34.3,15.7
			C734.5,36.8,740.1,47.4,739.6,58z"/>
		<path class="st3" d="M1068.8-205.8c31.8,0,63.6,0,95.4,0c7.2,7.6,13.4,15.6,15.5,26.1c2,9.8-3.4,21.9-12.7,26.4
			c-6.8,3.3-13.8,5.1-21.5,5.1c-9.6,0.1-19-1.1-28.4-2.6c-14.2-2.2-23-10.8-29.4-22.6C1081.6-184.3,1075.1-194.9,1068.8-205.8z"/>
		<path class="st3" d="M601.6-205.8c12.5,0,25.1,0,37.6,0c-7.7,5.3-16.7,7.5-25.8,9.3C607.5-195.3,604.2-198.2,601.6-205.8z"/>
		<path class="st3" d="M835.7,438.7c-23,1-44.8-5.1-66.8-9.9c-14.3-3.1-28.7-5.4-43.7-3.6c-10.7,1.3-21.7,0.7-32.5,0.2
			c-14.9-0.8-29.4,1.9-44.1,2.7c-13.9,0.8-22.4-8.3-26.9-18.3c-6-13.3-6-27.1-3-41.2c3-13.9,5.2-27.8-2.7-41.4
			c-4.5-7.6-11.5-11.9-18.6-16.4c-5.9-3.7-12.1-7-18.1-10.6c-17.5-10.7-23.1-26.1-18.3-45.5c1.9-7.6,4.5-15,6.9-22.4
			c3-9.3,0.2-15.9-8.7-20.6c-7.3-3.9-14.8-7.3-21.4-12.2c-9.6-7.2-15.6-16.8-17.4-28.3c-2.8-17.9-9.8-33.7-22.5-47.2
			c-12.4-13.2-24-27.1-37.3-39.5c-8.2-7.6-17.5-14.1-29-15.3c-11.6-1.2-23.3-0.3-34.8,1.4c-11.7,1.7-22.1-0.4-31-8.6
			c-14.2-13.3-24-30.3-39.2-42.7c-11-8.9-21.5-18.3-29.7-29.8c-11.6-16.3-19.9-34.1-19.3-54.1c1-31.6,21-66.3,57.4-76.8
			c18.2-5.2,36.1-10,55.4-10.4c26.6-0.5,54.7,18.7,58.6,47.3c2.2,16,4.1,32,6.3,48c2.8,19.3,10.6,36.4,23.7,51.4
			c9.2,10.5,19,20.2,31.7,26.6c13.7,6.9,28.7,9,43.9,10.2c10.7,0.8,21.4,1.7,31.9,4.5c11.4,3.1,18,10.7,21.3,21
			c4.3,13.8,5.4,28.2,6.6,42.5c1.7,21.2,5.2,41.9,16.6,60.8c6.2,10.2,15.5,16.6,25.9,21.7c13.3,6.6,27.1,12.4,38.7,21.7
			c7.2,5.7,14.3,11.6,21.2,17.6c12.4,10.6,26.7,12.9,42.5,10c11-2.1,22.3-2.3,33-0.5c17.2,2.8,31.4-1.9,45.6-10
			c9.8-5.6,19.8-11,31.9-11c8.8,0,15.8,3.2,21.9,8.7c6.1,5.4,12,11.2,17.7,17c5.9,5.9,7.5,13,6.3,21.1c-1.8,11.4-7.6,21.5-11.3,32.3
			c-6.3,18.1-8.9,36.8-11,55.7c-2.1,19.2-1.8,38.7-6.1,57.7c-3.4,15-10.2,27.5-25.7,33.9C853.2,439.5,844.4,438.5,835.7,438.7z"/>
		<path class="st3" d="M36.9,395c0.1-24.4,19.9-47.1,44.8-51.4c11.6-2,23.2-3.2,35-0.2c18.7,4.8,25,17.5,16.5,34.2
			c-5.6,10.9-14.7,19.3-22.1,28.9c-5.5,7.2-10.8,14.5-18.3,20.1C75,440,51.9,431.9,42.5,415.1C39.1,409,36.6,402.3,36.9,395z"/>
		<path class="st3" d="M-66,323c4.7,0.8,9.6,2.2,13,7.4c4,6.2,1.1,11.2-2,16.1c-4.8,7.7-20.4,12-29,8.7c-6.2-2.5-8.3-7.6-5.8-13.7
			C-84.4,328.3-76.1,323.7-66,323z"/>
		<path class="st3" d="M256.7,358c-3.9-0.9-9.1-1.3-12.1-6.4c-1.5-2.6-0.9-5,1-6.5c4.1-3.5,9.1-4.6,14.5-3.6
			c6.2,1.1,10.9,5.6,10.3,9.4C269.7,354.3,263.3,358,256.7,358z"/>
		<path class="st3" d="M1096.4,353.8c-2.4-12.3,5.7-22.6,14.7-31.8c8.5-8.7,15.9-18.5,26.1-25.7c15.6-11.1,31.2-8.9,42.2,6.7
			c9.9,13.9,11.9,29.3,8.3,45.2c-3.8,16.7-8.1,33.4-16.9,48.5c-10.3,17.7-33.3,24.3-49.6,14.6c-9.1-5.4-13.3-14.1-17.5-22.8
			C1099,379,1096.4,366.4,1096.4,353.8z"/>
		<path class="st3" d="M11.8-205.8c20.1,0,40.1,0,60.2,0c3.2,6.1,9.5,10.2,10.2,18.1c0.9,10.1-4.7,16.9-10.6,23.4
			c-13.7,15.2-22.6,32.9-30.8,51.1c-7.1,16-16.1,30.7-29.9,42.3C5.2-66-1.8-62.9-9.4-62.7c-23.9,0.8-47.7-0.6-71.1-5.9
			c-8.3-1.9-16.4-4.9-23.2-9.9c-16.6-12.4-35.5-18.7-56.2-20.2c-8.3-0.6-15.7-2.7-18.2-11.7c-2.1-7.7,2.5-17.7,10.3-23
			c10.8-7.3,23.4-10.2,36.1-12.3c24-4.1,48.2-5.1,72.5-4.9c14.9,0.1,29.8-0.5,44.5-3.5c22.7-4.6,29.2-23.5,27.4-41
			C12.4-198.6,12.1-202.2,11.8-205.8z"/>
		<path class="st3" d="M-113.3-205.8c17.9,0,35.9,0,53.8,0c-6.6,7.5-15.6,8.1-24.5,6.7C-93.9-200.6-103.5-203.5-113.3-205.8z"/>
		<path class="st3" d="M847.2-205.8c4.6,13.1,7.9,26.6,17.1,37.8c12.6,15.3,26.7,28.8,45.7,37.1c19.8,8.7,39.3-0.5,48.1-17.6
			c3.1-5.9,6-11.9,9.3-17.8c6.3-11.5,14.7-21.4,25.6-29.2c17.3-12.5,29.2-6.3,40.2,6.7c6.4,7.5,11.1,16.2,11.5,26.1
			c0.5,11.5-3.8,21.6-11.7,30.1c-11.1,12-23.3,22.7-37.9,30.8c-13.8,7.6-28.8,11.3-44,14.9c-12.2,2.9-23.8,6.9-33.9,14.5
			c-8.8,6.6-14.1,15.8-19.5,24.7c-10,16.4-23.2,29.3-41.6,36.6c-16.2,6.5-31.8,14-47.3,21.8c-15,7.6-28.8,6-42.5-2.1
			c-24.7-14.5-50.8-26-78.6-33.5c-18.4-5-31.7-16.3-42.4-31c-9.4-13-18.5-26.1-28.2-38.9c-11.5-15-10.5-34.9,9.4-48.9
			c16.1-11.3,31-24.1,46.3-36.4c19.8-15.9,42.3-20.3,67.2-13.2c5.4,1.5,10.7,3.3,16.1,4.7c14.5,3.6,23.6-3.6,24.5-17.4
			C802.9-205.8,825.1-205.8,847.2-205.8z"/>
		<path class="st3" d="M973.6-205.7c-12.5,12.1-23,25.7-33.4,39.4c-9.4,12.5-26.5,12.9-39.5,1.7c-4.4-3.8-7.8-8.4-10.7-13.2
			c-5.1-8.9-9.5-18.2-12.9-27.9c8.8,0,17.6,0,26.4-0.1c3,1.2,4.7,3.8,6.9,5.9c7.7,7.1,12.2,7.7,21.6,3.1c5.3-2.6,9.5-7,15.3-9
			C956.1-205.8,964.9-205.7,973.6-205.7z"/>
		<path class="st3" d="M947.3-205.8c-6.3,6.3-13.7,10.8-22.3,13.6c-5.4,1.8-9.3-1.7-13-4.2c-3.5-2.3-6.7-5.4-8.4-9.5
			C918.1-205.8,932.7-205.8,947.3-205.8z"/>
		<path class="st3" d="M442.6-205.8c0,3.2-2.9,3.6-5,4.7c-15.1,7.7-32,9.4-48.3,13c-15.1,3.4-30.3,7.2-45.9,6.1
			c-19.6-1.3-36.9-7.2-48.4-23.9c7.9-0.1,15.8-0.2,23.7-0.3c0.5,0.1,0.9,0.2,1.4,0.4c3.5,1.2,6.8,2.9,10,4.7
			c13.2,7.5,27.4,6.6,41.9,4.5c12.6-1.8,24.5-6.4,36.8-9.2c0.9-0.1,1.7-0.2,2.6-0.4C421.8-206,432.2-205.9,442.6-205.8z"/>
		<path class="st3" d="M408.8-205.8c-13.2,7.2-27.8,9.8-42.6,11.9c-10.4,1.5-20.5,1.1-30.5-2.4c-5.9-2.1-11-5.4-15.6-9.5
			C349.6-205.8,379.2-205.8,408.8-205.8z"/>
		<path class="st3" d="M1242.9-206.1c7.9,0.1,15.8,0.3,23.7,0.4c0.8,3.2-1.6,5.2-2.9,7.6c-5,9.5-3.4,19.1,4.2,24.9
			c0.7,0.5,1.3,1,2,1.4c20.1,11.2,49.4,1.6,58-19c1.2-2.8,1.8-5.7,1.9-8.7c0.1-2.2,0.1-4.4,1.9-6.1c5.8-0.1,11.7-0.3,17.5-0.4
			c0,0,0.1,0.5,0.1,0.5c1.6,0.6,2,1.9,2,3.4c0.1,2.2,0,4.4-0.4,6.6c-3.1,17.9-26.3,46.3-52.9,48.6c-12.8,1.1-25.3,0.7-38-0.5
			c-8.3-0.8-14.6-4.7-18.3-11.9c-7-13.4-6.7-27.4-2.7-41.5c0.6-2,2-3.5,3.8-4.6L1242.9-206.1z"/>
		<path class="st3" d="M1331.8-205.8c2.8,25.3-22,44.6-49.6,38.8c-5.2-1.1-10.8-0.8-15.3-4.4c-8.6-7-10.5-19.1-4.5-28.4
			c1.3-2,2.8-4,4.2-5.9c0.4-0.1,0.9-0.3,1.3-0.4C1289.2-206,1310.5-205.9,1331.8-205.8z"/>
		<path class="st3" d="M1242.9-205.7c-5.7,14.7-6.8,29.4-0.1,44.1c2.9,6.4,7.8,10.9,15.3,11.8c18.4,2.1,36.8,3.9,54.6-3.2
			c16.4-6.5,39.8-31.8,36.7-52.7c5.4,0,10.9,0,16.3,0c-3.2,22.7-17.3,39.4-33.7,54.4c-12.2,11.1-26.8,17-43.7,17.7
			c-12.4,0.6-24.7,2.5-36.9,4.9c-23.2,4.5-25.1-4.9-25.7-21.3c-0.6-18.6-2.4-37.2-1.6-55.8C1230.4-205.7,1236.6-205.7,1242.9-205.7z
			"/>
		<path class="st3" d="M1132.7,101.4c-0.1-9.2,1.3-18.3,1.4-27.6c0.1-12.4-4.2-23.1-10.3-33.5c-4.7-8-9.5-16-10.9-25.4
			c-0.8-5.5-0.8-11,2.5-15.6c4.5-6.3,10.6-8,18.5-5.9c8.6,2.3,14.9,7.8,21.2,13.3c6.1,5.4,11.8,11.3,17.2,17.4
			c7.1,7.8,16.1,13.8,24.7,20c4.4,3.2,8.2,6.9,11.8,10.7c5.6,6,5.7,14.1,3.1,20.5c-7.1,18.1-17.6,34.4-34,46.5
			c-8.5,6.3-18.6,7.7-29,7c-8.6-0.6-15.9-9.3-16.4-19.1C1132.6,107,1132.7,104.2,1132.7,101.4z"/>
		<path class="st3" d="M151,256c-27.5-0.6-43.8-12.2-56.5-29.5c-4-5.4-7.8-10.8-8.7-17.6c-3-20.7,11.4-29.1,26.2-30
			c24.4-1.6,47.5,4.2,67.9,17.4c9.4,6.1,12.6,15.6,10.2,26.8C185.7,242.7,168.2,257.5,151,256z"/>
		<path class="st3" d="M-40.9,218.2c-4.9,0.4-10.8-0.2-16.3-3.1c-9.7-5.1-11.3-15.9-4-23.7c8.7-9.2,19.2-13.4,32.1-13.1
			c8.2,0.2,13.7,4.3,17.8,10.3c3,4.5,0.1,17-4.1,21.4C-21.5,216.6-26.5,218.2-40.9,218.2z"/>
		<path class="st3" d="M252.5-129.3c-0.9,17.9-3.2,35.7-4.7,53.6c-1,12.7-1,25.6,0.4,38.4c1.6,14,4.5,27.6,9.3,40.8
			c6.7,18.9,18.3,34.3,34.7,46.7c14.6,11,21.6,26.4,25.4,43.6c2.9,13.2,6,26.4,15.1,37.6c10.5,13,24.5,17.8,40.5,19.3
			c8.4,0.8,17,1,25.3,2.9c14.4,3.3,23.7,12.4,30.5,24.6c8,14.3,12,29.9,16.9,45.1c4.8,15,10.7,29.5,17.9,43.5
			c1.7,3.3,2.9,6.6,3.8,10.1c0.8,3.3-0.9,5.9-3.4,7.9c-2.4,2-4.9,2-8.1,0.7c-10.7-4.5-18.4-13-28.2-18.7
			c-12.2-7.1-25-11.6-39.4-11.4c-11.7,0.2-23.4,0.5-35.1-0.1c-22.9-1-45.5-4.4-66.9-12.6c-14-5.3-23.5-15.6-28.9-29.2
			c-2.4-6-4.7-12-6.6-18.1c-6.2-21.2-20.7-35.5-40.4-45.7c-19.7-10.1-40.7-14.8-62.9-14.8c-17.5,0-34.9,0.6-52.3-2.3
			c-12.7-2.2-24.3-6.9-34.7-14.2c-9.2-6.4-19.1-9.3-30.4-8.9c-16.4,0.6-32.9,1-49.3,1.2c-8.7,0.1-16.7-2.5-24.1-7
			c-4.3-2.6-6.8-6.4-9-10.5c-12.9-23.8-25-48-34.5-73.2C-92.9,3.1-81.2-9.6-63.1-9.5c11.1,0,21.6,3.8,32.2,6.5
			C-17.2,0.5-4.2,5.9,9.2,10.3c12.9,4.3,24,1.8,33.5-7.8C61-16.2,74.3-37.7,83.2-61.7c4.3-11.7,8-23.6,14.6-34.4
			c10.1-16.7,26.3-25.6,44.7-31.7c13.5-4.5,27.6-7.8,40.3-14.5c7.7-4,15.3-8.1,22.6-12.7c7.5-4.7,15.5-7.7,24.1-9.6
			c9.4-2,19.3,6.2,21.7,17.4C252.3-141.3,252.4-135.4,252.5-129.3z"/>
		<path class="st3" d="M492.7-108.5c-0.1-15.2,2.2-28.3,6.2-41.2c2.5-8.1,7.7-12.9,16.5-14.3c9.5-1.6,18.8-2.1,28,1.6
			c8.6,3.4,11.5,9.9,11.9,18c0.5,11.2-1.1,22.3-2.2,33.4c-2.4,22.9,2.4,43.8,21.1,59.9c4.7,4.1,8.3,8.9,11,14.4
			c3.5,7.3,1.4,13.2-6.1,17c-16.2,8.2-38.5,2.9-48.1-9.7C517.3-47,506-66.2,496.6-86.2C493-93.8,492.1-102,492.7-108.5z"/>
		<path class="st3" d="M1055.2,12.6c0,21.8-4.9,37.6-16.7,51.4c-6.6,7.7-11.1,16.9-15,26.1c-6.1,14.3-20.1,23-39.8,17.9
			c-12.9-3.3-25-8.7-37.8-12.2c-19.6-5.2-39-3.7-58.4,1.6c-6.6,1.8-13.2,3.5-19.9,5c-15.3,3.4-19.8-3.9-22.7-14
			c-7.2-25,2-46.2,26.2-59.3c23.2-12.6,42.1-29.7,58.5-49.6c14.9-18.1,35-27.9,58.2-32.4c8.8-1.7,17.6-3.4,26.6-2.3
			c13.5,1.7,21.4,10.7,27.5,21.4C1050.7-18.1,1055.5-1.3,1055.2,12.6z"/>
		<path class="st3" d="M652.9,79.9c0-18.1,4.7-30.5,16.7-39.5c18.2-13.8,40.1-2.6,46.1,13c5.4,14.2,2.6,27.6-4.4,40.5
			c-4.1,7.6-9.2,14.7-16.9,19.6c-11.4,7.3-24.2,5.2-32.2-5.5C655.1,98.4,652.2,87.8,652.9,79.9z"/>
		<path class="st3" d="M1127.3-180.7c-6.2,0.2-15.4-7.6-15.6-13.3c-0.1-2.9,1.9-4.3,4.7-4.6c4.2-0.5,14.7,4.5,16.7,7.9
			C1136.4-185.2,1133.8-180.8,1127.3-180.7z"/>
		<path class="st3" d="M286-67.2c0-14.2,7.5-29.2,19.4-42c23.4-25.3,53.7-36.1,88.3-33.8c20.1,1.4,37.6,14.6,43.9,35.1
			c4,13.1,4.7,26.7,5.1,40.3c0.4,13.6,1.7,27.1,3.9,40.5c3.1,18.5,15.1,31.6,29,43.6c16.3,14.1,35.7,21.6,57.2,24.3
			c11.7,1.4,23.5,1.9,35.2,3.9c19.2,3.3,29.1,12.9,32.6,31.4c4.5,23.9,1.5,47.2-6.2,70.1c-2.4,7-7.4,12.2-13.4,16.2
			c-8.8,5.9-19.4,3.1-26.6-6.4c-7.1-9.4-14.6-18.5-23.9-26c-9.7-7.8-19.5-15.5-28.6-24c-12.3-11.5-22.1-24.9-33.1-37.4
			c-11.1-12.7-25.2-19.4-43.1-18.1c-10.5,0.8-20.9,3-31.6,2.8c-10.9-0.2-20.4-3.3-27.6-10.5c-18.2-18.3-39-33.9-56.9-52.3
			C295.1-24.5,285.9-42.3,286-67.2z"/>
		<path class="st3" d="M818.1,425.5c-18.4,0-34.3-3.8-50.3-7.3c-19.2-4.2-39-5.4-57.9-10.9c-26.4-7.7-47-21.9-55.4-48.9
			c-3.3-10.5-6.6-21.1-8.9-31.8c-3.2-14.8-12-24-26.7-28.9c-9.2-3.1-18.4-6.2-25.5-13.3c-8.7-8.7-10.9-18.9-5.4-29.9
			c4.1-8.3,9.7-15.9,15-23.5c4.3-6.1,9.6-11.5,14.8-17c9.8-10.3,21.9-11.5,34.9-9.7c22.9,3.2,38.3,17.3,51.5,34.1
			c9.4,11.9,21.2,18.8,37.2,18.5c13.1-0.3,26.1-1.7,39.3-1.4c14.6,0.4,28.8,3.6,43.2,4.5c11.5,0.7,21.9-2.7,31.9-8.2
			c13.1-7.3,22.2-3.1,24.9,7.1c1.3,4.7,0.7,9.9-0.3,14.9c-2.3,12.5-1.8,24.9-1.2,37.6c0.9,19.3,3.3,38.7,0.8,58.1
			c-1.2,9.7-2.1,19.4-5.5,28.7c-5.3,14.7-17,21.8-31.8,24.7C834.1,424.6,825.2,425.9,818.1,425.5z"/>
		<path class="st3" d="M1115.2,354.8c0.3-5,2.3-12.2,6.8-18.8c5.6-8.2,12.3-15.2,20.7-20.6c13.2-8.5,24.6-3.9,28.9,10.9
			c2.6,8.9,0.5,17.5-1.3,26c-2.5,11.5-4.6,23.3-11.8,33.2c-9.9,13.8-24.8,12.4-34.1,0.6C1118.5,378.9,1115.2,367.8,1115.2,354.8z"/>
		<path class="st3" d="M-33.1-73.4c-12.1,0.6-24.9-1.5-37.4-5.7c-16.6-5.6-26.2-18-33.4-32.2c-4.3-8.4,0.4-17.2,9.9-20.6
			c10.3-3.8,21.1-5.4,32.1-6.8c17.3-2.1,34.5,0.4,51.7,0.4c6.6,0,13.2,1.2,19.7,2.6c8,1.7,13,11.3,11.1,21
			c-2.8,14.3-9.8,26.4-21.9,35.3c-5.5,4-12.2,5.9-19.3,6.1C-24.4-73.3-28.2-73.4-33.1-73.4z"/>
		<path class="st3" d="M891.4-93.9c-4.4,21.4-9.4,42.7-26.1,59c-6.2,6.1-13.9,10.1-22.3,12.9c-14.3,4.8-28,11-43.4,12.8
			c-9,1.1-17.6,0.1-25.6-3c-24-9.3-48.8-15.7-73.4-23c-20.3-6-35.7-17.7-42.5-38.1c-1.7-5-2.7-10.1-3.1-15.2
			c-1-11.5-3.4-23-0.4-34.5c1.3-5.2,4.1-9.7,7.2-13.9c6.6-9,13.1-18,20.9-26.1c16.5-17.1,32.9-19.1,54-9.4
			c18.8,8.6,39,12.1,59.2,15.8c16.9,3.1,34.1,5.1,50.1,11.4c13.8,5.4,24.3,15.2,33.8,25.9C886.1-111.9,892.2-104.5,891.4-93.9z"/>
		<path class="st3" d="M129.1,198.8c12.8,0.2,23.2,5.3,31.3,14.7c5.1,5.9,0.2,17.8-8,20.3c-4.6,1.4-8.9,1.2-13.4-0.1
			c-10.4-3.1-17.6-9.9-22.1-18.9C112.2,205.4,117.5,198.9,129.1,198.8z"/>
		<path class="st3" d="M241.3-100.8c-2.5,25.4-3.6,50.8-2.7,76.2c1,26.8,8.1,51.5,27.9,71.9c7.2,7.5,15.7,13.5,22.4,21.6
			c8.4,10.1,12.5,21.5,14.7,33.9c1.9,10.4,3.3,20.9,9.4,30.2c8.4,12.6,19.7,21.3,34.3,26.5c12.4,4.4,25.5,5.1,38.3,7.7
			c23.2,4.7,32.4,21.6,34.4,41.6c0.1,1.4,0,2.8,0,4.2c0,12-3.1,17.2-15,20.6c-21.9,6.3-44.2,11.9-67.4,9.8
			c-15.1-1.3-29.9-4.4-43.3-12.1c-16.4-9.5-23.3-25-26.8-41.7c-6-28-25.3-43.4-50.5-54.5c-20-8.8-40.7-11.9-62.6-11.1
			c-12.4,0.5-24.9,0.9-37.4-0.9c-17.9-2.5-32.6-9.1-40.1-26.3C69.3,79,61,61.3,55.2,42.7C51.5,30.7,54.7,20,60.1,9.3
			c6-11.8,14.3-22.1,21.1-33.3c8.4-13.6,12.8-28.7,16.8-43.8c6.8-26.1,23.3-43.1,49.8-51.5c20.8-6.5,41.2-14,62.1-20.1
			c16.6-4.8,27.4,2.9,29.8,19.4C240.8-113.5,241.3-107.2,241.3-100.8z"/>
		<path class="st3" d="M-17.4,50.9c-1,3.1-1.4,7-5.1,8.8c-3.2,1.5-5.4-1.2-7.7-2.8c-5.2-3.7-7.2-9.3-7.8-15
			c-0.3-3.2,1.7-6.9,5.7-7.7c4.5-0.9,8.1,1.5,10.8,4.6C-18.5,42.1-18.1,46.5-17.4,50.9z"/>
		<path class="st3" d="M512.8-109.9c0.2-4.4,2.4-9,5.4-13.1c3-4.1,7.3-3.6,9.9,0.7c5,8.3,3.4,16.6-0.9,24.3c-2.9,5.2-8.1,4.7-11-0.5
			C514.3-101.7,512.7-105.2,512.8-109.9z"/>
		<path class="st3" d="M1042.6,10.5c-0.5,15.9-6.9,28.8-20.1,38.7c-9.2,6.9-18.1,14.1-26.4,21.9c-7.8,7.2-17.1,8.8-26.6,7.2
			c-23.5-4-47.1-6.8-70.6-10.6c-1.6-0.3-3.3-0.6-4.8-1.3c-12.5-5.3-12.2-12.7-3.7-24c6.7-9,15.6-16.1,23.1-24.3
			c10.1-10.9,19-22.7,29.2-33.5c12.5-13.3,27.7-20.8,45.9-24.3c30.8-5.8,48.7,17.6,52.7,38.3C1042.1,2.5,1042.8,6.4,1042.6,10.5z"/>
		<path class="st3" d="M691.9,77.4c-0.1,7-5.6,14.2-10.8,14.1c-4.2-0.1-9.3-6.8-9.2-12.1c0.2-6.4,5.4-13,10.5-13
			C688.1,66.3,691.9,70.8,691.9,77.4z"/>
		<path class="st3" d="M431.4-58.1c0.8,19-1.7,38.7-1.3,58.6c0.4,19.8-17.7,31-33.6,32.2c-12.2,1-22.6-3-31.8-10
			c-17.1-13-35.1-25-50-40.4c-12.6-12.9-20.1-27.9-19.7-45.9c0.3-13.7,7.1-24.8,15.6-35.2c16.1-19.5,36.8-31,62.2-35.7
			c25.2-4.7,51.4,12,56.2,36.1C431.6-85.3,431.4-72.1,431.4-58.1z"/>
		<path class="st3" d="M529.2,55.5c12.5,0,24.8,0.9,36.9,4.4c18.4,5.2,25.4,27.2,17.6,43.1c-4.5,9.1-16.6,13.6-28.5,11.3
			c-22.3-4.4-39.8-15.5-52.4-33.9c-2.4-3.5-3.3-7.3-3.7-11.3c-0.6-6.4,3.2-10.7,10.2-12.2C515.9,55.5,522.6,55.3,529.2,55.5z"/>
		<path class="st3" d="M808.3,413.5c-23.4,0.5-45.4-6.6-67.8-11.5c-12.9-2.8-25.5-6.7-36.4-13.8c-20.8-13.4-31.9-32.7-36.2-56.4
			c-2.1-11.7,0.9-23.1,0.3-34.7c-0.5-9.2-3.6-14.2-12.5-17.2c-5.9-2-12-3.3-17.9-5.1c-3.2-1-6.4-1.9-9.3-3.4
			c-8.8-4.6-11.7-11.3-7.8-20.1c7.7-17.2,21.9-27.7,42.5-22.1c9.9,2.7,15.5,10.4,20.6,18.2c1.4,2.2,2.8,4.5,3.6,7
			c4.6,13.9,16.1,18.6,29.5,20.4c15.9,2.2,31.8,1.5,47.8-0.7c25.3-3.5,49.7-0.4,72.1,12.2c11.5,6.5,18,17,22.7,28.6
			c7.2,17.6,10.3,35.9,8.8,54.7c-2.1,25.1-12.8,38.6-40.7,42.9C821.1,413.3,814.8,413.2,808.3,413.5z"/>
		<path class="st3" d="M-34.2-86.6c-13.3,0-23.9-2.6-32.3-10.9c-9.2-9.2-6.5-20.9,6-24.9c14.8-4.7,29.3-4,43.4,2.5
			c6,2.8,10.1,7.5,9.8,14c-0.3,6.3-3.4,11.7-9.7,15C-22.9-87.8-29-85.8-34.2-86.6z"/>
		<path class="st3" d="M854.3-79.5c0,4.6,0.7,9.3-0.1,13.8c-2.9,15.1-17.5,25.1-35.8,26.1c-11.8,0.6-23.1-1.9-34.5-4.1
			c-11.5-2.2-23-1.3-34.5-0.2C731.1-42,713-43.3,696.8-52c-17.7-9.5-21-23.1-18.2-39.9c3.6-21.5,15.8-38.8,32.3-53.4
			c8.3-7.3,19-6.4,28.5-4.8c30.1,5,59.2,13.9,87.8,23.9c15.3,5.4,27.3,22.5,27.4,38.3c0,2.8,0,5.6,0,8.4
			C854.6-79.5,854.4-79.5,854.3-79.5z"/>
		<path class="st3" d="M231.5-89.5c-1.8,15.4-3.6,30.9-5.3,46.3c-1,9.7-1.8,19.5-2.7,29.2c-0.7,7.3-2.3,14.6-2.2,22
			c0.1,9.6,1.2,19.2,7.1,27.5c10.9,15.3,21.8,30.6,35.3,44c7,7,13.1,15,12.5,25.9c-0.6,10.3-8.5,15.4-18.5,11.8
			c-6.5-2.3-12.3-5.8-18.3-9c-10.7-5.7-22-5.1-33.4-3.8c-22.6,2.6-44.8,7.9-67.7,7.8c-23.2-0.1-36.7-8.9-45.4-29.7
			c-5.3-12.8-10.4-25.7-15.1-38.7c-5.5-15.2-4.6-30,5.8-42.6C100-18.6,105.6-42.1,111-66c4.8-21.5,19.1-36,40.6-43.5
			c17.2-6,34.6-11,52.6-14.2c11.8-2.1,23.1,6.1,25.3,19.4C230.3-99.5,232.2-94.6,231.5-89.5z"/>
		<path class="st3" d="M345.9,230.2c-16.3,1.1-30.8-1.6-43-11.8c-6.5-5.4-10.1-12.2-12.2-20.2c-2.3-8.9-2-17.3,2.2-25.5
			c3.6-7.1,9.8-10,17.9-7.8c20.3,5.6,40.6,11.2,60.8,17.1c4.1,1.2,8.2,3.1,11.8,5.3c11.3,7.1,10.5,20.2-1.5,29.7
			C371.4,225.2,358.7,229.8,345.9,230.2z"/>
		<path class="st3" d="M962.2,47.2c-5.1,0.4-9.9-0.8-14.7-2.3c-10.6-3.4-14.7-9.6-11.3-19.5c7.8-22.6,20.5-41.6,46-48
			c24.1-6.1,42.5,5.7,45,29.1c1.3,11.8-5.6,21.3-15.9,27.2C996.3,42.3,979.6,46.3,962.2,47.2z"/>
		<path class="st3" d="M420.3-74.2c-1.9,19.2-1.5,38.6-6.4,57.5c-2.5,9.6-7.4,17.9-15.6,23.8c-5.9,4.3-12.8,4.8-20.1,3
			C361,5.8,347.6-4.7,333.5-14.1c-7.7-5.2-14-11.7-19.2-19.3c-11.9-17.3-12.2-34.8,0-51.8c12.6-17.6,28.3-31.7,50.3-38
			c27.6-7.9,51.6,7.5,54.4,34.7C419.5-83.7,420.2-79,420.3-74.2z"/>
		<path class="st3" d="M739.6,294.1c13.1,1.4,28-2.8,43.2-4.4c15.8-1.6,30.5,2.2,42.9,12.1c16.2,12.9,25.5,30,28.4,49.8
			c2,14.3,2.3,29-11,39.8c-7.4,6-16.4,8.8-25.6,9.7c-34.6,3.4-67.1-5-97.5-19.9c-23.4-11.4-36.6-30.7-34.1-57
			c1.8-18.7,13.7-28.7,34.5-30.2C726,293.8,731.6,294.1,739.6,294.1z"/>
		<path class="st3" d="M793.7-74.6c-10.3,0.6-20.5-2.8-31-0.1c-8.7,2.2-16.5,6.6-24.9,9.4c-7.4,2.4-14.9,2.2-22.2,1.2
			c-11-1.6-17.9-11.8-16.1-22.8c1.4-8.7,5.3-16.3,11.8-22.6c7.9-7.8,15.8-15.3,27.7-17.3c8-1.4,15.8-0.5,23.5,1
			c11.2,2.2,22.1,5.5,32.8,9.5c8.2,3.1,14.9,8.1,20.2,14.6c4.2,5.1,4.1,11.6,2,17.2c-2.3,6.2-8.1,9.4-15.1,10
			C799.6-74.4,796.6-74.6,793.7-74.6z"/>
		<path class="st3" d="M216-80.7c-2.3,23.7-7.2,46.9-17,68.8c-3.6,8.1-8.2,15.8-12.2,23.7c-4.8,9.5-5.3,19.4-3.9,29.8
			c1.5,10.6,4,21.5-0.2,32c-5.8,14.6-18.9,21.2-35.1,22.9c-12.6,1.3-24.2-1-32.5-11.2c-4.7-5.7-7.9-12.2-10.5-19
			c-4.1-10.7-7.5-21.7-8.5-33c-1-10.8,3.8-20.7,10.9-28.6C119.4-9,123.7-25,124.8-42.6c0.9-15.5,4.2-30.5,15.5-42.7
			c4.6-5,10.6-8.5,16.7-11.4c12-5.7,24.5-9.6,38.2-9.4c14.1,0.2,20.9,6.6,20.9,20.4C216-84,216-82.3,216-80.7z"/>
		<path class="st3" d="M406.5-73.7c-2.1,15.7-1.4,32-8.7,46.8c-6.9,13.8-15.4,17.5-30.9,13.8c-16.5-3.9-30.8-12.1-40.6-25.3
			c-10.2-13.8-10.3-24.9,1-42.4c8.2-12.6,19.2-22.5,33.5-28.7c7.4-3.2,15.1-3.5,22.6-1.9c10.7,2.2,17.3,9.4,20.3,19.3
			C405.5-86.2,407-80.1,406.5-73.7z"/>
		<path class="st3" d="M732.1,315.8c6.7-0.3,13.8,1.2,21,2.1c8,1.1,15.6-1.6,23.3-2.9c6.5-1.1,12.8-2.7,19.6-2.3
			c11.7,0.7,19.7,7.1,26.6,15.1c7.5,8.7,12.7,18.5,13.5,30.3c1.2,17.5-11.9,25.7-24.7,27.3c-31.3,4-60.3-4.3-86.8-19.4
			c-11.3-6.4-19.7-16.6-18.9-31.1c0.5-10.3,8.3-18.6,19-19.1C726.9,315.7,729.2,315.8,732.1,315.8z"/>
		<path class="st3" d="M122.7,49.6c0.3-5.6,2.1-10.3,5.1-14.4c3.4-4.7,10.4-5.3,16-1.6c8.2,5.3,13.8,24,9.6,32.6
			c-5.7,11.8-16.8,10.4-24.2,2.6C124.4,63.5,122.9,56.2,122.7,49.6z"/>
		<path class="st3" d="M164.6-57.1c1.8-5.7,2.5-13.2,10.7-16.6c2-0.8,4-1.5,5.8,0.1c1.7,1.6,2.2,3.4,1.4,6c-1.8,5.7-5.6,10.3-9,15
			c-1.4,1.9-3.2,5.1-6.2,4C164-49.8,164.8-53.2,164.6-57.1z"/>
		<path class="st3" d="M390.1-71.4c0.3,10.9-1.5,20.5-7.4,29.2c-4,5.9-9.7,8.9-16.8,8.5c-11.2-0.7-20.5-5.2-26.5-14.5
			c-6.2-9.6-3-18.7,2.4-27.6c4.7-7.9,11.3-13.6,19.8-17.6c16.4-7.7,26.9,3.6,28.5,16.1C390.3-75.2,390.1-73,390.1-71.4z"/>
	</g>
	<use xlink:href="#SVGID_1_"  style="overflow:visible;fill:none;stroke:#FFFFFF;stroke-width:1.0011;stroke-miterlimit:10;"/>
</g>
</svg>
