<?xml version="1.0" encoding="utf-8"?>
<!-- Generator: Adobe Illustrator 26.0.0, SVG Export Plug-In . SVG Version: 6.00 Build 0)  -->
<svg version="1.2" baseProfile="tiny" id="Layer_1" xmlns="http://www.w3.org/2000/svg" xmlns:xlink="http://www.w3.org/1999/xlink"
	 x="0px" y="0px" viewBox="0 0 359.8 97.2" overflow="visible" xml:space="preserve">
<g>
	<polygon fill="none" points="269.7,76.3 272.8,76.3 271.2,72.6 	"/>
	<path fill="none" d="M250.8,72.2c0-0.9-0.7-1.5-1.8-1.5h-1.5v3.1h1.5C250.1,73.7,250.8,73,250.8,72.2z"/>
	<polygon fill="none" points="327,42.4 324,49.8 330.2,49.8 	"/>
	<path fill="none" d="M242.8,18.7h-0.9v3.3h0.9c1.2,0,2.3-0.3,2.3-1.7C245,18.9,244,18.7,242.8,18.7z"/>
	<polygon fill="none" points="191.6,76.3 190,72.6 188.5,76.3 	"/>
	<polygon fill="none" points="237.9,42.4 234.9,49.8 241,49.8 	"/>
	<path fill="none" d="M249,75.8h-1.4v3.4h1.4c1.8,0,2.4-0.5,2.4-1.7S250.8,75.8,249,75.8z"/>
	<path fill="none" d="M229.8,72.4c0-1.6-1.2-1.8-2.5-1.8h-1v3.7h1C228.5,74.3,229.8,73.9,229.8,72.4z"/>
	<polygon fill="none" points="180.3,42.4 177.3,49.8 183.5,49.8 	"/>
	<path fill="none" d="M326.7,22.6c0-2.2-1.8-4-4-4c-2.2,0-4,1.8-4,4c0,2.2,1.8,4,4,4C324.8,26.7,326.7,24.8,326.7,22.6z"/>
	<path d="M167.3,16.5v8.3c0,3.2,2.2,4.4,4.3,4.4c2.8,0,4.5-1.8,4.5-4v-8.9l-2.4,0.3v7.7c0,1.5-0.3,2.6-2,2.6c-1.9,0-2.1-1.3-2.1-2.4
		v-8.2L167.3,16.5z"/>
	<polygon points="193.2,29.1 193.3,29.1 193.3,16.2 190.9,16.5 190.9,23.6 183.5,16.2 183.4,16.2 183.4,29.1 185.8,28.8 185.8,21.7 
			"/>
	<polygon points="200.7,28.9 203.1,28.8 203.1,16.2 200.7,16.5 	"/>
	<polygon points="219.6,16.5 217.2,16.2 214.2,23.9 211.5,16.2 208.9,16.5 214.2,29.1 214.2,29.1 	"/>
	<polygon points="232.5,18.7 232.1,16.5 225.5,16.5 225.5,28.8 232.3,28.8 233.1,26.5 227.8,26.5 227.8,23.5 231.6,23.5 231.6,21.2 
		227.8,21.2 227.8,18.7 	"/>
	<path d="M247.7,20.3c0-2.6-1.9-3.8-4.2-3.8h-4V29l2.4-0.1v-6.2h0l4.2,6.5l2.6-0.6l-3.4-5C246.8,23,247.7,21.8,247.7,20.3z
		 M242.7,22.1h-0.9v-3.3h0.9c1.2,0,2.2,0.2,2.2,1.6C245,21.7,243.9,22.1,242.7,22.1z"/>
	<path d="M257.8,26.8c-1.3,0-1.8-0.6-2.4-1.3l-1.6,1.7c1,1.3,2.3,1.9,3.9,1.9c2.3,0,4.2-1.4,4.2-3.7c0-4.9-5.4-3.3-5.4-5.5
		c0-1.1,0.8-1.5,1.6-1.5c0.7,0,1.5,0.5,2.1,1.1l1.5-1.7c-0.7-1-2.2-1.7-3.5-1.7c-2.4,0-4.2,1.4-4.2,3.8c0,4.4,5.4,3,5.4,5.4
		C259.4,26.1,258.7,26.8,257.8,26.8z"/>
	<polygon points="268.7,16.5 268.7,28.9 271.1,28.8 271.1,16.2 	"/>
	<polygon points="282.9,28.8 282.9,18.7 286,18.7 286,16.5 277.7,16.5 277.1,18.7 280.5,18.7 280.5,28.9 	"/>
	<polygon points="295.7,29.1 301.2,16.8 298.9,16.2 296.4,21.9 293.6,16.2 291.3,16.8 295.3,24.4 293.2,28.6 	"/>
	<path d="M329.1,22.6c0-3.6-3-6.5-6.5-6.5c-3.6,0-6.5,2.9-6.5,6.5c0,3.6,3,6.5,6.5,6.5C326.2,29.1,329.1,26.2,329.1,22.6z
		 M318.6,22.6c0-2.2,1.8-4,4-4c2.2,0,4,1.8,4,4c0,2.2-1.8,4-4,4C320.4,26.7,318.6,24.8,318.6,22.6z"/>
	<polygon points="335.8,16.5 335.8,29.1 338.2,28.8 338.2,23.9 341.6,23.9 341.6,21.6 338.2,21.6 338.2,18.7 342.7,18.7 342.2,16.5 
			"/>
	<path d="M172.1,61.4l3.2-7h10.5l3.3,7l5.6-0.8l-14.3-27.9h-0.1l-13.8,27.9L172.1,61.4z M180.3,42.4l3.2,7.4h-6.2L180.3,42.4z"/>
	<polygon points="202.7,33.4 202.7,60.8 216.6,60.8 218,55.7 208,55.7 208,32.7 	"/>
	<path d="M229.6,61.4l3.2-7h10.5l3.3,7l5.6-0.8l-14.3-27.9h-0.1L224,60.6L229.6,61.4z M237.9,42.4l3.2,7.4h-6.2L237.9,42.4z"/>
	<path d="M259.1,41.1c0,9.7,12,6.6,12,12.1c0,1.7-1.6,3.2-3.5,3.2c-3,0-3.9-1.4-5.3-3l-3.6,3.8c2.3,2.8,5.2,4.3,8.6,4.3
		c5.2,0,9.3-3.2,9.3-8.2c0-10.8-12-7.4-12-12.1c0-2.5,1.7-3.3,3.5-3.3c1.5,0,3.4,1.1,4.7,2.5l3.3-3.8c-1.6-2.2-5-3.7-7.7-3.7
		C263,32.7,259.1,35.9,259.1,41.1z"/>
	<polygon points="286.6,61.1 291.9,60.8 291.9,46.6 292,46.6 301.6,61.4 307,59.5 297.8,46.2 306.7,34.8 301.6,32.7 292,45.4 
		291.9,45.4 291.9,32.7 286.6,33.4 	"/>
	<path d="M318.7,61.4l3.2-7h10.5l3.3,7l5.6-0.8l-14.3-27.9H327l-13.8,27.9L318.7,61.4z M327,42.4l3.2,7.4H324L327,42.4z"/>
	<polygon points="174.5,70.6 173.9,68.1 166.9,68.1 166.9,82.1 169.5,81.8 169.5,76.3 173.2,76.3 173.2,73.8 169.5,73.8 169.5,70.6 
			"/>
	<path d="M183.1,81.7l2.8,0.4l1.6-3.5h5.3l1.6,3.5l2.8-0.4L190,67.8h0L183.1,81.7z M191.6,76.3h-3.1l1.5-3.7L191.6,76.3z"/>
	<polygon points="210.8,81.8 210.8,67.8 208.2,68.1 208.2,82 	"/>
	<path d="M223.6,82l2.6-0.2v-6.9h0l4.7,7.2l2.9-0.7l-3.7-5.5c1.6-0.5,2.6-1.9,2.6-3.6c0-2.9-2.1-4.2-4.7-4.2h-4.4V82z M226.3,70.6h1
		c1.3,0,2.5,0.2,2.5,1.8c0,1.5-1.3,1.9-2.6,1.9h-1V70.6z"/>
	<path d="M253.7,71.8c0-1.3-0.7-3.8-4-3.8H245v13.7h5.2c2.6,0,4.2-1.7,4.2-3.8c0-1.7-1-2.8-2.5-3.4C253,74.1,253.7,73.1,253.7,71.8z
		 M247.6,70.6h1.5c1,0,1.8,0.7,1.8,1.5c0,0.9-0.7,1.5-1.8,1.5h-1.5V70.6z M249,79.3h-1.4v-3.4h1.4c1.8,0,2.4,0.5,2.4,1.7
		S250.8,79.3,249,79.3z"/>
	<path d="M271.2,67.8l-6.9,13.9l2.8,0.4l1.6-3.5h5.3l1.6,3.5l2.8-0.4L271.2,67.8L271.2,67.8z M269.7,76.3l1.5-3.7l1.6,3.7H269.7z"/>
	<polygon points="289.4,67.8 289.3,67.8 289.3,82.1 291.9,81.8 291.9,73.9 300.1,82.1 300.2,82.1 300.2,67.8 297.6,68.1 297.6,76.1 
			"/>
	<polygon points="312.9,82 315.5,81.8 315.5,74.7 315.6,74.7 320.4,82.1 323.1,81.1 318.5,74.5 322.9,68.8 320.4,67.8 315.6,74.1 
		315.5,74.1 315.5,67.8 312.9,68.1 	"/>
	<path d="M338.1,70.3c0.7,0,1.7,0.6,2.4,1.2l1.6-1.9c-0.8-1.1-2.5-1.9-3.8-1.9c-2.7,0-4.7,1.6-4.7,4.2c0,4.9,6,3.3,6,6
		c0,0.8-0.8,1.6-1.8,1.6c-1.5,0-2-0.7-2.6-1.5l-1.8,1.9c1.2,1.4,2.6,2.1,4.3,2.1c2.6,0,4.7-1.6,4.7-4.1c0-5.4-6-3.7-6-6.1
		C336.3,70.7,337.2,70.3,338.1,70.3z"/>
	<polygon points="130.3,50.3 149,50.3 149,36.6 130.5,36.6 130.5,29.1 154.6,29.1 154.6,15.5 108.9,15.5 108.9,46.6 119.9,82.2 
		130.3,82.2 	"/>
	<path fill="#FFFFFF" d="M120.1,83.7l-1.4,0l0,0h13.1V51.8h18.7V35H132v-4.4h24.1V13.9h-48.8l0,28.6L120.1,83.7z M108.9,46.6l0-31.1
		h45.7v13.6h-24.1v7.5H149v13.7h-18.7v31.8h-10.4L108.9,46.6z"/>
	<path d="M43.3,59.7c0,0.1,0.1,1.7-0.9,2.8c-0.6,0.6-1.4,1-2.4,1c-0.9,0-1.6-0.3-2.1-0.9c-1-1.1-0.9-2.8-0.9-2.9l0-44.2H17.1v60.4
		c0.2,0.5,2.5,7.1,24.4,7.1c3.3,0,6.2-0.2,8.8-0.5l12.6-37.3V15.4H43.3L43.3,59.7z"/>
	<path fill="#FFFFFF" d="M40,61.9C40,61.9,40,61.9,40,61.9c-0.4,0-0.8-0.1-1-0.4c-0.5-0.5-0.5-1.5-0.5-1.9l0-45.8h-23v62l0,0.1
		c0.1,0.3,1.6,8.4,25.9,8.4c4.1,0,7.8-0.3,10.9-0.8l-2.4,0l14.5-42.9l0-26.9H41.8l0,45.9c0,0,0.1,1.1-0.5,1.7
		C41,61.8,40.6,61.9,40,61.9z M62.9,45.1L50.3,82.4c-2.6,0.3-5.5,0.5-8.8,0.5c-21.9,0-24.2-6.6-24.4-7.1V15.4H37l0,44.2
		c0,0.2-0.1,1.9,0.9,2.9c0.5,0.6,1.3,0.9,2.1,0.9c1,0,1.8-0.3,2.4-1c1-1.1,0.9-2.7,0.9-2.8l0-44.3h19.6V45.1z"/>
	<path d="M89.5,69.3l3.9,1.6l0.7,3.2l-1.5,3l4.2,1.4l-1.7-8.8l-5.1-2.1c0.3-2.1,0.4-4.2,0.2-6.5l-1.8-0.3c0.3,5.2-0.6,10.4-2.9,15.7
		l2-0.2C88.3,73.7,89,71.5,89.5,69.3z"/>
	<path d="M52.1,82.1l13.4,0l8.6-3.2H54.8l0.7-1.9h22.8c1.2-1,1.9-2.4,2.5-4.3l-1.2-9l-1.4-1.1L76.8,64l1.1,0.7l1,7.7
		c-0.6,1.8-1.6,3.1-3.2,3.8c-0.6-0.7-1.4-1.6-2.1-2.3H56.5l0.7-1.9h15.1c-0.7-1.1-1-2.1-1.2-3.2H58.3l0.7-1.9h11.8
		c-0.2-1.2-0.3-2.4-0.7-3.6c-1.4-4.4-1.3-8.5,0-13.6c0.7-2.6,2.4-6.1,2.5-6.4c0.8-1.9,1.8-3.5,3.2-5c0.2-0.2,0.2-0.3,0.5-0.5
		c0,0-0.2-1,1-1.6c0.7-0.4,1.6,0,1.8,0.1c2.2-0.9,4.2-0.7,6.2,0.1c0.9,0.4,1.6,1.3,1.6,1.3s3.3,0.7,4.6,1.4c0.3,0.5-0.9,2.9-1.3,3.3
		c-4.9-0.4-4.4,1.3-5.2,3.5l-0.6,2l1.8,0.7l0.6-2c4.8,1.6,14.4,3.9,18.7,10.7c1.3,2,1.5,5.7,1.3,9.5h4.8l0.6,1.9h-5.5
		c-0.1,1.1-0.2,2.1-0.3,3.2h6.8l0.6,1.9H106c-0.2,1.2-0.3,2.2-0.5,3.2h9.2l0.6,1.9h-10.1c-0.2,1.1-0.3,1.7-0.3,1.7l3.5,1.4l9.8,0
		L97.3,15.5H74.5L52.1,82.1z"/>
	<path fill="#FFFFFF" d="M49.9,83.7l2.4,0l66.4,0l1.4,0l-12.8-41.2L98.4,14h-25l-9,26.8L49.9,83.7z M97.3,15.5l20.8,66.7l-9.8,0
		l1.6,0.7H63.7l1.8-0.7l-13.4,0l22.5-66.7H97.3z"/>
	<path fill="#FFFFFF" d="M105.1,79h10.1l-0.6-1.9h-9.2c0.2-0.9,0.3-2,0.5-3.2h7.7l-0.6-1.9h-6.8c0.1-1,0.2-2.1,0.3-3.2h5.5l-0.6-1.9
		h-4.8c0.2-3.9-0.1-7.5-1.3-9.5c-4.3-6.8-13.9-9.1-18.7-10.7l-0.6,2l-1.8-0.7l0.6-2c0.8-2.2,0.3-4,5.2-3.5c0.4-0.4,1.6-2.7,1.3-3.3
		c-1.4-0.7-4.6-1.4-4.6-1.4s-0.7-1-1.6-1.3c-1.9-0.8-4-0.9-6.2-0.1c-0.2-0.1-1.1-0.5-1.8-0.1c-1.2,0.6-1,1.5-1,1.6
		c-0.2,0.2-0.3,0.3-0.5,0.5c-1.4,1.5-2.4,3.1-3.2,5c-0.2,0.3-1.9,3.8-2.5,6.4c-1.3,5.1-1.4,9.2,0,13.6c0.4,1.2,0.6,2.5,0.7,3.6H58.9
		l-0.7,1.9h12.8c0.2,1.1,0.6,2.1,1.2,3.2H57.2L56.5,74h17.3c0.6,0.8,1.4,1.6,2.1,2.3c1.6-0.8,2.6-2,3.2-3.8l-1-7.7L76.8,64l1.4-1.6
		l1.4,1.1l1.2,9c-0.6,1.9-1.3,3.4-2.5,4.3H55.5l-0.7,1.9H74l-8.6,3.2l-1.8,0.7h46.2l-1.6-0.7l-3.5-1.4
		C104.8,80.7,104.9,80.1,105.1,79z M88.3,60.7L90,61c0.2,2.3,0.1,4.4-0.2,6.5l5.1,2.1l1.7,8.8l-4.2-1.4l1.5-3l-0.7-3.2l-3.9-1.6
		c-0.5,2.2-1.2,4.4-2.1,6.9l-2,0.2C87.6,71.1,88.6,65.8,88.3,60.7z"/>
	<polygon points="138,82.2 138,78 139.3,78 139.3,77 135.8,77 135.5,78 137,78 137,82.3 	"/>
	<polygon points="142.1,80.4 140.4,76.9 140.4,76.9 139.4,82.2 140.4,82.4 140.8,79.7 140.8,79.7 142.1,82.4 142.1,82.4 143.4,79.7 
		143.4,79.7 143.9,82.4 144.9,82.2 143.8,76.9 143.8,76.9 	"/>
</g>
</svg>
